{"glyphs":{"0":{"ha":600,"x_min":0,"x_max":0,"o":"m 258 964 b 175 918 229 954 194 935 b 110 815 149 894 125 857 b 75 569 90 760 82 704 b 72 528 74 556 72 536 b 68 429 71 511 69 486 b 75 276 67 385 71 307 b 110 143 83 224 96 174 b 233 15 139 78 178 38 b 333 6 271 0 290 -1 b 389 19 361 10 372 13 b 443 65 408 28 421 39 b 507 207 481 108 492 133 b 522 339 515 251 521 299 b 526 447 522 356 525 415 b 526 526 526 460 526 469 b 526 574 526 539 526 560 b 522 663 528 593 526 611 b 513 747 518 721 517 728 b 479 851 504 788 492 826 b 397 947 460 892 428 929 b 313 972 372 961 340 971 b 297 972 306 972 299 972 b 278 969 296 972 288 971 b 253 965 268 968 257 967 z m 372 869 b 368 854 372 868 371 861 b 343 783 364 843 358 826 b 326 728 340 775 333 750 b 308 669 319 706 311 679 b 293 617 306 660 299 636 b 218 383 257 499 236 433 b 196 319 213 368 203 339 b 176 264 189 300 181 275 b 164 228 172 253 167 236 b 158 213 161 219 158 213 b 140 308 156 213 144 271 b 140 543 135 358 135 449 b 143 599 142 558 143 583 b 174 801 147 699 156 756 b 258 893 193 850 217 875 b 293 901 274 900 274 900 b 326 899 308 901 314 901 b 372 874 346 893 369 881 z m 450 667 b 453 608 451 646 453 619 b 453 553 453 597 453 572 b 453 499 453 533 453 510 b 453 461 453 488 453 471 b 453 428 453 451 453 436 b 449 351 450 399 449 371 b 428 193 447 297 440 246 b 382 106 419 156 408 135 b 322 72 363 83 353 78 b 253 78 290 67 275 68 b 218 99 240 83 232 89 b 210 138 200 113 200 113 b 228 188 214 150 222 172 b 282 346 239 222 261 286 b 347 550 306 415 317 450 b 378 646 357 582 371 625 b 414 768 390 686 406 738 b 421 793 417 779 419 790 l 422 799 l 426 788 b 436 758 429 782 433 768 b 451 663 446 724 449 703 z "},"1":{"ha":324,"x_min":0,"x_max":0,"o":"m 78 961 b 69 946 72 958 69 953 b 83 931 69 938 76 931 b 111 931 86 931 99 931 l 135 931 l 133 871 b 132 578 133 838 132 706 b 129 317 132 450 131 332 b 126 163 128 301 126 232 b 128 33 125 53 125 38 l 131 28 l 115 26 b 89 8 94 25 89 21 b 93 -1 89 4 90 1 l 97 -6 l 163 -6 b 250 3 236 -6 244 -4 b 247 28 257 10 256 22 b 215 29 242 31 233 31 l 199 28 l 199 33 b 201 325 197 122 199 251 b 201 804 204 428 204 643 b 194 951 200 917 199 944 b 171 961 190 958 183 961 b 119 961 165 961 142 961 b 74 958 92 961 76 960 z "},"2":{"ha":590,"x_min":0,"x_max":0,"o":"m 111 863 b 97 725 90 817 85 764 b 100 714 99 719 100 714 b 94 714 100 714 97 714 b 75 699 82 714 75 708 b 78 690 75 696 76 692 b 140 683 82 683 86 683 l 192 683 l 196 688 b 200 699 199 690 200 693 b 196 710 200 704 200 706 b 181 714 192 714 190 714 b 168 721 171 715 171 715 b 161 763 164 731 161 749 b 196 858 161 796 176 838 b 372 890 238 904 324 919 b 433 804 399 875 422 842 b 414 588 450 751 443 674 b 356 463 399 543 388 518 b 200 244 321 403 271 333 b 114 121 168 204 142 167 b 93 88 107 108 97 93 b 74 51 82 71 78 64 b 88 3 67 29 71 13 b 231 0 96 -3 81 -3 b 431 1 343 1 347 1 l 488 1 l 488 -32 l 493 -37 b 504 -43 497 -42 500 -43 b 521 -32 513 -43 518 -39 b 521 60 524 -25 524 13 b 519 103 519 76 519 96 b 514 129 521 118 519 124 b 496 129 510 133 500 133 b 489 93 490 124 489 117 l 489 71 l 464 72 b 303 75 401 75 344 76 b 215 75 278 75 239 75 b 172 78 176 75 172 75 b 204 129 172 81 179 93 b 257 203 228 165 233 172 b 378 367 294 250 351 326 b 479 561 431 446 460 501 b 511 701 497 615 506 651 b 474 885 518 774 507 831 b 342 975 443 936 396 968 b 276 974 326 976 292 976 b 113 860 200 961 140 919 z "},"3":{"ha":647,"x_min":0,"x_max":0,"o":"m 72 940 b 71 863 72 910 71 875 b 71 835 69 849 69 838 b 96 824 74 824 86 818 b 108 863 106 829 107 835 l 108 889 b 421 907 108 889 424 910 b 140 682 417 903 140 694 b 151 650 140 672 142 668 b 201 631 164 626 175 622 b 324 647 233 640 282 647 b 385 639 354 647 364 646 b 481 556 424 625 460 593 b 506 410 499 522 507 471 b 497 331 504 376 503 361 b 453 192 488 275 475 236 b 364 86 425 135 396 100 b 288 67 338 74 317 68 b 211 90 253 65 231 72 b 175 161 194 106 185 124 b 182 308 164 207 167 268 b 192 321 188 321 189 322 b 203 319 193 321 199 319 b 225 329 214 318 221 321 b 226 342 228 335 228 336 b 207 354 224 349 217 353 b 167 361 203 354 185 357 b 85 365 100 374 93 374 b 88 342 78 358 79 346 b 101 338 89 340 96 339 b 113 335 107 336 113 335 b 107 315 113 335 110 326 b 93 231 97 279 94 265 b 110 110 92 182 96 153 b 132 61 117 88 122 76 b 265 -10 161 18 208 -7 b 404 24 313 -11 361 0 b 546 235 460 54 515 138 b 572 449 567 303 576 381 b 542 581 569 506 561 543 b 497 642 531 603 518 621 b 433 689 475 664 457 678 b 297 713 390 710 351 717 b 271 711 283 711 271 711 b 296 729 271 711 282 719 b 353 772 310 739 335 758 b 406 813 371 786 394 804 b 501 885 444 840 493 878 b 518 918 513 894 518 906 b 496 958 518 936 510 951 b 403 961 489 961 486 961 b 203 954 301 961 265 960 b 136 947 176 951 147 949 b 111 943 125 946 114 944 b 107 942 108 942 107 942 b 107 965 107 942 107 953 b 96 1001 106 992 104 997 b 82 1001 89 1004 88 1004 b 72 936 74 997 74 996 z "},"4":{"ha":626,"x_min":0,"x_max":0,"o":"m 69 956 b 74 946 69 953 71 949 b 107 939 79 940 86 939 l 119 939 l 121 933 b 119 778 122 925 122 886 b 108 565 117 661 114 613 b 110 515 106 538 106 524 b 139 497 115 506 126 499 b 286 494 144 496 201 494 b 426 493 363 494 425 493 b 426 369 428 492 428 471 b 425 228 426 301 425 238 b 422 144 425 218 424 181 b 419 56 421 108 419 68 l 418 32 l 394 31 b 357 24 368 29 361 28 b 354 8 353 18 351 14 b 438 -1 357 -1 356 -1 b 547 8 533 -1 542 -1 b 538 33 553 17 547 32 b 511 32 535 33 524 33 b 489 29 499 31 489 29 b 489 96 488 31 488 49 b 494 422 492 192 493 289 b 497 638 494 496 496 593 b 497 919 499 707 499 867 l 497 935 l 518 935 b 543 939 539 935 539 935 b 540 967 551 947 550 961 b 489 968 536 969 532 969 b 418 965 464 967 432 965 b 382 958 392 965 388 964 b 382 939 378 954 378 943 b 407 933 388 933 392 932 b 426 933 415 933 424 933 l 431 932 l 431 913 b 429 856 431 901 431 876 b 425 639 428 819 426 776 b 425 568 425 601 425 569 b 324 565 425 565 425 565 b 201 564 242 565 218 565 b 179 563 190 563 181 563 b 179 586 178 564 178 572 b 185 889 186 667 189 821 b 183 925 183 903 183 919 l 185 936 l 196 936 b 210 939 201 936 207 938 b 218 957 215 942 219 950 b 206 969 217 963 210 969 b 71 969 193 971 75 971 b 60 954 65 968 60 961 z "},"5":{"ha":611,"x_min":0,"x_max":0,"o":"m 468 1010 b 465 985 467 1007 465 996 b 464 964 465 974 464 964 b 458 967 464 964 461 965 b 404 971 454 968 438 969 b 351 974 378 972 354 974 b 222 974 344 975 253 975 b 157 956 178 972 164 968 b 146 906 154 950 149 926 b 110 719 142 879 131 822 b 90 615 99 665 90 618 b 126 575 90 599 107 581 b 163 589 139 572 147 575 b 289 635 201 621 239 635 b 375 599 319 635 342 625 b 435 521 401 578 419 554 b 467 371 457 474 467 431 b 458 282 467 335 465 315 b 419 165 450 239 438 201 b 297 74 388 100 364 82 b 219 89 263 69 236 75 b 175 179 204 103 183 146 b 175 260 171 196 171 238 b 185 297 179 281 183 296 b 200 297 186 299 192 299 b 219 297 211 296 215 296 b 221 331 233 303 235 324 b 86 339 211 335 104 342 b 68 322 74 338 68 332 b 99 306 68 310 76 306 b 110 303 111 306 111 306 b 101 189 100 258 97 222 b 158 50 107 143 131 86 b 296 0 188 13 236 -6 b 433 54 360 6 401 22 b 535 290 479 100 518 190 b 536 439 542 332 543 397 b 469 607 526 501 503 563 b 358 696 443 643 396 681 b 299 710 336 706 324 708 b 190 692 261 711 222 704 l 176 686 l 178 692 b 189 751 178 694 183 721 b 208 876 203 822 204 833 l 213 911 l 222 911 b 267 910 228 911 247 911 b 372 906 286 908 333 907 b 453 903 411 904 447 903 l 464 901 l 463 883 b 464 858 461 867 461 864 b 499 864 472 840 496 844 b 497 1007 500 872 499 994 b 474 1022 496 1022 485 1029 b 467 1015 471 1021 468 1018 z "},"6":{"ha":565,"x_min":0,"x_max":0,"o":"m 239 979 b 121 815 192 950 147 889 b 79 635 101 763 85 690 b 76 267 64 489 63 379 b 167 24 92 142 118 71 b 332 -7 217 -25 269 -35 b 438 88 372 11 408 43 b 492 310 478 149 500 239 b 347 525 479 413 428 490 b 250 533 317 539 286 542 b 151 490 218 526 176 508 b 142 483 146 486 142 483 b 146 547 142 483 144 529 b 167 708 153 635 157 667 b 249 894 186 799 211 854 b 307 931 269 917 288 928 b 344 915 319 932 331 928 b 381 806 368 893 381 854 b 381 781 381 793 381 782 b 368 779 381 779 378 779 b 338 771 351 779 343 776 b 333 753 332 765 331 760 b 364 744 338 744 343 743 b 432 746 374 746 404 746 b 488 749 479 746 483 746 b 493 771 496 753 499 763 b 469 781 489 778 483 781 b 457 782 461 781 457 781 b 454 817 457 783 456 799 b 429 926 451 867 444 897 b 290 1000 399 983 343 1013 b 247 982 278 997 258 989 z m 372 428 b 429 314 401 400 421 361 b 431 256 433 292 433 278 b 385 124 426 207 410 160 b 319 64 365 96 344 76 b 235 71 286 47 261 49 b 154 329 190 108 168 181 b 153 383 150 371 150 379 b 192 421 157 389 178 410 b 318 465 228 451 286 472 b 375 431 335 461 358 447 z "},"7":{"ha":567,"x_min":0,"x_max":0,"o":"m 72 954 b 79 871 68 883 68 876 b 104 886 90 865 103 872 b 104 899 104 890 104 896 b 113 904 104 903 104 903 b 401 904 124 906 401 906 b 394 883 401 904 399 894 b 382 849 390 872 385 857 b 331 688 375 829 343 728 b 306 603 325 669 314 631 b 288 542 297 575 289 547 l 285 532 l 247 532 b 186 532 226 532 199 532 l 163 531 l 163 547 b 154 575 163 565 161 571 b 132 569 147 579 136 576 b 128 536 131 567 129 557 b 124 481 126 519 125 494 b 122 450 122 467 122 453 b 128 440 122 447 125 443 b 139 435 132 436 133 435 b 156 453 150 435 154 439 l 157 464 l 171 465 b 251 461 185 467 236 464 l 258 460 l 254 449 b 231 375 253 442 242 408 b 165 181 219 342 190 254 b 119 39 140 107 119 43 l 118 31 l 107 29 b 67 18 75 26 69 25 b 74 -3 63 10 65 1 b 99 -3 78 -4 83 -4 b 171 -1 110 -1 142 -1 b 226 0 219 -3 222 -3 b 235 14 231 3 235 10 b 232 22 235 15 233 19 b 204 32 228 29 222 32 b 189 32 196 32 189 32 b 232 158 189 32 208 89 b 294 346 256 228 283 313 b 332 457 325 439 331 457 b 390 457 333 457 360 457 b 451 458 421 457 449 458 l 456 460 l 456 444 b 458 424 456 431 456 428 b 467 417 460 421 464 418 b 479 418 472 415 474 415 b 488 425 483 419 486 422 b 489 496 490 431 490 435 b 486 564 488 547 488 561 b 471 572 483 569 476 574 b 456 539 460 571 456 563 l 456 528 l 451 529 b 364 529 447 531 375 531 b 361 554 353 528 353 528 b 389 640 365 567 378 606 b 425 756 400 675 415 726 b 471 919 449 828 468 897 b 465 953 472 929 469 944 b 442 974 461 961 451 969 l 432 978 l 386 978 b 107 968 246 978 135 974 l 103 967 l 103 1000 l 97 1006 b 79 1010 92 1011 86 1013 b 67 954 71 1006 69 1001 z "},"8":{"ha":554,"x_min":0,"x_max":0,"o":"m 233 976 b 158 915 208 965 175 938 b 131 728 124 865 114 799 b 165 644 138 697 149 671 b 218 572 178 622 188 608 l 224 565 l 213 553 b 86 338 153 485 110 411 b 75 163 68 279 64 217 b 100 92 79 143 90 111 b 160 13 114 61 139 28 b 253 -26 183 -6 219 -21 b 294 -29 268 -29 275 -29 b 379 -8 328 -28 351 -22 b 424 24 396 0 407 8 b 485 153 460 57 479 97 b 483 268 488 174 486 236 b 417 465 476 338 454 404 b 353 551 394 501 374 529 b 339 567 346 560 339 567 b 347 576 339 567 343 571 b 419 685 378 610 400 643 b 458 825 444 736 457 781 b 382 971 461 894 435 944 b 335 986 367 978 349 983 b 285 989 322 989 297 990 b 236 976 271 988 250 982 z m 386 838 b 353 717 386 800 376 764 b 290 618 336 683 307 636 b 265 633 285 613 282 614 b 204 736 231 674 215 700 b 211 861 192 782 194 831 b 289 918 228 890 258 913 b 326 915 299 919 315 918 b 385 836 368 904 385 882 z m 406 293 b 413 194 411 264 413 240 b 410 138 413 154 413 149 b 326 50 399 94 368 63 b 265 47 313 46 282 44 b 201 75 243 51 214 64 b 156 153 182 93 168 117 b 190 396 131 225 143 310 b 258 493 208 428 225 451 b 283 519 278 517 281 519 b 301 501 285 519 293 511 b 407 293 354 442 394 363 z "},"9":{"ha":515,"x_min":0,"x_max":0,"o":"m 204 924 b 86 678 131 863 90 779 b 146 497 83 613 110 533 b 303 490 189 454 246 451 b 367 561 322 504 349 533 b 369 554 369 565 369 565 b 369 506 369 549 369 526 b 369 417 369 485 369 444 b 364 283 368 349 367 308 b 308 96 354 172 342 131 b 281 76 297 85 293 82 b 258 69 269 71 264 69 b 206 117 240 69 217 90 b 193 213 194 143 190 172 b 206 247 196 250 196 249 b 231 265 221 246 231 253 b 225 278 231 272 229 274 l 219 282 l 186 282 b 118 281 168 282 138 282 b 69 269 81 278 74 276 b 69 253 67 265 67 257 b 103 246 74 246 79 244 b 124 244 124 247 125 247 b 121 172 121 236 119 196 b 167 43 124 118 138 79 b 208 11 174 35 197 17 b 283 3 233 -1 260 -4 b 342 32 300 7 326 21 b 410 135 369 54 396 94 b 436 319 422 174 432 244 b 439 539 438 346 439 447 b 442 772 440 679 440 721 b 440 899 443 838 443 885 b 431 924 439 906 436 914 b 410 953 424 938 421 942 b 351 985 392 971 375 979 b 299 982 338 988 315 986 b 203 931 264 974 236 958 z m 375 890 b 378 838 378 883 379 857 b 361 735 375 810 367 756 b 318 628 353 697 339 663 b 247 550 292 583 272 563 b 224 543 236 544 233 543 b 207 546 215 543 213 543 b 171 600 193 553 181 572 b 206 826 146 671 160 761 b 285 897 224 853 258 883 b 351 908 308 910 335 914 b 378 888 360 906 374 894 z "},"\u0000":{"ha":0,"x_min":0,"x_max":0,"o":""},"\n":{"ha":0,"x_min":0,"x_max":0,"o":""},"\r":{"ha":0,"x_min":0,"x_max":0,"o":""}," ":{"ha":400,"x_min":0,"x_max":0,"o":""},"!":{"ha":314,"x_min":0,"x_max":0,"o":"m 118 235 l 101 233 b 79 228 85 232 85 232 b 82 206 72 221 74 211 b 157 201 86 203 92 203 b 231 201 196 201 229 201 b 242 218 238 204 242 211 b 236 231 242 224 240 226 l 232 236 l 193 238 l 196 338 b 199 557 197 414 199 508 b 199 758 199 604 199 694 b 197 907 199 831 199 886 b 194 942 196 925 194 940 b 208 943 194 943 199 943 b 233 950 222 943 228 944 b 231 976 240 957 239 971 b 203 979 226 979 222 979 b 160 979 190 979 171 979 b 72 972 75 976 78 976 b 79 946 63 964 67 950 b 104 944 82 944 93 944 l 125 944 l 122 800 b 119 583 121 721 119 624 b 114 267 119 494 117 313 z m 236 83 b 178 139 229 104 200 132 b 143 140 163 143 156 143 b 101 118 124 136 114 131 b 72 75 89 104 76 86 b 72 31 68 64 68 42 b 94 -6 78 17 86 3 b 103 -14 99 -10 103 -14 b 111 -18 104 -14 107 -15 b 125 -25 115 -21 121 -24 b 169 -25 135 -28 156 -28 b 213 -4 185 -22 204 -12 b 233 38 221 4 231 24 b 233 81 236 49 236 71 z "},"(":{"ha":403,"x_min":0,"x_max":0,"o":"m 311 947 b 219 1003 286 963 235 993 b 190 1010 204 1013 197 1014 b 185 993 186 1007 183 999 b 204 974 186 986 190 982 b 217 964 211 969 217 965 b 211 954 217 963 214 958 b 143 815 182 907 165 874 b 81 601 111 732 90 660 b 74 328 68 525 65 408 b 143 76 85 226 104 156 b 176 19 158 47 169 28 l 182 14 l 176 10 b 161 -12 161 -4 161 -6 b 164 -22 161 -17 163 -21 b 182 -28 167 -26 176 -29 b 214 -4 185 -26 199 -17 b 267 35 229 8 253 25 b 294 56 281 44 293 54 b 297 64 296 57 297 61 b 274 78 297 75 285 83 b 257 65 271 76 264 71 b 244 56 250 60 244 56 b 222 88 243 56 228 76 b 189 161 214 103 197 139 b 147 497 156 247 140 365 b 236 843 153 611 171 681 b 278 928 250 876 274 925 b 296 921 279 929 283 928 b 317 910 304 915 314 910 b 336 931 328 908 339 919 b 315 950 335 938 331 942 z "},")":{"ha":399,"x_min":0,"x_max":0,"o":"m 324 575 b 244 864 311 685 281 794 b 185 950 228 896 213 918 b 164 974 176 960 167 971 b 158 981 161 976 158 979 b 164 990 158 982 161 986 b 165 1018 174 1001 174 1010 b 142 1018 158 1025 149 1025 b 89 958 136 1013 103 975 b 69 928 74 940 69 935 b 81 914 69 921 74 915 b 103 926 89 913 94 915 b 111 936 107 932 111 936 b 153 883 114 936 139 904 b 196 799 164 865 188 819 b 254 453 235 700 258 561 b 246 360 253 429 249 379 b 225 243 238 303 233 278 b 160 89 210 183 199 157 b 135 46 149 69 138 50 b 131 38 132 42 131 38 b 117 44 131 38 124 40 b 86 47 100 54 93 54 b 83 28 81 42 79 35 b 121 3 86 24 92 19 b 211 -43 181 -31 206 -43 b 226 -29 219 -43 226 -36 b 207 -8 226 -21 222 -17 b 194 1 200 -4 194 0 b 197 8 194 3 196 6 b 278 167 244 92 268 138 b 326 436 303 240 321 339 b 321 581 328 468 325 547 z "},"*":{"ha":544,"x_min":0,"x_max":0,"o":"m 469 774 b 443 767 461 782 451 779 b 438 760 440 763 438 760 b 432 764 438 760 435 761 b 399 786 429 767 414 776 b 353 814 383 796 363 808 b 350 833 333 826 333 825 b 392 856 356 836 374 846 b 424 871 414 868 424 872 b 426 865 424 869 425 867 b 451 876 435 857 450 864 b 442 903 453 881 451 885 b 410 958 422 940 414 954 b 385 956 403 967 390 965 b 386 938 383 951 383 943 b 383 933 388 936 386 935 b 361 921 381 932 371 926 b 311 896 326 901 313 894 b 306 947 308 897 306 924 l 306 965 l 311 965 b 322 968 314 965 319 967 b 324 999 336 972 338 993 b 263 996 318 1001 324 1001 b 208 989 229 993 211 990 b 201 972 201 986 199 979 b 226 963 204 964 208 963 l 242 963 l 243 922 b 243 882 243 900 243 882 b 146 939 242 881 153 933 b 150 944 146 939 147 942 b 150 965 156 953 156 960 b 119 958 142 975 129 972 b 94 922 117 954 106 938 b 69 886 83 907 72 890 b 67 872 65 879 65 878 b 75 864 68 868 71 865 b 99 876 83 860 89 863 l 107 888 l 111 883 b 174 838 117 878 140 861 l 204 817 l 183 799 b 140 761 172 789 153 772 l 118 742 l 113 749 b 104 756 110 753 106 756 b 83 739 94 758 83 750 b 113 694 83 732 83 732 b 140 661 122 682 135 667 b 157 650 150 651 151 650 b 171 669 167 650 174 660 b 165 681 171 672 168 676 b 160 690 163 685 160 689 b 240 753 161 693 238 753 b 240 707 240 753 240 732 l 240 661 l 233 661 b 218 653 225 661 221 660 b 218 642 217 649 217 646 b 264 631 221 632 224 632 b 310 629 283 631 304 629 b 325 631 315 629 322 629 b 338 646 331 632 338 640 b 317 664 338 654 326 664 l 313 664 l 313 704 b 313 747 313 726 313 746 b 349 729 313 750 317 747 b 386 707 368 718 385 708 b 385 699 388 706 388 704 b 383 686 382 693 382 692 b 401 675 386 678 393 674 b 413 682 406 675 408 676 b 463 750 419 689 453 735 b 464 776 471 763 471 769 z "},",":{"ha":313,"x_min":0,"x_max":0,"o":"m 242 54 b 217 107 239 78 233 90 b 135 129 194 129 165 138 b 90 101 117 125 104 117 b 69 44 75 85 67 63 b 88 0 71 31 79 11 b 140 -25 97 -12 124 -25 b 154 -29 150 -25 154 -26 b 146 -53 154 -31 150 -42 b 143 -100 136 -79 135 -96 b 163 -103 146 -101 154 -103 b 189 -89 178 -101 178 -101 b 228 -21 201 -75 218 -46 b 239 57 238 4 242 35 z "},"-":{"ha":504,"x_min":0,"x_max":0,"o":"m 433 469 b 425 543 432 532 432 536 b 406 543 419 547 411 547 b 401 521 401 539 401 538 b 401 504 401 511 401 504 b 396 507 401 504 399 506 b 267 510 392 510 382 510 b 107 497 132 510 108 497 b 103 515 104 497 104 500 b 92 544 101 536 100 540 b 86 547 89 546 86 547 b 83 547 86 547 85 547 b 72 531 78 546 72 538 b 71 471 72 526 72 500 b 69 413 69 442 69 415 b 97 403 72 400 88 394 b 101 421 101 407 101 407 l 101 435 l 107 435 b 197 439 126 435 178 438 b 261 439 210 439 185 439 l 399 439 l 397 425 b 399 406 396 413 396 411 b 426 406 406 394 419 394 b 428 469 429 411 429 413 z "},".":{"ha":307,"x_min":0,"x_max":0,"o":"m 235 85 b 176 140 228 106 199 133 b 142 142 161 144 154 144 b 100 119 122 138 113 132 b 71 76 88 106 75 88 b 71 32 67 65 67 43 b 93 -4 76 18 85 4 b 101 -12 97 -8 101 -12 b 110 -17 103 -12 106 -14 b 124 -24 114 -19 119 -22 b 168 -24 133 -26 154 -26 b 211 -3 183 -21 203 -11 b 232 39 219 6 229 25 b 232 82 235 50 235 72 z "},"/":{"ha":626,"x_min":0,"x_max":0,"o":"m 553 960 l 549 965 l 518 967 b 378 965 460 968 383 968 b 375 938 367 960 365 946 b 404 935 378 936 385 935 l 429 933 l 422 911 b 399 838 418 899 407 865 b 375 763 390 810 379 776 b 360 715 371 749 364 728 b 346 669 356 703 350 682 b 336 635 342 657 338 642 b 326 600 335 628 331 613 b 317 569 322 588 318 574 b 294 497 314 561 304 529 b 157 89 283 463 168 119 b 142 46 151 74 144 54 l 136 29 l 122 28 b 99 28 115 28 104 28 b 81 25 92 28 85 26 b 74 0 69 21 67 8 l 78 -4 l 149 -6 b 261 -6 242 -8 254 -8 b 265 21 272 -1 274 14 b 229 25 260 25 251 26 b 211 25 219 25 211 25 b 225 69 211 26 222 61 b 261 174 244 122 244 122 b 292 269 268 196 282 239 b 367 501 328 379 357 469 b 389 576 372 519 382 553 b 425 692 418 669 424 686 b 456 789 428 700 438 729 b 486 897 472 843 478 864 b 493 924 489 908 492 919 l 496 931 l 515 929 b 540 929 526 929 538 929 b 550 957 554 932 560 947 z "},":":{"ha":307,"x_min":0,"x_max":0,"o":"m 94 607 b 103 599 99 603 103 599 b 111 594 104 599 107 597 b 125 588 115 592 121 589 b 169 588 135 585 156 585 b 213 608 185 590 204 600 b 233 650 221 617 231 636 b 233 693 236 661 236 683 b 175 749 226 714 197 742 b 140 750 160 753 153 753 b 99 728 121 746 111 740 b 69 685 86 714 74 696 b 69 640 65 674 65 651 b 92 604 75 626 83 613 z m 143 144 b 119 142 129 144 126 144 b 74 101 100 133 82 118 b 67 76 69 94 68 90 b 82 14 65 46 69 29 b 164 -22 100 -8 136 -24 b 188 -17 172 -22 178 -21 b 224 18 206 -8 215 1 b 215 106 239 49 236 78 b 143 143 196 131 175 142 z "},";":{"ha":313,"x_min":0,"x_max":0,"o":"m 97 607 b 106 599 101 603 106 599 b 114 594 107 599 110 597 b 128 588 118 592 124 589 b 172 588 138 585 158 585 b 215 608 188 590 207 600 b 236 650 224 617 233 636 b 236 693 239 661 239 683 b 178 749 229 714 200 742 b 143 750 163 753 156 753 b 101 728 124 746 114 740 b 72 685 89 714 76 696 b 72 640 68 674 68 651 b 94 604 78 626 86 613 z m 239 50 b 214 103 236 74 231 86 b 132 125 192 125 163 133 b 88 97 114 121 101 113 b 67 40 72 81 64 58 b 85 -4 68 26 76 7 b 138 -29 94 -17 121 -29 b 151 -33 147 -29 151 -31 b 143 -57 151 -35 147 -46 b 140 -104 133 -83 132 -100 b 160 -107 143 -106 151 -107 b 186 -93 175 -106 175 -106 b 225 -25 199 -79 215 -50 b 236 53 235 0 239 31 z "},"?":{"ha":625,"x_min":0,"x_max":0,"o":"m 553 804 b 506 904 543 847 529 876 b 436 958 489 924 460 946 b 383 976 424 965 399 974 b 310 979 365 981 325 982 b 219 946 278 974 249 963 b 160 900 193 931 179 919 b 101 790 128 868 111 838 b 101 678 94 757 94 711 b 103 658 106 658 106 658 b 88 654 101 658 94 657 b 65 636 71 650 65 646 b 78 621 65 629 71 622 b 96 624 79 621 88 622 b 133 632 104 625 121 629 b 218 651 185 642 214 649 b 226 668 224 654 228 663 b 221 678 226 671 224 675 b 188 678 215 683 208 683 b 167 704 169 674 171 671 b 174 792 164 728 167 769 b 242 875 183 825 203 849 b 340 910 276 899 307 910 b 431 876 375 910 401 900 b 461 838 442 868 456 850 b 474 726 476 807 481 768 b 374 522 464 663 436 607 b 339 476 363 508 347 488 b 240 249 286 400 250 318 b 239 231 239 236 239 232 l 232 229 b 217 229 228 229 221 229 b 194 222 206 229 199 226 b 199 199 188 215 190 201 b 272 197 201 197 229 197 b 346 200 336 197 342 197 b 353 219 353 204 356 213 b 328 232 350 228 346 231 l 313 233 b 319 267 313 233 315 247 b 417 460 335 328 367 392 b 506 596 471 535 486 558 b 547 721 526 638 540 678 b 547 811 551 746 551 790 z m 308 147 b 274 149 293 151 286 151 b 232 126 254 144 244 139 b 203 83 219 113 207 94 b 203 39 199 72 199 50 b 225 3 208 25 217 11 b 233 -6 229 -1 233 -6 b 242 -10 235 -6 238 -7 b 256 -17 246 -12 251 -15 b 300 -17 265 -19 286 -19 b 343 4 315 -14 335 -4 b 364 46 351 13 361 32 b 364 89 367 57 367 79 b 306 144 357 110 328 138 z "},"A":{"ha":731,"x_min":0,"x_max":0,"o":"m 275 950 b 275 935 272 944 272 940 b 300 926 278 928 282 926 b 317 924 315 926 317 926 b 293 807 315 918 297 829 b 286 776 290 794 288 781 b 282 751 285 772 283 761 b 251 604 274 708 265 667 b 243 568 249 590 244 574 b 221 469 239 549 229 503 b 200 371 213 432 203 386 b 189 318 199 361 193 338 b 179 268 185 299 181 276 b 128 54 160 176 136 81 b 121 33 124 44 121 35 b 103 31 121 31 118 31 b 71 24 83 31 76 29 b 71 6 67 19 67 10 b 113 -1 76 -1 79 -1 b 185 -3 129 -1 163 -1 l 226 -4 l 232 0 b 239 11 235 3 238 7 b 238 24 240 17 240 18 b 211 35 233 32 228 35 l 197 35 l 199 40 b 201 53 199 43 200 49 b 210 86 203 57 207 72 b 218 126 213 100 217 118 b 242 225 226 163 235 196 b 264 324 254 283 260 307 b 269 356 265 332 268 347 b 278 397 271 364 275 383 b 286 432 281 411 285 426 l 289 442 l 443 443 l 446 432 b 474 301 456 388 469 325 b 489 226 475 296 482 263 b 510 121 496 190 506 143 b 528 25 531 25 531 26 b 506 25 526 25 517 25 b 481 25 494 25 483 25 b 474 -1 469 22 465 7 b 564 -8 481 -8 485 -8 b 653 0 644 -8 646 -8 b 647 28 660 8 657 22 b 622 29 643 31 639 31 l 603 28 l 600 38 b 593 69 599 43 596 57 b 583 117 590 82 586 103 b 558 233 571 176 564 208 b 486 561 539 335 517 435 b 465 649 478 593 469 629 b 446 728 460 669 450 711 b 440 756 444 736 442 749 b 418 846 433 788 428 811 b 401 911 407 889 401 910 b 417 911 401 911 408 911 b 436 914 429 911 432 911 b 429 946 449 922 444 942 b 296 947 422 947 315 949 b 274 938 281 946 276 944 z m 372 744 b 388 679 374 738 381 708 b 403 611 394 650 401 619 b 422 529 408 590 418 547 b 425 511 424 521 425 513 b 392 507 425 508 424 508 b 331 504 374 507 346 506 b 303 503 315 503 303 503 b 310 542 303 503 306 521 b 322 606 314 563 319 592 b 351 754 328 633 343 713 b 357 779 354 768 357 779 b 360 768 357 779 358 774 b 365 743 361 761 364 750 z "},"a":{"ha":731,"x_min":0,"x_max":0,"o":"m 275 950 b 275 935 272 944 272 940 b 300 926 278 928 282 926 b 317 924 315 926 317 926 b 293 807 315 918 297 829 b 286 776 290 794 288 781 b 282 751 285 772 283 761 b 251 604 274 708 265 667 b 243 568 249 590 244 574 b 221 469 239 549 229 503 b 200 371 213 432 203 386 b 189 318 199 361 193 338 b 179 268 185 299 181 276 b 128 54 160 176 136 81 b 121 33 124 44 121 35 b 103 31 121 31 118 31 b 71 24 83 31 76 29 b 71 6 67 19 67 10 b 113 -1 76 -1 79 -1 b 185 -3 129 -1 163 -1 l 226 -4 l 232 0 b 239 11 235 3 238 7 b 238 24 240 17 240 18 b 211 35 233 32 228 35 l 197 35 l 199 40 b 201 53 199 43 200 49 b 210 86 203 57 207 72 b 218 126 213 100 217 118 b 242 225 226 163 235 196 b 264 324 254 283 260 307 b 269 356 265 332 268 347 b 278 397 271 364 275 383 b 286 432 281 411 285 426 l 289 442 l 443 443 l 446 432 b 474 301 456 388 469 325 b 489 226 475 296 482 263 b 510 121 496 190 506 143 b 528 25 531 25 531 26 b 506 25 526 25 517 25 b 481 25 494 25 483 25 b 474 -1 469 22 465 7 b 564 -8 481 -8 485 -8 b 653 0 644 -8 646 -8 b 647 28 660 8 657 22 b 622 29 643 31 639 31 l 603 28 l 600 38 b 593 69 599 43 596 57 b 583 117 590 82 586 103 b 558 233 571 176 564 208 b 486 561 539 335 517 435 b 465 649 478 593 469 629 b 446 728 460 669 450 711 b 440 756 444 736 442 749 b 418 846 433 788 428 811 b 401 911 407 889 401 910 b 417 911 401 911 408 911 b 436 914 429 911 432 911 b 429 946 449 922 444 942 b 296 947 422 947 315 949 b 274 938 281 946 276 944 z m 372 744 b 388 679 374 738 381 708 b 403 611 394 650 401 619 b 422 529 408 590 418 547 b 425 511 424 521 425 513 b 392 507 425 508 424 508 b 331 504 374 507 346 506 b 303 503 315 503 303 503 b 310 542 303 503 306 521 b 322 606 314 563 319 592 b 351 754 328 633 343 713 b 357 779 354 768 357 779 b 360 768 357 779 358 774 b 365 743 361 761 364 750 z "},"À":{"ha":731,"x_min":0,"x_max":0,"o":"m 275 950 b 275 935 272 944 272 940 b 300 926 278 928 282 926 b 317 924 315 926 317 926 b 293 807 315 918 297 829 b 286 776 290 794 288 781 b 282 751 285 772 283 761 b 251 604 274 708 265 667 b 243 568 249 590 244 574 b 221 469 239 549 229 503 b 200 371 213 432 203 386 b 189 318 199 361 193 338 b 179 268 185 299 181 276 b 128 54 160 176 136 81 b 121 33 124 44 121 35 b 103 31 121 31 118 31 b 71 24 83 31 76 29 b 71 6 67 19 67 10 b 113 -1 76 -1 79 -1 b 185 -3 129 -1 163 -1 l 226 -4 l 232 0 b 239 11 235 3 238 7 b 238 24 240 17 240 18 b 211 35 233 32 228 35 l 197 35 l 199 40 b 201 53 199 43 200 49 b 210 86 203 57 207 72 b 218 126 213 100 217 118 b 242 225 226 163 235 196 b 264 324 254 283 260 307 b 269 356 265 332 268 347 b 278 397 271 364 275 383 b 286 432 281 411 285 426 l 289 442 l 443 443 l 446 432 b 474 301 456 388 469 325 b 489 226 475 296 482 263 b 510 121 496 190 506 143 b 528 25 531 25 531 26 b 506 25 526 25 517 25 b 481 25 494 25 483 25 b 474 -1 469 22 465 7 b 564 -8 481 -8 485 -8 b 653 0 644 -8 646 -8 b 647 28 660 8 657 22 b 622 29 643 31 639 31 l 603 28 l 600 38 b 593 69 599 43 596 57 b 583 117 590 82 586 103 b 558 233 571 176 564 208 b 486 561 539 335 517 435 b 465 649 478 593 469 629 b 446 728 460 669 450 711 b 440 756 444 736 442 749 b 418 846 433 788 428 811 b 401 911 407 889 401 910 b 417 911 401 911 408 911 b 436 914 429 911 432 911 b 429 946 449 922 444 942 b 296 947 422 947 315 949 b 274 938 281 946 276 944 z m 372 744 b 388 679 374 738 381 708 b 403 611 394 650 401 619 b 422 529 408 590 418 547 b 425 511 424 521 425 513 b 392 507 425 508 424 508 b 331 504 374 507 346 506 b 303 503 315 503 303 503 b 310 542 303 503 306 521 b 322 606 314 563 319 592 b 351 754 328 633 343 713 b 357 779 354 768 357 779 b 360 768 357 779 358 774 b 365 743 361 761 364 750 z "},"Á":{"ha":731,"x_min":0,"x_max":0,"o":"m 275 950 b 275 935 272 944 272 940 b 300 926 278 928 282 926 b 317 924 315 926 317 926 b 293 807 315 918 297 829 b 286 776 290 794 288 781 b 282 751 285 772 283 761 b 251 604 274 708 265 667 b 243 568 249 590 244 574 b 221 469 239 549 229 503 b 200 371 213 432 203 386 b 189 318 199 361 193 338 b 179 268 185 299 181 276 b 128 54 160 176 136 81 b 121 33 124 44 121 35 b 103 31 121 31 118 31 b 71 24 83 31 76 29 b 71 6 67 19 67 10 b 113 -1 76 -1 79 -1 b 185 -3 129 -1 163 -1 l 226 -4 l 232 0 b 239 11 235 3 238 7 b 238 24 240 17 240 18 b 211 35 233 32 228 35 l 197 35 l 199 40 b 201 53 199 43 200 49 b 210 86 203 57 207 72 b 218 126 213 100 217 118 b 242 225 226 163 235 196 b 264 324 254 283 260 307 b 269 356 265 332 268 347 b 278 397 271 364 275 383 b 286 432 281 411 285 426 l 289 442 l 443 443 l 446 432 b 474 301 456 388 469 325 b 489 226 475 296 482 263 b 510 121 496 190 506 143 b 528 25 531 25 531 26 b 506 25 526 25 517 25 b 481 25 494 25 483 25 b 474 -1 469 22 465 7 b 564 -8 481 -8 485 -8 b 653 0 644 -8 646 -8 b 647 28 660 8 657 22 b 622 29 643 31 639 31 l 603 28 l 600 38 b 593 69 599 43 596 57 b 583 117 590 82 586 103 b 558 233 571 176 564 208 b 486 561 539 335 517 435 b 465 649 478 593 469 629 b 446 728 460 669 450 711 b 440 756 444 736 442 749 b 418 846 433 788 428 811 b 401 911 407 889 401 910 b 417 911 401 911 408 911 b 436 914 429 911 432 911 b 429 946 449 922 444 942 b 296 947 422 947 315 949 b 274 938 281 946 276 944 z m 372 744 b 388 679 374 738 381 708 b 403 611 394 650 401 619 b 422 529 408 590 418 547 b 425 511 424 521 425 513 b 392 507 425 508 424 508 b 331 504 374 507 346 506 b 303 503 315 503 303 503 b 310 542 303 503 306 521 b 322 606 314 563 319 592 b 351 754 328 633 343 713 b 357 779 354 768 357 779 b 360 768 357 779 358 774 b 365 743 361 761 364 750 z "},"Â":{"ha":731,"x_min":0,"x_max":0,"o":"m 275 950 b 275 935 272 944 272 940 b 300 926 278 928 282 926 b 317 924 315 926 317 926 b 293 807 315 918 297 829 b 286 776 290 794 288 781 b 282 751 285 772 283 761 b 251 604 274 708 265 667 b 243 568 249 590 244 574 b 221 469 239 549 229 503 b 200 371 213 432 203 386 b 189 318 199 361 193 338 b 179 268 185 299 181 276 b 128 54 160 176 136 81 b 121 33 124 44 121 35 b 103 31 121 31 118 31 b 71 24 83 31 76 29 b 71 6 67 19 67 10 b 113 -1 76 -1 79 -1 b 185 -3 129 -1 163 -1 l 226 -4 l 232 0 b 239 11 235 3 238 7 b 238 24 240 17 240 18 b 211 35 233 32 228 35 l 197 35 l 199 40 b 201 53 199 43 200 49 b 210 86 203 57 207 72 b 218 126 213 100 217 118 b 242 225 226 163 235 196 b 264 324 254 283 260 307 b 269 356 265 332 268 347 b 278 397 271 364 275 383 b 286 432 281 411 285 426 l 289 442 l 443 443 l 446 432 b 474 301 456 388 469 325 b 489 226 475 296 482 263 b 510 121 496 190 506 143 b 528 25 531 25 531 26 b 506 25 526 25 517 25 b 481 25 494 25 483 25 b 474 -1 469 22 465 7 b 564 -8 481 -8 485 -8 b 653 0 644 -8 646 -8 b 647 28 660 8 657 22 b 622 29 643 31 639 31 l 603 28 l 600 38 b 593 69 599 43 596 57 b 583 117 590 82 586 103 b 558 233 571 176 564 208 b 486 561 539 335 517 435 b 465 649 478 593 469 629 b 446 728 460 669 450 711 b 440 756 444 736 442 749 b 418 846 433 788 428 811 b 401 911 407 889 401 910 b 417 911 401 911 408 911 b 436 914 429 911 432 911 b 429 946 449 922 444 942 b 296 947 422 947 315 949 b 274 938 281 946 276 944 z m 372 744 b 388 679 374 738 381 708 b 403 611 394 650 401 619 b 422 529 408 590 418 547 b 425 511 424 521 425 513 b 392 507 425 508 424 508 b 331 504 374 507 346 506 b 303 503 315 503 303 503 b 310 542 303 503 306 521 b 322 606 314 563 319 592 b 351 754 328 633 343 713 b 357 779 354 768 357 779 b 360 768 357 779 358 774 b 365 743 361 761 364 750 z "},"Ã":{"ha":731,"x_min":0,"x_max":0,"o":"m 275 950 b 275 935 272 944 272 940 b 300 926 278 928 282 926 b 317 924 315 926 317 926 b 293 807 315 918 297 829 b 286 776 290 794 288 781 b 282 751 285 772 283 761 b 251 604 274 708 265 667 b 243 568 249 590 244 574 b 221 469 239 549 229 503 b 200 371 213 432 203 386 b 189 318 199 361 193 338 b 179 268 185 299 181 276 b 128 54 160 176 136 81 b 121 33 124 44 121 35 b 103 31 121 31 118 31 b 71 24 83 31 76 29 b 71 6 67 19 67 10 b 113 -1 76 -1 79 -1 b 185 -3 129 -1 163 -1 l 226 -4 l 232 0 b 239 11 235 3 238 7 b 238 24 240 17 240 18 b 211 35 233 32 228 35 l 197 35 l 199 40 b 201 53 199 43 200 49 b 210 86 203 57 207 72 b 218 126 213 100 217 118 b 242 225 226 163 235 196 b 264 324 254 283 260 307 b 269 356 265 332 268 347 b 278 397 271 364 275 383 b 286 432 281 411 285 426 l 289 442 l 443 443 l 446 432 b 474 301 456 388 469 325 b 489 226 475 296 482 263 b 510 121 496 190 506 143 b 528 25 531 25 531 26 b 506 25 526 25 517 25 b 481 25 494 25 483 25 b 474 -1 469 22 465 7 b 564 -8 481 -8 485 -8 b 653 0 644 -8 646 -8 b 647 28 660 8 657 22 b 622 29 643 31 639 31 l 603 28 l 600 38 b 593 69 599 43 596 57 b 583 117 590 82 586 103 b 558 233 571 176 564 208 b 486 561 539 335 517 435 b 465 649 478 593 469 629 b 446 728 460 669 450 711 b 440 756 444 736 442 749 b 418 846 433 788 428 811 b 401 911 407 889 401 910 b 417 911 401 911 408 911 b 436 914 429 911 432 911 b 429 946 449 922 444 942 b 296 947 422 947 315 949 b 274 938 281 946 276 944 z m 372 744 b 388 679 374 738 381 708 b 403 611 394 650 401 619 b 422 529 408 590 418 547 b 425 511 424 521 425 513 b 392 507 425 508 424 508 b 331 504 374 507 346 506 b 303 503 315 503 303 503 b 310 542 303 503 306 521 b 322 606 314 563 319 592 b 351 754 328 633 343 713 b 357 779 354 768 357 779 b 360 768 357 779 358 774 b 365 743 361 761 364 750 z "},"Ä":{"ha":731,"x_min":0,"x_max":0,"o":"m 275 950 b 275 935 272 944 272 940 b 300 926 278 928 282 926 b 317 924 315 926 317 926 b 293 807 315 918 297 829 b 286 776 290 794 288 781 b 282 751 285 772 283 761 b 251 604 274 708 265 667 b 243 568 249 590 244 574 b 221 469 239 549 229 503 b 200 371 213 432 203 386 b 189 318 199 361 193 338 b 179 268 185 299 181 276 b 128 54 160 176 136 81 b 121 33 124 44 121 35 b 103 31 121 31 118 31 b 71 24 83 31 76 29 b 71 6 67 19 67 10 b 113 -1 76 -1 79 -1 b 185 -3 129 -1 163 -1 l 226 -4 l 232 0 b 239 11 235 3 238 7 b 238 24 240 17 240 18 b 211 35 233 32 228 35 l 197 35 l 199 40 b 201 53 199 43 200 49 b 210 86 203 57 207 72 b 218 126 213 100 217 118 b 242 225 226 163 235 196 b 264 324 254 283 260 307 b 269 356 265 332 268 347 b 278 397 271 364 275 383 b 286 432 281 411 285 426 l 289 442 l 443 443 l 446 432 b 474 301 456 388 469 325 b 489 226 475 296 482 263 b 510 121 496 190 506 143 b 528 25 531 25 531 26 b 506 25 526 25 517 25 b 481 25 494 25 483 25 b 474 -1 469 22 465 7 b 564 -8 481 -8 485 -8 b 653 0 644 -8 646 -8 b 647 28 660 8 657 22 b 622 29 643 31 639 31 l 603 28 l 600 38 b 593 69 599 43 596 57 b 583 117 590 82 586 103 b 558 233 571 176 564 208 b 486 561 539 335 517 435 b 465 649 478 593 469 629 b 446 728 460 669 450 711 b 440 756 444 736 442 749 b 418 846 433 788 428 811 b 401 911 407 889 401 910 b 417 911 401 911 408 911 b 436 914 429 911 432 911 b 429 946 449 922 444 942 b 296 947 422 947 315 949 b 274 938 281 946 276 944 z m 372 744 b 388 679 374 738 381 708 b 403 611 394 650 401 619 b 422 529 408 590 418 547 b 425 511 424 521 425 513 b 392 507 425 508 424 508 b 331 504 374 507 346 506 b 303 503 315 503 303 503 b 310 542 303 503 306 521 b 322 606 314 563 319 592 b 351 754 328 633 343 713 b 357 779 354 768 357 779 b 360 768 357 779 358 774 b 365 743 361 761 364 750 z "},"Å":{"ha":731,"x_min":0,"x_max":0,"o":"m 275 950 b 275 935 272 944 272 940 b 300 926 278 928 282 926 b 317 924 315 926 317 926 b 293 807 315 918 297 829 b 286 776 290 794 288 781 b 282 751 285 772 283 761 b 251 604 274 708 265 667 b 243 568 249 590 244 574 b 221 469 239 549 229 503 b 200 371 213 432 203 386 b 189 318 199 361 193 338 b 179 268 185 299 181 276 b 128 54 160 176 136 81 b 121 33 124 44 121 35 b 103 31 121 31 118 31 b 71 24 83 31 76 29 b 71 6 67 19 67 10 b 113 -1 76 -1 79 -1 b 185 -3 129 -1 163 -1 l 226 -4 l 232 0 b 239 11 235 3 238 7 b 238 24 240 17 240 18 b 211 35 233 32 228 35 l 197 35 l 199 40 b 201 53 199 43 200 49 b 210 86 203 57 207 72 b 218 126 213 100 217 118 b 242 225 226 163 235 196 b 264 324 254 283 260 307 b 269 356 265 332 268 347 b 278 397 271 364 275 383 b 286 432 281 411 285 426 l 289 442 l 443 443 l 446 432 b 474 301 456 388 469 325 b 489 226 475 296 482 263 b 510 121 496 190 506 143 b 528 25 531 25 531 26 b 506 25 526 25 517 25 b 481 25 494 25 483 25 b 474 -1 469 22 465 7 b 564 -8 481 -8 485 -8 b 653 0 644 -8 646 -8 b 647 28 660 8 657 22 b 622 29 643 31 639 31 l 603 28 l 600 38 b 593 69 599 43 596 57 b 583 117 590 82 586 103 b 558 233 571 176 564 208 b 486 561 539 335 517 435 b 465 649 478 593 469 629 b 446 728 460 669 450 711 b 440 756 444 736 442 749 b 418 846 433 788 428 811 b 401 911 407 889 401 910 b 417 911 401 911 408 911 b 436 914 429 911 432 911 b 429 946 449 922 444 942 b 296 947 422 947 315 949 b 274 938 281 946 276 944 z m 372 744 b 388 679 374 738 381 708 b 403 611 394 650 401 619 b 422 529 408 590 418 547 b 425 511 424 521 425 513 b 392 507 425 508 424 508 b 331 504 374 507 346 506 b 303 503 315 503 303 503 b 310 542 303 503 306 521 b 322 606 314 563 319 592 b 351 754 328 633 343 713 b 357 779 354 768 357 779 b 360 768 357 779 358 774 b 365 743 361 761 364 750 z "},"à":{"ha":731,"x_min":0,"x_max":0,"o":"m 275 950 b 275 935 272 944 272 940 b 300 926 278 928 282 926 b 317 924 315 926 317 926 b 293 807 315 918 297 829 b 286 776 290 794 288 781 b 282 751 285 772 283 761 b 251 604 274 708 265 667 b 243 568 249 590 244 574 b 221 469 239 549 229 503 b 200 371 213 432 203 386 b 189 318 199 361 193 338 b 179 268 185 299 181 276 b 128 54 160 176 136 81 b 121 33 124 44 121 35 b 103 31 121 31 118 31 b 71 24 83 31 76 29 b 71 6 67 19 67 10 b 113 -1 76 -1 79 -1 b 185 -3 129 -1 163 -1 l 226 -4 l 232 0 b 239 11 235 3 238 7 b 238 24 240 17 240 18 b 211 35 233 32 228 35 l 197 35 l 199 40 b 201 53 199 43 200 49 b 210 86 203 57 207 72 b 218 126 213 100 217 118 b 242 225 226 163 235 196 b 264 324 254 283 260 307 b 269 356 265 332 268 347 b 278 397 271 364 275 383 b 286 432 281 411 285 426 l 289 442 l 443 443 l 446 432 b 474 301 456 388 469 325 b 489 226 475 296 482 263 b 510 121 496 190 506 143 b 528 25 531 25 531 26 b 506 25 526 25 517 25 b 481 25 494 25 483 25 b 474 -1 469 22 465 7 b 564 -8 481 -8 485 -8 b 653 0 644 -8 646 -8 b 647 28 660 8 657 22 b 622 29 643 31 639 31 l 603 28 l 600 38 b 593 69 599 43 596 57 b 583 117 590 82 586 103 b 558 233 571 176 564 208 b 486 561 539 335 517 435 b 465 649 478 593 469 629 b 446 728 460 669 450 711 b 440 756 444 736 442 749 b 418 846 433 788 428 811 b 401 911 407 889 401 910 b 417 911 401 911 408 911 b 436 914 429 911 432 911 b 429 946 449 922 444 942 b 296 947 422 947 315 949 b 274 938 281 946 276 944 z m 372 744 b 388 679 374 738 381 708 b 403 611 394 650 401 619 b 422 529 408 590 418 547 b 425 511 424 521 425 513 b 392 507 425 508 424 508 b 331 504 374 507 346 506 b 303 503 315 503 303 503 b 310 542 303 503 306 521 b 322 606 314 563 319 592 b 351 754 328 633 343 713 b 357 779 354 768 357 779 b 360 768 357 779 358 774 b 365 743 361 761 364 750 z "},"á":{"ha":731,"x_min":0,"x_max":0,"o":"m 275 950 b 275 935 272 944 272 940 b 300 926 278 928 282 926 b 317 924 315 926 317 926 b 293 807 315 918 297 829 b 286 776 290 794 288 781 b 282 751 285 772 283 761 b 251 604 274 708 265 667 b 243 568 249 590 244 574 b 221 469 239 549 229 503 b 200 371 213 432 203 386 b 189 318 199 361 193 338 b 179 268 185 299 181 276 b 128 54 160 176 136 81 b 121 33 124 44 121 35 b 103 31 121 31 118 31 b 71 24 83 31 76 29 b 71 6 67 19 67 10 b 113 -1 76 -1 79 -1 b 185 -3 129 -1 163 -1 l 226 -4 l 232 0 b 239 11 235 3 238 7 b 238 24 240 17 240 18 b 211 35 233 32 228 35 l 197 35 l 199 40 b 201 53 199 43 200 49 b 210 86 203 57 207 72 b 218 126 213 100 217 118 b 242 225 226 163 235 196 b 264 324 254 283 260 307 b 269 356 265 332 268 347 b 278 397 271 364 275 383 b 286 432 281 411 285 426 l 289 442 l 443 443 l 446 432 b 474 301 456 388 469 325 b 489 226 475 296 482 263 b 510 121 496 190 506 143 b 528 25 531 25 531 26 b 506 25 526 25 517 25 b 481 25 494 25 483 25 b 474 -1 469 22 465 7 b 564 -8 481 -8 485 -8 b 653 0 644 -8 646 -8 b 647 28 660 8 657 22 b 622 29 643 31 639 31 l 603 28 l 600 38 b 593 69 599 43 596 57 b 583 117 590 82 586 103 b 558 233 571 176 564 208 b 486 561 539 335 517 435 b 465 649 478 593 469 629 b 446 728 460 669 450 711 b 440 756 444 736 442 749 b 418 846 433 788 428 811 b 401 911 407 889 401 910 b 417 911 401 911 408 911 b 436 914 429 911 432 911 b 429 946 449 922 444 942 b 296 947 422 947 315 949 b 274 938 281 946 276 944 z m 372 744 b 388 679 374 738 381 708 b 403 611 394 650 401 619 b 422 529 408 590 418 547 b 425 511 424 521 425 513 b 392 507 425 508 424 508 b 331 504 374 507 346 506 b 303 503 315 503 303 503 b 310 542 303 503 306 521 b 322 606 314 563 319 592 b 351 754 328 633 343 713 b 357 779 354 768 357 779 b 360 768 357 779 358 774 b 365 743 361 761 364 750 z "},"â":{"ha":731,"x_min":0,"x_max":0,"o":"m 275 950 b 275 935 272 944 272 940 b 300 926 278 928 282 926 b 317 924 315 926 317 926 b 293 807 315 918 297 829 b 286 776 290 794 288 781 b 282 751 285 772 283 761 b 251 604 274 708 265 667 b 243 568 249 590 244 574 b 221 469 239 549 229 503 b 200 371 213 432 203 386 b 189 318 199 361 193 338 b 179 268 185 299 181 276 b 128 54 160 176 136 81 b 121 33 124 44 121 35 b 103 31 121 31 118 31 b 71 24 83 31 76 29 b 71 6 67 19 67 10 b 113 -1 76 -1 79 -1 b 185 -3 129 -1 163 -1 l 226 -4 l 232 0 b 239 11 235 3 238 7 b 238 24 240 17 240 18 b 211 35 233 32 228 35 l 197 35 l 199 40 b 201 53 199 43 200 49 b 210 86 203 57 207 72 b 218 126 213 100 217 118 b 242 225 226 163 235 196 b 264 324 254 283 260 307 b 269 356 265 332 268 347 b 278 397 271 364 275 383 b 286 432 281 411 285 426 l 289 442 l 443 443 l 446 432 b 474 301 456 388 469 325 b 489 226 475 296 482 263 b 510 121 496 190 506 143 b 528 25 531 25 531 26 b 506 25 526 25 517 25 b 481 25 494 25 483 25 b 474 -1 469 22 465 7 b 564 -8 481 -8 485 -8 b 653 0 644 -8 646 -8 b 647 28 660 8 657 22 b 622 29 643 31 639 31 l 603 28 l 600 38 b 593 69 599 43 596 57 b 583 117 590 82 586 103 b 558 233 571 176 564 208 b 486 561 539 335 517 435 b 465 649 478 593 469 629 b 446 728 460 669 450 711 b 440 756 444 736 442 749 b 418 846 433 788 428 811 b 401 911 407 889 401 910 b 417 911 401 911 408 911 b 436 914 429 911 432 911 b 429 946 449 922 444 942 b 296 947 422 947 315 949 b 274 938 281 946 276 944 z m 372 744 b 388 679 374 738 381 708 b 403 611 394 650 401 619 b 422 529 408 590 418 547 b 425 511 424 521 425 513 b 392 507 425 508 424 508 b 331 504 374 507 346 506 b 303 503 315 503 303 503 b 310 542 303 503 306 521 b 322 606 314 563 319 592 b 351 754 328 633 343 713 b 357 779 354 768 357 779 b 360 768 357 779 358 774 b 365 743 361 761 364 750 z "},"ã":{"ha":731,"x_min":0,"x_max":0,"o":"m 275 950 b 275 935 272 944 272 940 b 300 926 278 928 282 926 b 317 924 315 926 317 926 b 293 807 315 918 297 829 b 286 776 290 794 288 781 b 282 751 285 772 283 761 b 251 604 274 708 265 667 b 243 568 249 590 244 574 b 221 469 239 549 229 503 b 200 371 213 432 203 386 b 189 318 199 361 193 338 b 179 268 185 299 181 276 b 128 54 160 176 136 81 b 121 33 124 44 121 35 b 103 31 121 31 118 31 b 71 24 83 31 76 29 b 71 6 67 19 67 10 b 113 -1 76 -1 79 -1 b 185 -3 129 -1 163 -1 l 226 -4 l 232 0 b 239 11 235 3 238 7 b 238 24 240 17 240 18 b 211 35 233 32 228 35 l 197 35 l 199 40 b 201 53 199 43 200 49 b 210 86 203 57 207 72 b 218 126 213 100 217 118 b 242 225 226 163 235 196 b 264 324 254 283 260 307 b 269 356 265 332 268 347 b 278 397 271 364 275 383 b 286 432 281 411 285 426 l 289 442 l 443 443 l 446 432 b 474 301 456 388 469 325 b 489 226 475 296 482 263 b 510 121 496 190 506 143 b 528 25 531 25 531 26 b 506 25 526 25 517 25 b 481 25 494 25 483 25 b 474 -1 469 22 465 7 b 564 -8 481 -8 485 -8 b 653 0 644 -8 646 -8 b 647 28 660 8 657 22 b 622 29 643 31 639 31 l 603 28 l 600 38 b 593 69 599 43 596 57 b 583 117 590 82 586 103 b 558 233 571 176 564 208 b 486 561 539 335 517 435 b 465 649 478 593 469 629 b 446 728 460 669 450 711 b 440 756 444 736 442 749 b 418 846 433 788 428 811 b 401 911 407 889 401 910 b 417 911 401 911 408 911 b 436 914 429 911 432 911 b 429 946 449 922 444 942 b 296 947 422 947 315 949 b 274 938 281 946 276 944 z m 372 744 b 388 679 374 738 381 708 b 403 611 394 650 401 619 b 422 529 408 590 418 547 b 425 511 424 521 425 513 b 392 507 425 508 424 508 b 331 504 374 507 346 506 b 303 503 315 503 303 503 b 310 542 303 503 306 521 b 322 606 314 563 319 592 b 351 754 328 633 343 713 b 357 779 354 768 357 779 b 360 768 357 779 358 774 b 365 743 361 761 364 750 z "},"ä":{"ha":731,"x_min":0,"x_max":0,"o":"m 275 950 b 275 935 272 944 272 940 b 300 926 278 928 282 926 b 317 924 315 926 317 926 b 293 807 315 918 297 829 b 286 776 290 794 288 781 b 282 751 285 772 283 761 b 251 604 274 708 265 667 b 243 568 249 590 244 574 b 221 469 239 549 229 503 b 200 371 213 432 203 386 b 189 318 199 361 193 338 b 179 268 185 299 181 276 b 128 54 160 176 136 81 b 121 33 124 44 121 35 b 103 31 121 31 118 31 b 71 24 83 31 76 29 b 71 6 67 19 67 10 b 113 -1 76 -1 79 -1 b 185 -3 129 -1 163 -1 l 226 -4 l 232 0 b 239 11 235 3 238 7 b 238 24 240 17 240 18 b 211 35 233 32 228 35 l 197 35 l 199 40 b 201 53 199 43 200 49 b 210 86 203 57 207 72 b 218 126 213 100 217 118 b 242 225 226 163 235 196 b 264 324 254 283 260 307 b 269 356 265 332 268 347 b 278 397 271 364 275 383 b 286 432 281 411 285 426 l 289 442 l 443 443 l 446 432 b 474 301 456 388 469 325 b 489 226 475 296 482 263 b 510 121 496 190 506 143 b 528 25 531 25 531 26 b 506 25 526 25 517 25 b 481 25 494 25 483 25 b 474 -1 469 22 465 7 b 564 -8 481 -8 485 -8 b 653 0 644 -8 646 -8 b 647 28 660 8 657 22 b 622 29 643 31 639 31 l 603 28 l 600 38 b 593 69 599 43 596 57 b 583 117 590 82 586 103 b 558 233 571 176 564 208 b 486 561 539 335 517 435 b 465 649 478 593 469 629 b 446 728 460 669 450 711 b 440 756 444 736 442 749 b 418 846 433 788 428 811 b 401 911 407 889 401 910 b 417 911 401 911 408 911 b 436 914 429 911 432 911 b 429 946 449 922 444 942 b 296 947 422 947 315 949 b 274 938 281 946 276 944 z m 372 744 b 388 679 374 738 381 708 b 403 611 394 650 401 619 b 422 529 408 590 418 547 b 425 511 424 521 425 513 b 392 507 425 508 424 508 b 331 504 374 507 346 506 b 303 503 315 503 303 503 b 310 542 303 503 306 521 b 322 606 314 563 319 592 b 351 754 328 633 343 713 b 357 779 354 768 357 779 b 360 768 357 779 358 774 b 365 743 361 761 364 750 z "},"å":{"ha":731,"x_min":0,"x_max":0,"o":"m 275 950 b 275 935 272 944 272 940 b 300 926 278 928 282 926 b 317 924 315 926 317 926 b 293 807 315 918 297 829 b 286 776 290 794 288 781 b 282 751 285 772 283 761 b 251 604 274 708 265 667 b 243 568 249 590 244 574 b 221 469 239 549 229 503 b 200 371 213 432 203 386 b 189 318 199 361 193 338 b 179 268 185 299 181 276 b 128 54 160 176 136 81 b 121 33 124 44 121 35 b 103 31 121 31 118 31 b 71 24 83 31 76 29 b 71 6 67 19 67 10 b 113 -1 76 -1 79 -1 b 185 -3 129 -1 163 -1 l 226 -4 l 232 0 b 239 11 235 3 238 7 b 238 24 240 17 240 18 b 211 35 233 32 228 35 l 197 35 l 199 40 b 201 53 199 43 200 49 b 210 86 203 57 207 72 b 218 126 213 100 217 118 b 242 225 226 163 235 196 b 264 324 254 283 260 307 b 269 356 265 332 268 347 b 278 397 271 364 275 383 b 286 432 281 411 285 426 l 289 442 l 443 443 l 446 432 b 474 301 456 388 469 325 b 489 226 475 296 482 263 b 510 121 496 190 506 143 b 528 25 531 25 531 26 b 506 25 526 25 517 25 b 481 25 494 25 483 25 b 474 -1 469 22 465 7 b 564 -8 481 -8 485 -8 b 653 0 644 -8 646 -8 b 647 28 660 8 657 22 b 622 29 643 31 639 31 l 603 28 l 600 38 b 593 69 599 43 596 57 b 583 117 590 82 586 103 b 558 233 571 176 564 208 b 486 561 539 335 517 435 b 465 649 478 593 469 629 b 446 728 460 669 450 711 b 440 756 444 736 442 749 b 418 846 433 788 428 811 b 401 911 407 889 401 910 b 417 911 401 911 408 911 b 436 914 429 911 432 911 b 429 946 449 922 444 942 b 296 947 422 947 315 949 b 274 938 281 946 276 944 z m 372 744 b 388 679 374 738 381 708 b 403 611 394 650 401 619 b 422 529 408 590 418 547 b 425 511 424 521 425 513 b 392 507 425 508 424 508 b 331 504 374 507 346 506 b 303 503 315 503 303 503 b 310 542 303 503 306 521 b 322 606 314 563 319 592 b 351 754 328 633 343 713 b 357 779 354 768 357 779 b 360 768 357 779 358 774 b 365 743 361 761 364 750 z "},"B":{"ha":629,"x_min":0,"x_max":0,"o":"m 111 967 b 92 963 103 965 94 964 b 83 936 79 958 75 944 b 96 932 88 932 89 932 b 114 932 100 932 108 932 b 125 929 124 933 124 933 b 124 826 126 925 126 893 b 121 85 122 792 121 324 l 121 26 l 99 25 b 68 14 75 24 71 22 b 71 -3 65 7 67 1 b 93 -7 74 -6 76 -6 b 233 -7 124 -8 215 -8 b 399 42 297 -1 349 14 b 532 172 461 76 507 122 b 554 268 549 206 554 229 b 551 311 554 290 554 299 b 499 419 543 353 526 386 b 386 506 471 454 433 483 l 369 514 l 379 519 b 458 597 410 538 440 568 b 488 707 476 628 488 669 b 439 835 488 753 474 790 b 286 938 404 878 344 918 b 200 956 268 943 229 951 b 126 958 186 958 136 960 b 107 956 124 958 115 957 z m 353 815 b 393 769 369 801 379 790 b 410 667 415 736 419 707 b 278 554 396 610 350 571 b 214 547 260 550 243 549 l 189 546 l 190 672 b 190 842 190 742 190 818 l 190 885 l 194 883 b 222 878 197 883 210 881 b 351 815 279 864 314 847 z m 392 417 b 460 344 419 397 444 371 b 475 221 482 307 488 260 b 450 172 471 207 460 186 b 289 72 417 129 350 88 b 201 61 263 65 226 61 l 189 61 l 189 267 b 192 475 189 381 190 474 b 247 472 193 478 221 476 b 392 418 294 465 356 443 z "},"b":{"ha":629,"x_min":0,"x_max":0,"o":"m 111 967 b 92 963 103 965 94 964 b 83 936 79 958 75 944 b 96 932 88 932 89 932 b 114 932 100 932 108 932 b 125 929 124 933 124 933 b 124 826 126 925 126 893 b 121 85 122 792 121 324 l 121 26 l 99 25 b 68 14 75 24 71 22 b 71 -3 65 7 67 1 b 93 -7 74 -6 76 -6 b 233 -7 124 -8 215 -8 b 399 42 297 -1 349 14 b 532 172 461 76 507 122 b 554 268 549 206 554 229 b 551 311 554 290 554 299 b 499 419 543 353 526 386 b 386 506 471 454 433 483 l 369 514 l 379 519 b 458 597 410 538 440 568 b 488 707 476 628 488 669 b 439 835 488 753 474 790 b 286 938 404 878 344 918 b 200 956 268 943 229 951 b 126 958 186 958 136 960 b 107 956 124 958 115 957 z m 353 815 b 393 769 369 801 379 790 b 410 667 415 736 419 707 b 278 554 396 610 350 571 b 214 547 260 550 243 549 l 189 546 l 190 672 b 190 842 190 742 190 818 l 190 885 l 194 883 b 222 878 197 883 210 881 b 351 815 279 864 314 847 z m 392 417 b 460 344 419 397 444 371 b 475 221 482 307 488 260 b 450 172 471 207 460 186 b 289 72 417 129 350 88 b 201 61 263 65 226 61 l 189 61 l 189 267 b 192 475 189 381 190 474 b 247 472 193 478 221 476 b 392 418 294 465 356 443 z "},"C":{"ha":576,"x_min":0,"x_max":0,"o":"m 124 869 b 92 769 110 839 100 810 b 69 553 76 704 74 675 b 72 331 68 492 69 364 b 99 142 78 261 89 181 b 172 15 113 83 142 33 b 221 -4 183 8 208 -1 b 333 0 253 -11 297 -10 b 400 43 353 6 381 24 b 456 135 419 63 442 100 b 481 349 479 196 490 293 l 479 354 l 489 354 b 503 358 497 354 499 354 b 497 385 511 367 508 381 b 422 382 492 388 494 388 b 361 369 372 378 367 376 b 363 350 356 364 357 356 b 404 349 367 346 371 346 b 410 310 410 349 410 346 b 347 92 410 217 386 133 b 310 67 339 82 322 71 b 285 61 304 65 293 63 b 199 90 249 56 217 67 b 153 238 176 118 165 153 b 140 483 142 319 139 364 b 157 736 142 629 144 674 b 199 863 167 789 183 839 b 226 892 204 872 219 888 b 318 892 251 907 293 907 b 364 839 335 882 353 861 b 381 742 374 819 381 779 b 365 717 381 715 382 717 b 344 708 353 717 349 715 b 354 688 340 700 344 692 b 382 686 358 686 364 686 b 438 688 394 686 419 688 b 483 693 472 689 476 689 b 479 721 493 700 490 717 b 450 719 475 722 458 722 l 446 718 l 447 742 b 443 824 449 769 446 807 b 390 925 436 858 415 899 b 321 968 372 944 346 961 b 249 975 296 975 269 978 b 119 872 190 967 146 932 z "},"c":{"ha":576,"x_min":0,"x_max":0,"o":"m 124 869 b 92 769 110 839 100 810 b 69 553 76 704 74 675 b 72 331 68 492 69 364 b 99 142 78 261 89 181 b 172 15 113 83 142 33 b 221 -4 183 8 208 -1 b 333 0 253 -11 297 -10 b 400 43 353 6 381 24 b 456 135 419 63 442 100 b 481 349 479 196 490 293 l 479 354 l 489 354 b 503 358 497 354 499 354 b 497 385 511 367 508 381 b 422 382 492 388 494 388 b 361 369 372 378 367 376 b 363 350 356 364 357 356 b 404 349 367 346 371 346 b 410 310 410 349 410 346 b 347 92 410 217 386 133 b 310 67 339 82 322 71 b 285 61 304 65 293 63 b 199 90 249 56 217 67 b 153 238 176 118 165 153 b 140 483 142 319 139 364 b 157 736 142 629 144 674 b 199 863 167 789 183 839 b 226 892 204 872 219 888 b 318 892 251 907 293 907 b 364 839 335 882 353 861 b 381 742 374 819 381 779 b 365 717 381 715 382 717 b 344 708 353 717 349 715 b 354 688 340 700 344 692 b 382 686 358 686 364 686 b 438 688 394 686 419 688 b 483 693 472 689 476 689 b 479 721 493 700 490 717 b 450 719 475 722 458 722 l 446 718 l 447 742 b 443 824 449 769 446 807 b 390 925 436 858 415 899 b 321 968 372 944 346 961 b 249 975 296 975 269 978 b 119 872 190 967 146 932 z "},"Ç":{"ha":576,"x_min":0,"x_max":0,"o":"m 124 869 b 92 769 110 839 100 810 b 69 553 76 704 74 675 b 72 331 68 492 69 364 b 99 142 78 261 89 181 b 172 15 113 83 142 33 b 221 -4 183 8 208 -1 b 333 0 253 -11 297 -10 b 400 43 353 6 381 24 b 456 135 419 63 442 100 b 481 349 479 196 490 293 l 479 354 l 489 354 b 503 358 497 354 499 354 b 497 385 511 367 508 381 b 422 382 492 388 494 388 b 361 369 372 378 367 376 b 363 350 356 364 357 356 b 404 349 367 346 371 346 b 410 310 410 349 410 346 b 347 92 410 217 386 133 b 310 67 339 82 322 71 b 285 61 304 65 293 63 b 199 90 249 56 217 67 b 153 238 176 118 165 153 b 140 483 142 319 139 364 b 157 736 142 629 144 674 b 199 863 167 789 183 839 b 226 892 204 872 219 888 b 318 892 251 907 293 907 b 364 839 335 882 353 861 b 381 742 374 819 381 779 b 365 717 381 715 382 717 b 344 708 353 717 349 715 b 354 688 340 700 344 692 b 382 686 358 686 364 686 b 438 688 394 686 419 688 b 483 693 472 689 476 689 b 479 721 493 700 490 717 b 450 719 475 722 458 722 l 446 718 l 447 742 b 443 824 449 769 446 807 b 390 925 436 858 415 899 b 321 968 372 944 346 961 b 249 975 296 975 269 978 b 119 872 190 967 146 932 z "},"ç":{"ha":576,"x_min":0,"x_max":0,"o":"m 124 869 b 92 769 110 839 100 810 b 69 553 76 704 74 675 b 72 331 68 492 69 364 b 99 142 78 261 89 181 b 172 15 113 83 142 33 b 221 -4 183 8 208 -1 b 333 0 253 -11 297 -10 b 400 43 353 6 381 24 b 456 135 419 63 442 100 b 481 349 479 196 490 293 l 479 354 l 489 354 b 503 358 497 354 499 354 b 497 385 511 367 508 381 b 422 382 492 388 494 388 b 361 369 372 378 367 376 b 363 350 356 364 357 356 b 404 349 367 346 371 346 b 410 310 410 349 410 346 b 347 92 410 217 386 133 b 310 67 339 82 322 71 b 285 61 304 65 293 63 b 199 90 249 56 217 67 b 153 238 176 118 165 153 b 140 483 142 319 139 364 b 157 736 142 629 144 674 b 199 863 167 789 183 839 b 226 892 204 872 219 888 b 318 892 251 907 293 907 b 364 839 335 882 353 861 b 381 742 374 819 381 779 b 365 717 381 715 382 717 b 344 708 353 717 349 715 b 354 688 340 700 344 692 b 382 686 358 686 364 686 b 438 688 394 686 419 688 b 483 693 472 689 476 689 b 479 721 493 700 490 717 b 450 719 475 722 458 722 l 446 718 l 447 742 b 443 824 449 769 446 807 b 390 925 436 858 415 899 b 321 968 372 944 346 961 b 249 975 296 975 269 978 b 119 872 190 967 146 932 z "},"D":{"ha":574,"x_min":0,"x_max":0,"o":"m 69 953 b 75 943 69 947 71 946 b 100 940 79 940 81 940 l 119 940 l 118 864 b 118 244 117 781 117 572 b 117 32 118 129 118 33 b 103 26 115 29 113 28 b 74 7 79 22 74 18 b 90 -11 74 0 81 -8 b 206 0 108 -17 176 -10 b 301 61 217 4 272 39 b 419 193 349 96 388 140 b 494 374 456 254 481 313 b 504 458 503 410 504 425 b 469 661 504 525 493 589 b 306 882 438 756 390 819 b 146 964 246 926 192 954 b 82 967 129 968 89 969 b 71 950 75 964 71 958 z m 264 824 b 335 760 299 797 317 781 b 415 592 372 715 397 664 b 431 514 422 565 426 544 b 425 388 438 460 436 433 b 383 272 415 343 404 314 b 272 126 349 204 321 168 b 210 79 246 104 231 92 l 192 68 l 192 78 b 190 638 192 90 190 358 l 190 871 l 194 868 b 210 858 197 867 204 863 b 263 821 224 850 229 846 z "},"d":{"ha":574,"x_min":0,"x_max":0,"o":"m 69 953 b 75 943 69 947 71 946 b 100 940 79 940 81 940 l 119 940 l 118 864 b 118 244 117 781 117 572 b 117 32 118 129 118 33 b 103 26 115 29 113 28 b 74 7 79 22 74 18 b 90 -11 74 0 81 -8 b 206 0 108 -17 176 -10 b 301 61 217 4 272 39 b 419 193 349 96 388 140 b 494 374 456 254 481 313 b 504 458 503 410 504 425 b 469 661 504 525 493 589 b 306 882 438 756 390 819 b 146 964 246 926 192 954 b 82 967 129 968 89 969 b 71 950 75 964 71 958 z m 264 824 b 335 760 299 797 317 781 b 415 592 372 715 397 664 b 431 514 422 565 426 544 b 425 388 438 460 436 433 b 383 272 415 343 404 314 b 272 126 349 204 321 168 b 210 79 246 104 231 92 l 192 68 l 192 78 b 190 638 192 90 190 358 l 190 871 l 194 868 b 210 858 197 867 204 863 b 263 821 224 850 229 846 z "},"E":{"ha":540,"x_min":0,"x_max":0,"o":"m 422 990 b 419 971 419 986 419 983 l 419 956 l 313 954 b 136 951 157 953 151 953 b 90 932 113 950 96 943 b 88 914 89 928 88 919 b 85 867 88 907 86 886 b 76 675 82 829 79 778 b 74 582 75 639 74 597 b 74 392 74 567 74 481 b 72 135 74 303 74 188 b 74 29 71 50 71 39 b 136 -3 81 1 89 -3 b 278 1 172 -3 276 0 b 297 1 279 1 288 1 b 424 4 343 1 414 3 l 433 6 l 432 -15 b 439 -46 431 -37 432 -40 b 460 -46 444 -50 454 -50 b 469 7 467 -42 468 -33 b 471 118 472 72 472 104 b 465 135 469 129 469 131 b 442 132 458 142 446 140 b 439 101 440 131 439 117 b 439 74 439 86 439 74 b 317 74 438 72 369 72 b 229 74 275 75 249 75 b 176 71 214 72 190 71 l 151 69 l 150 74 b 147 449 147 86 144 408 l 149 467 l 276 467 b 404 465 364 467 404 467 b 401 450 404 464 403 457 b 400 432 400 443 400 435 b 415 417 401 425 408 418 b 433 425 421 415 429 419 b 440 522 438 431 439 456 b 435 585 442 576 442 579 b 418 583 431 588 422 588 b 410 554 413 579 411 574 b 406 535 408 542 407 536 b 250 535 403 532 393 532 b 147 539 185 536 149 538 b 150 703 144 542 146 615 b 154 808 151 721 153 768 b 158 882 156 850 157 881 b 226 883 160 883 176 883 b 294 883 263 883 293 883 b 347 886 296 883 319 885 b 410 889 375 888 403 889 l 421 890 l 422 879 b 422 857 422 872 422 863 b 426 842 422 847 422 846 b 447 839 432 836 440 835 b 457 913 457 844 457 846 b 454 979 457 971 457 974 b 449 988 453 982 450 986 b 432 990 444 990 436 992 b 426 983 431 989 428 986 z "},"e":{"ha":540,"x_min":0,"x_max":0,"o":"m 422 990 b 419 971 419 986 419 983 l 419 956 l 313 954 b 136 951 157 953 151 953 b 90 932 113 950 96 943 b 88 914 89 928 88 919 b 85 867 88 907 86 886 b 76 675 82 829 79 778 b 74 582 75 639 74 597 b 74 392 74 567 74 481 b 72 135 74 303 74 188 b 74 29 71 50 71 39 b 136 -3 81 1 89 -3 b 278 1 172 -3 276 0 b 297 1 279 1 288 1 b 424 4 343 1 414 3 l 433 6 l 432 -15 b 439 -46 431 -37 432 -40 b 460 -46 444 -50 454 -50 b 469 7 467 -42 468 -33 b 471 118 472 72 472 104 b 465 135 469 129 469 131 b 442 132 458 142 446 140 b 439 101 440 131 439 117 b 439 74 439 86 439 74 b 317 74 438 72 369 72 b 229 74 275 75 249 75 b 176 71 214 72 190 71 l 151 69 l 150 74 b 147 449 147 86 144 408 l 149 467 l 276 467 b 404 465 364 467 404 467 b 401 450 404 464 403 457 b 400 432 400 443 400 435 b 415 417 401 425 408 418 b 433 425 421 415 429 419 b 440 522 438 431 439 456 b 435 585 442 576 442 579 b 418 583 431 588 422 588 b 410 554 413 579 411 574 b 406 535 408 542 407 536 b 250 535 403 532 393 532 b 147 539 185 536 149 538 b 150 703 144 542 146 615 b 154 808 151 721 153 768 b 158 882 156 850 157 881 b 226 883 160 883 176 883 b 294 883 263 883 293 883 b 347 886 296 883 319 885 b 410 889 375 888 403 889 l 421 890 l 422 879 b 422 857 422 872 422 863 b 426 842 422 847 422 846 b 447 839 432 836 440 835 b 457 913 457 844 457 846 b 454 979 457 971 457 974 b 449 988 453 982 450 986 b 432 990 444 990 436 992 b 426 983 431 989 428 986 z "},"È":{"ha":540,"x_min":0,"x_max":0,"o":"m 422 990 b 419 971 419 986 419 983 l 419 956 l 313 954 b 136 951 157 953 151 953 b 90 932 113 950 96 943 b 88 914 89 928 88 919 b 85 867 88 907 86 886 b 76 675 82 829 79 778 b 74 582 75 639 74 597 b 74 392 74 567 74 481 b 72 135 74 303 74 188 b 74 29 71 50 71 39 b 136 -3 81 1 89 -3 b 278 1 172 -3 276 0 b 297 1 279 1 288 1 b 424 4 343 1 414 3 l 433 6 l 432 -15 b 439 -46 431 -37 432 -40 b 460 -46 444 -50 454 -50 b 469 7 467 -42 468 -33 b 471 118 472 72 472 104 b 465 135 469 129 469 131 b 442 132 458 142 446 140 b 439 101 440 131 439 117 b 439 74 439 86 439 74 b 317 74 438 72 369 72 b 229 74 275 75 249 75 b 176 71 214 72 190 71 l 151 69 l 150 74 b 147 449 147 86 144 408 l 149 467 l 276 467 b 404 465 364 467 404 467 b 401 450 404 464 403 457 b 400 432 400 443 400 435 b 415 417 401 425 408 418 b 433 425 421 415 429 419 b 440 522 438 431 439 456 b 435 585 442 576 442 579 b 418 583 431 588 422 588 b 410 554 413 579 411 574 b 406 535 408 542 407 536 b 250 535 403 532 393 532 b 147 539 185 536 149 538 b 150 703 144 542 146 615 b 154 808 151 721 153 768 b 158 882 156 850 157 881 b 226 883 160 883 176 883 b 294 883 263 883 293 883 b 347 886 296 883 319 885 b 410 889 375 888 403 889 l 421 890 l 422 879 b 422 857 422 872 422 863 b 426 842 422 847 422 846 b 447 839 432 836 440 835 b 457 913 457 844 457 846 b 454 979 457 971 457 974 b 449 988 453 982 450 986 b 432 990 444 990 436 992 b 426 983 431 989 428 986 z "},"É":{"ha":540,"x_min":0,"x_max":0,"o":"m 422 990 b 419 971 419 986 419 983 l 419 956 l 313 954 b 136 951 157 953 151 953 b 90 932 113 950 96 943 b 88 914 89 928 88 919 b 85 867 88 907 86 886 b 76 675 82 829 79 778 b 74 582 75 639 74 597 b 74 392 74 567 74 481 b 72 135 74 303 74 188 b 74 29 71 50 71 39 b 136 -3 81 1 89 -3 b 278 1 172 -3 276 0 b 297 1 279 1 288 1 b 424 4 343 1 414 3 l 433 6 l 432 -15 b 439 -46 431 -37 432 -40 b 460 -46 444 -50 454 -50 b 469 7 467 -42 468 -33 b 471 118 472 72 472 104 b 465 135 469 129 469 131 b 442 132 458 142 446 140 b 439 101 440 131 439 117 b 439 74 439 86 439 74 b 317 74 438 72 369 72 b 229 74 275 75 249 75 b 176 71 214 72 190 71 l 151 69 l 150 74 b 147 449 147 86 144 408 l 149 467 l 276 467 b 404 465 364 467 404 467 b 401 450 404 464 403 457 b 400 432 400 443 400 435 b 415 417 401 425 408 418 b 433 425 421 415 429 419 b 440 522 438 431 439 456 b 435 585 442 576 442 579 b 418 583 431 588 422 588 b 410 554 413 579 411 574 b 406 535 408 542 407 536 b 250 535 403 532 393 532 b 147 539 185 536 149 538 b 150 703 144 542 146 615 b 154 808 151 721 153 768 b 158 882 156 850 157 881 b 226 883 160 883 176 883 b 294 883 263 883 293 883 b 347 886 296 883 319 885 b 410 889 375 888 403 889 l 421 890 l 422 879 b 422 857 422 872 422 863 b 426 842 422 847 422 846 b 447 839 432 836 440 835 b 457 913 457 844 457 846 b 454 979 457 971 457 974 b 449 988 453 982 450 986 b 432 990 444 990 436 992 b 426 983 431 989 428 986 z "},"Ê":{"ha":540,"x_min":0,"x_max":0,"o":"m 422 990 b 419 971 419 986 419 983 l 419 956 l 313 954 b 136 951 157 953 151 953 b 90 932 113 950 96 943 b 88 914 89 928 88 919 b 85 867 88 907 86 886 b 76 675 82 829 79 778 b 74 582 75 639 74 597 b 74 392 74 567 74 481 b 72 135 74 303 74 188 b 74 29 71 50 71 39 b 136 -3 81 1 89 -3 b 278 1 172 -3 276 0 b 297 1 279 1 288 1 b 424 4 343 1 414 3 l 433 6 l 432 -15 b 439 -46 431 -37 432 -40 b 460 -46 444 -50 454 -50 b 469 7 467 -42 468 -33 b 471 118 472 72 472 104 b 465 135 469 129 469 131 b 442 132 458 142 446 140 b 439 101 440 131 439 117 b 439 74 439 86 439 74 b 317 74 438 72 369 72 b 229 74 275 75 249 75 b 176 71 214 72 190 71 l 151 69 l 150 74 b 147 449 147 86 144 408 l 149 467 l 276 467 b 404 465 364 467 404 467 b 401 450 404 464 403 457 b 400 432 400 443 400 435 b 415 417 401 425 408 418 b 433 425 421 415 429 419 b 440 522 438 431 439 456 b 435 585 442 576 442 579 b 418 583 431 588 422 588 b 410 554 413 579 411 574 b 406 535 408 542 407 536 b 250 535 403 532 393 532 b 147 539 185 536 149 538 b 150 703 144 542 146 615 b 154 808 151 721 153 768 b 158 882 156 850 157 881 b 226 883 160 883 176 883 b 294 883 263 883 293 883 b 347 886 296 883 319 885 b 410 889 375 888 403 889 l 421 890 l 422 879 b 422 857 422 872 422 863 b 426 842 422 847 422 846 b 447 839 432 836 440 835 b 457 913 457 844 457 846 b 454 979 457 971 457 974 b 449 988 453 982 450 986 b 432 990 444 990 436 992 b 426 983 431 989 428 986 z "},"Ë":{"ha":540,"x_min":0,"x_max":0,"o":"m 422 990 b 419 971 419 986 419 983 l 419 956 l 313 954 b 136 951 157 953 151 953 b 90 932 113 950 96 943 b 88 914 89 928 88 919 b 85 867 88 907 86 886 b 76 675 82 829 79 778 b 74 582 75 639 74 597 b 74 392 74 567 74 481 b 72 135 74 303 74 188 b 74 29 71 50 71 39 b 136 -3 81 1 89 -3 b 278 1 172 -3 276 0 b 297 1 279 1 288 1 b 424 4 343 1 414 3 l 433 6 l 432 -15 b 439 -46 431 -37 432 -40 b 460 -46 444 -50 454 -50 b 469 7 467 -42 468 -33 b 471 118 472 72 472 104 b 465 135 469 129 469 131 b 442 132 458 142 446 140 b 439 101 440 131 439 117 b 439 74 439 86 439 74 b 317 74 438 72 369 72 b 229 74 275 75 249 75 b 176 71 214 72 190 71 l 151 69 l 150 74 b 147 449 147 86 144 408 l 149 467 l 276 467 b 404 465 364 467 404 467 b 401 450 404 464 403 457 b 400 432 400 443 400 435 b 415 417 401 425 408 418 b 433 425 421 415 429 419 b 440 522 438 431 439 456 b 435 585 442 576 442 579 b 418 583 431 588 422 588 b 410 554 413 579 411 574 b 406 535 408 542 407 536 b 250 535 403 532 393 532 b 147 539 185 536 149 538 b 150 703 144 542 146 615 b 154 808 151 721 153 768 b 158 882 156 850 157 881 b 226 883 160 883 176 883 b 294 883 263 883 293 883 b 347 886 296 883 319 885 b 410 889 375 888 403 889 l 421 890 l 422 879 b 422 857 422 872 422 863 b 426 842 422 847 422 846 b 447 839 432 836 440 835 b 457 913 457 844 457 846 b 454 979 457 971 457 974 b 449 988 453 982 450 986 b 432 990 444 990 436 992 b 426 983 431 989 428 986 z "},"è":{"ha":540,"x_min":0,"x_max":0,"o":"m 422 990 b 419 971 419 986 419 983 l 419 956 l 313 954 b 136 951 157 953 151 953 b 90 932 113 950 96 943 b 88 914 89 928 88 919 b 85 867 88 907 86 886 b 76 675 82 829 79 778 b 74 582 75 639 74 597 b 74 392 74 567 74 481 b 72 135 74 303 74 188 b 74 29 71 50 71 39 b 136 -3 81 1 89 -3 b 278 1 172 -3 276 0 b 297 1 279 1 288 1 b 424 4 343 1 414 3 l 433 6 l 432 -15 b 439 -46 431 -37 432 -40 b 460 -46 444 -50 454 -50 b 469 7 467 -42 468 -33 b 471 118 472 72 472 104 b 465 135 469 129 469 131 b 442 132 458 142 446 140 b 439 101 440 131 439 117 b 439 74 439 86 439 74 b 317 74 438 72 369 72 b 229 74 275 75 249 75 b 176 71 214 72 190 71 l 151 69 l 150 74 b 147 449 147 86 144 408 l 149 467 l 276 467 b 404 465 364 467 404 467 b 401 450 404 464 403 457 b 400 432 400 443 400 435 b 415 417 401 425 408 418 b 433 425 421 415 429 419 b 440 522 438 431 439 456 b 435 585 442 576 442 579 b 418 583 431 588 422 588 b 410 554 413 579 411 574 b 406 535 408 542 407 536 b 250 535 403 532 393 532 b 147 539 185 536 149 538 b 150 703 144 542 146 615 b 154 808 151 721 153 768 b 158 882 156 850 157 881 b 226 883 160 883 176 883 b 294 883 263 883 293 883 b 347 886 296 883 319 885 b 410 889 375 888 403 889 l 421 890 l 422 879 b 422 857 422 872 422 863 b 426 842 422 847 422 846 b 447 839 432 836 440 835 b 457 913 457 844 457 846 b 454 979 457 971 457 974 b 449 988 453 982 450 986 b 432 990 444 990 436 992 b 426 983 431 989 428 986 z "},"é":{"ha":540,"x_min":0,"x_max":0,"o":"m 422 990 b 419 971 419 986 419 983 l 419 956 l 313 954 b 136 951 157 953 151 953 b 90 932 113 950 96 943 b 88 914 89 928 88 919 b 85 867 88 907 86 886 b 76 675 82 829 79 778 b 74 582 75 639 74 597 b 74 392 74 567 74 481 b 72 135 74 303 74 188 b 74 29 71 50 71 39 b 136 -3 81 1 89 -3 b 278 1 172 -3 276 0 b 297 1 279 1 288 1 b 424 4 343 1 414 3 l 433 6 l 432 -15 b 439 -46 431 -37 432 -40 b 460 -46 444 -50 454 -50 b 469 7 467 -42 468 -33 b 471 118 472 72 472 104 b 465 135 469 129 469 131 b 442 132 458 142 446 140 b 439 101 440 131 439 117 b 439 74 439 86 439 74 b 317 74 438 72 369 72 b 229 74 275 75 249 75 b 176 71 214 72 190 71 l 151 69 l 150 74 b 147 449 147 86 144 408 l 149 467 l 276 467 b 404 465 364 467 404 467 b 401 450 404 464 403 457 b 400 432 400 443 400 435 b 415 417 401 425 408 418 b 433 425 421 415 429 419 b 440 522 438 431 439 456 b 435 585 442 576 442 579 b 418 583 431 588 422 588 b 410 554 413 579 411 574 b 406 535 408 542 407 536 b 250 535 403 532 393 532 b 147 539 185 536 149 538 b 150 703 144 542 146 615 b 154 808 151 721 153 768 b 158 882 156 850 157 881 b 226 883 160 883 176 883 b 294 883 263 883 293 883 b 347 886 296 883 319 885 b 410 889 375 888 403 889 l 421 890 l 422 879 b 422 857 422 872 422 863 b 426 842 422 847 422 846 b 447 839 432 836 440 835 b 457 913 457 844 457 846 b 454 979 457 971 457 974 b 449 988 453 982 450 986 b 432 990 444 990 436 992 b 426 983 431 989 428 986 z "},"ê":{"ha":540,"x_min":0,"x_max":0,"o":"m 422 990 b 419 971 419 986 419 983 l 419 956 l 313 954 b 136 951 157 953 151 953 b 90 932 113 950 96 943 b 88 914 89 928 88 919 b 85 867 88 907 86 886 b 76 675 82 829 79 778 b 74 582 75 639 74 597 b 74 392 74 567 74 481 b 72 135 74 303 74 188 b 74 29 71 50 71 39 b 136 -3 81 1 89 -3 b 278 1 172 -3 276 0 b 297 1 279 1 288 1 b 424 4 343 1 414 3 l 433 6 l 432 -15 b 439 -46 431 -37 432 -40 b 460 -46 444 -50 454 -50 b 469 7 467 -42 468 -33 b 471 118 472 72 472 104 b 465 135 469 129 469 131 b 442 132 458 142 446 140 b 439 101 440 131 439 117 b 439 74 439 86 439 74 b 317 74 438 72 369 72 b 229 74 275 75 249 75 b 176 71 214 72 190 71 l 151 69 l 150 74 b 147 449 147 86 144 408 l 149 467 l 276 467 b 404 465 364 467 404 467 b 401 450 404 464 403 457 b 400 432 400 443 400 435 b 415 417 401 425 408 418 b 433 425 421 415 429 419 b 440 522 438 431 439 456 b 435 585 442 576 442 579 b 418 583 431 588 422 588 b 410 554 413 579 411 574 b 406 535 408 542 407 536 b 250 535 403 532 393 532 b 147 539 185 536 149 538 b 150 703 144 542 146 615 b 154 808 151 721 153 768 b 158 882 156 850 157 881 b 226 883 160 883 176 883 b 294 883 263 883 293 883 b 347 886 296 883 319 885 b 410 889 375 888 403 889 l 421 890 l 422 879 b 422 857 422 872 422 863 b 426 842 422 847 422 846 b 447 839 432 836 440 835 b 457 913 457 844 457 846 b 454 979 457 971 457 974 b 449 988 453 982 450 986 b 432 990 444 990 436 992 b 426 983 431 989 428 986 z "},"ë":{"ha":540,"x_min":0,"x_max":0,"o":"m 422 990 b 419 971 419 986 419 983 l 419 956 l 313 954 b 136 951 157 953 151 953 b 90 932 113 950 96 943 b 88 914 89 928 88 919 b 85 867 88 907 86 886 b 76 675 82 829 79 778 b 74 582 75 639 74 597 b 74 392 74 567 74 481 b 72 135 74 303 74 188 b 74 29 71 50 71 39 b 136 -3 81 1 89 -3 b 278 1 172 -3 276 0 b 297 1 279 1 288 1 b 424 4 343 1 414 3 l 433 6 l 432 -15 b 439 -46 431 -37 432 -40 b 460 -46 444 -50 454 -50 b 469 7 467 -42 468 -33 b 471 118 472 72 472 104 b 465 135 469 129 469 131 b 442 132 458 142 446 140 b 439 101 440 131 439 117 b 439 74 439 86 439 74 b 317 74 438 72 369 72 b 229 74 275 75 249 75 b 176 71 214 72 190 71 l 151 69 l 150 74 b 147 449 147 86 144 408 l 149 467 l 276 467 b 404 465 364 467 404 467 b 401 450 404 464 403 457 b 400 432 400 443 400 435 b 415 417 401 425 408 418 b 433 425 421 415 429 419 b 440 522 438 431 439 456 b 435 585 442 576 442 579 b 418 583 431 588 422 588 b 410 554 413 579 411 574 b 406 535 408 542 407 536 b 250 535 403 532 393 532 b 147 539 185 536 149 538 b 150 703 144 542 146 615 b 154 808 151 721 153 768 b 158 882 156 850 157 881 b 226 883 160 883 176 883 b 294 883 263 883 293 883 b 347 886 296 883 319 885 b 410 889 375 888 403 889 l 421 890 l 422 879 b 422 857 422 872 422 863 b 426 842 422 847 422 846 b 447 839 432 836 440 835 b 457 913 457 844 457 846 b 454 979 457 971 457 974 b 449 988 453 982 450 986 b 432 990 444 990 436 992 b 426 983 431 989 428 986 z "},"F":{"ha":546,"x_min":0,"x_max":0,"o":"m 442 983 l 440 967 l 436 968 b 301 974 432 969 371 972 b 238 972 279 974 253 974 b 140 961 200 969 146 964 b 124 942 133 958 125 949 b 128 669 122 935 124 854 b 128 279 131 551 131 538 b 128 110 128 233 128 157 l 128 24 l 110 21 b 88 17 100 19 90 18 b 82 -11 75 11 72 -3 b 107 -12 88 -15 90 -15 b 178 -10 113 -11 144 -10 b 244 -6 233 -8 240 -8 b 251 19 254 0 257 11 b 219 26 246 26 239 28 l 201 25 l 200 50 b 204 458 199 85 201 435 l 206 468 l 229 467 b 349 465 242 467 296 465 l 444 465 l 444 450 b 446 429 444 438 444 433 b 478 429 453 415 472 415 b 481 504 481 438 482 467 b 475 582 478 568 476 579 b 450 585 471 590 458 592 b 444 550 444 579 443 571 l 446 535 l 442 536 b 235 536 436 538 268 538 b 207 535 219 535 207 535 b 201 767 207 535 204 632 b 199 872 200 811 199 858 l 197 899 l 256 899 b 361 896 288 899 335 897 b 429 893 388 894 418 893 l 449 893 l 449 876 b 460 853 449 857 450 854 b 481 864 468 851 476 856 b 483 935 483 869 483 874 b 482 1004 483 981 483 1001 b 457 1008 478 1013 464 1015 b 449 982 451 1003 450 1000 z "},"f":{"ha":546,"x_min":0,"x_max":0,"o":"m 442 983 l 440 967 l 436 968 b 301 974 432 969 371 972 b 238 972 279 974 253 974 b 140 961 200 969 146 964 b 124 942 133 958 125 949 b 128 669 122 935 124 854 b 128 279 131 551 131 538 b 128 110 128 233 128 157 l 128 24 l 110 21 b 88 17 100 19 90 18 b 82 -11 75 11 72 -3 b 107 -12 88 -15 90 -15 b 178 -10 113 -11 144 -10 b 244 -6 233 -8 240 -8 b 251 19 254 0 257 11 b 219 26 246 26 239 28 l 201 25 l 200 50 b 204 458 199 85 201 435 l 206 468 l 229 467 b 349 465 242 467 296 465 l 444 465 l 444 450 b 446 429 444 438 444 433 b 478 429 453 415 472 415 b 481 504 481 438 482 467 b 475 582 478 568 476 579 b 450 585 471 590 458 592 b 444 550 444 579 443 571 l 446 535 l 442 536 b 235 536 436 538 268 538 b 207 535 219 535 207 535 b 201 767 207 535 204 632 b 199 872 200 811 199 858 l 197 899 l 256 899 b 361 896 288 899 335 897 b 429 893 388 894 418 893 l 449 893 l 449 876 b 460 853 449 857 450 854 b 481 864 468 851 476 856 b 483 935 483 869 483 874 b 482 1004 483 981 483 1001 b 457 1008 478 1013 464 1015 b 449 982 451 1003 450 1000 z "},"G":{"ha":615,"x_min":0,"x_max":0,"o":"m 225 939 b 171 888 210 928 183 903 b 92 699 135 843 111 786 b 69 468 78 632 71 565 b 81 272 68 390 71 339 b 197 14 99 147 139 58 b 401 4 251 -26 333 -31 b 493 97 443 25 474 56 b 504 122 497 106 501 117 b 519 200 510 138 517 175 b 522 335 522 226 524 300 b 511 375 521 363 519 367 b 479 383 503 383 500 385 b 308 365 418 381 346 372 b 296 363 301 364 296 363 b 296 369 296 363 296 365 b 289 400 296 385 293 396 b 264 392 281 410 265 404 b 267 328 264 389 265 360 b 282 257 271 263 271 263 b 300 260 289 253 294 254 b 304 285 306 265 306 268 b 304 297 304 292 304 297 b 344 300 304 297 322 299 b 417 306 367 301 399 304 b 451 307 435 307 450 307 b 453 275 453 307 453 301 b 419 107 453 194 442 140 b 310 51 397 72 356 51 b 247 68 285 51 264 57 b 165 215 210 93 186 136 b 142 449 150 272 142 357 b 161 672 142 533 149 614 b 285 890 186 793 219 851 b 335 908 304 901 315 906 b 363 908 350 911 351 911 b 419 864 393 900 411 886 b 433 786 428 843 432 821 l 435 767 l 424 765 b 396 746 404 764 396 758 b 400 736 396 742 397 739 l 404 732 l 438 733 b 503 735 456 733 485 735 l 536 736 l 540 740 b 543 763 546 747 547 756 b 514 772 539 769 532 772 b 499 775 499 772 499 772 b 499 803 499 776 499 789 b 493 865 499 835 497 847 b 471 922 489 889 482 907 b 431 958 463 933 443 951 b 418 968 425 963 419 967 b 386 979 417 971 397 978 b 333 982 372 982 346 983 b 228 942 296 978 258 964 z "},"g":{"ha":615,"x_min":0,"x_max":0,"o":"m 225 939 b 171 888 210 928 183 903 b 92 699 135 843 111 786 b 69 468 78 632 71 565 b 81 272 68 390 71 339 b 197 14 99 147 139 58 b 401 4 251 -26 333 -31 b 493 97 443 25 474 56 b 504 122 497 106 501 117 b 519 200 510 138 517 175 b 522 335 522 226 524 300 b 511 375 521 363 519 367 b 479 383 503 383 500 385 b 308 365 418 381 346 372 b 296 363 301 364 296 363 b 296 369 296 363 296 365 b 289 400 296 385 293 396 b 264 392 281 410 265 404 b 267 328 264 389 265 360 b 282 257 271 263 271 263 b 300 260 289 253 294 254 b 304 285 306 265 306 268 b 304 297 304 292 304 297 b 344 300 304 297 322 299 b 417 306 367 301 399 304 b 451 307 435 307 450 307 b 453 275 453 307 453 301 b 419 107 453 194 442 140 b 310 51 397 72 356 51 b 247 68 285 51 264 57 b 165 215 210 93 186 136 b 142 449 150 272 142 357 b 161 672 142 533 149 614 b 285 890 186 793 219 851 b 335 908 304 901 315 906 b 363 908 350 911 351 911 b 419 864 393 900 411 886 b 433 786 428 843 432 821 l 435 767 l 424 765 b 396 746 404 764 396 758 b 400 736 396 742 397 739 l 404 732 l 438 733 b 503 735 456 733 485 735 l 536 736 l 540 740 b 543 763 546 747 547 756 b 514 772 539 769 532 772 b 499 775 499 772 499 772 b 499 803 499 776 499 789 b 493 865 499 835 497 847 b 471 922 489 889 482 907 b 431 958 463 933 443 951 b 418 968 425 963 419 967 b 386 979 417 971 397 978 b 333 982 372 982 346 983 b 228 942 296 978 258 964 z "},"H":{"ha":694,"x_min":0,"x_max":0,"o":"m 115 968 b 79 958 89 967 85 965 b 74 946 75 954 74 951 b 103 932 74 933 82 929 b 124 935 110 933 119 935 l 132 936 l 131 929 b 131 835 131 925 131 882 b 128 442 131 675 129 500 b 126 314 126 410 126 353 b 124 186 126 275 125 218 b 121 81 122 154 121 107 l 121 32 l 101 31 b 71 19 81 29 74 26 b 79 -3 67 11 71 0 b 158 -4 81 -3 117 -4 l 233 -4 l 239 1 b 240 25 246 8 246 18 b 208 32 235 31 228 32 l 193 32 l 194 88 b 197 172 194 118 196 156 b 201 326 199 189 200 258 b 204 463 203 394 204 456 l 206 475 l 224 474 b 332 472 233 474 282 472 b 424 472 399 471 422 471 b 471 474 425 474 439 474 b 517 471 511 474 515 474 b 513 219 518 468 515 304 b 510 60 511 156 510 93 l 510 33 l 490 32 b 456 18 467 31 458 28 b 456 7 454 13 454 11 b 539 -4 460 -3 458 -3 b 626 4 621 -6 621 -6 b 628 21 631 10 631 14 b 600 29 624 29 618 31 l 585 28 l 586 106 b 589 267 586 149 588 221 b 592 496 590 318 592 404 b 588 908 592 646 589 882 l 586 924 l 599 922 b 626 929 614 921 621 922 b 628 950 632 935 632 944 b 546 958 621 958 619 958 b 469 958 508 958 474 958 b 457 931 454 956 447 940 b 486 925 463 925 464 925 b 522 922 504 925 524 924 b 519 875 522 921 521 900 b 518 622 517 822 517 736 l 519 542 l 515 542 b 469 542 514 542 493 542 b 235 536 319 539 258 538 l 208 535 l 208 664 b 206 844 208 775 208 800 b 203 914 204 874 203 904 l 203 931 l 213 931 b 233 940 224 931 231 933 b 231 961 238 947 236 954 l 225 967 l 192 967 b 151 967 174 967 156 967 b 124 964 147 967 135 965 z "},"h":{"ha":694,"x_min":0,"x_max":0,"o":"m 115 968 b 79 958 89 967 85 965 b 74 946 75 954 74 951 b 103 932 74 933 82 929 b 124 935 110 933 119 935 l 132 936 l 131 929 b 131 835 131 925 131 882 b 128 442 131 675 129 500 b 126 314 126 410 126 353 b 124 186 126 275 125 218 b 121 81 122 154 121 107 l 121 32 l 101 31 b 71 19 81 29 74 26 b 79 -3 67 11 71 0 b 158 -4 81 -3 117 -4 l 233 -4 l 239 1 b 240 25 246 8 246 18 b 208 32 235 31 228 32 l 193 32 l 194 88 b 197 172 194 118 196 156 b 201 326 199 189 200 258 b 204 463 203 394 204 456 l 206 475 l 224 474 b 332 472 233 474 282 472 b 424 472 399 471 422 471 b 471 474 425 474 439 474 b 517 471 511 474 515 474 b 513 219 518 468 515 304 b 510 60 511 156 510 93 l 510 33 l 490 32 b 456 18 467 31 458 28 b 456 7 454 13 454 11 b 539 -4 460 -3 458 -3 b 626 4 621 -6 621 -6 b 628 21 631 10 631 14 b 600 29 624 29 618 31 l 585 28 l 586 106 b 589 267 586 149 588 221 b 592 496 590 318 592 404 b 588 908 592 646 589 882 l 586 924 l 599 922 b 626 929 614 921 621 922 b 628 950 632 935 632 944 b 546 958 621 958 619 958 b 469 958 508 958 474 958 b 457 931 454 956 447 940 b 486 925 463 925 464 925 b 522 922 504 925 524 924 b 519 875 522 921 521 900 b 518 622 517 822 517 736 l 519 542 l 515 542 b 469 542 514 542 493 542 b 235 536 319 539 258 538 l 208 535 l 208 664 b 206 844 208 775 208 800 b 203 914 204 874 203 904 l 203 931 l 213 931 b 233 940 224 931 231 933 b 231 961 238 947 236 954 l 225 967 l 192 967 b 151 967 174 967 156 967 b 124 964 147 967 135 965 z "},"I":{"ha":338,"x_min":0,"x_max":0,"o":"m 188 969 b 82 963 135 968 92 965 b 74 935 69 958 65 943 l 78 931 l 133 933 l 132 888 b 135 564 129 815 131 736 b 135 174 138 461 138 268 b 132 68 133 136 132 89 l 132 31 l 110 31 b 75 21 83 31 79 29 b 74 11 72 17 72 15 b 132 -1 78 0 76 0 b 215 -4 160 -3 197 -4 b 263 6 253 -4 257 -3 b 263 26 267 13 267 19 b 225 36 257 35 250 36 l 204 36 l 203 42 b 204 201 201 47 201 75 b 204 556 207 289 207 460 b 200 735 203 603 201 683 b 196 872 199 786 197 849 b 194 926 194 896 194 921 l 194 938 l 208 939 b 228 942 217 939 225 940 b 229 976 244 946 246 969 b 217 976 225 978 218 978 b 183 976 217 976 201 976 z "},"i":{"ha":338,"x_min":0,"x_max":0,"o":"m 188 969 b 82 963 135 968 92 965 b 74 935 69 958 65 943 l 78 931 l 133 933 l 132 888 b 135 564 129 815 131 736 b 135 174 138 461 138 268 b 132 68 133 136 132 89 l 132 31 l 110 31 b 75 21 83 31 79 29 b 74 11 72 17 72 15 b 132 -1 78 0 76 0 b 215 -4 160 -3 197 -4 b 263 6 253 -4 257 -3 b 263 26 267 13 267 19 b 225 36 257 35 250 36 l 204 36 l 203 42 b 204 201 201 47 201 75 b 204 556 207 289 207 460 b 200 735 203 603 201 683 b 196 872 199 786 197 849 b 194 926 194 896 194 921 l 194 938 l 208 939 b 228 942 217 939 225 940 b 229 976 244 946 246 969 b 217 976 225 978 218 978 b 183 976 217 976 201 976 z "},"Ì":{"ha":338,"x_min":0,"x_max":0,"o":"m 188 969 b 82 963 135 968 92 965 b 74 935 69 958 65 943 l 78 931 l 133 933 l 132 888 b 135 564 129 815 131 736 b 135 174 138 461 138 268 b 132 68 133 136 132 89 l 132 31 l 110 31 b 75 21 83 31 79 29 b 74 11 72 17 72 15 b 132 -1 78 0 76 0 b 215 -4 160 -3 197 -4 b 263 6 253 -4 257 -3 b 263 26 267 13 267 19 b 225 36 257 35 250 36 l 204 36 l 203 42 b 204 201 201 47 201 75 b 204 556 207 289 207 460 b 200 735 203 603 201 683 b 196 872 199 786 197 849 b 194 926 194 896 194 921 l 194 938 l 208 939 b 228 942 217 939 225 940 b 229 976 244 946 246 969 b 217 976 225 978 218 978 b 183 976 217 976 201 976 z "},"Í":{"ha":338,"x_min":0,"x_max":0,"o":"m 188 969 b 82 963 135 968 92 965 b 74 935 69 958 65 943 l 78 931 l 133 933 l 132 888 b 135 564 129 815 131 736 b 135 174 138 461 138 268 b 132 68 133 136 132 89 l 132 31 l 110 31 b 75 21 83 31 79 29 b 74 11 72 17 72 15 b 132 -1 78 0 76 0 b 215 -4 160 -3 197 -4 b 263 6 253 -4 257 -3 b 263 26 267 13 267 19 b 225 36 257 35 250 36 l 204 36 l 203 42 b 204 201 201 47 201 75 b 204 556 207 289 207 460 b 200 735 203 603 201 683 b 196 872 199 786 197 849 b 194 926 194 896 194 921 l 194 938 l 208 939 b 228 942 217 939 225 940 b 229 976 244 946 246 969 b 217 976 225 978 218 978 b 183 976 217 976 201 976 z "},"Î":{"ha":338,"x_min":0,"x_max":0,"o":"m 188 969 b 82 963 135 968 92 965 b 74 935 69 958 65 943 l 78 931 l 133 933 l 132 888 b 135 564 129 815 131 736 b 135 174 138 461 138 268 b 132 68 133 136 132 89 l 132 31 l 110 31 b 75 21 83 31 79 29 b 74 11 72 17 72 15 b 132 -1 78 0 76 0 b 215 -4 160 -3 197 -4 b 263 6 253 -4 257 -3 b 263 26 267 13 267 19 b 225 36 257 35 250 36 l 204 36 l 203 42 b 204 201 201 47 201 75 b 204 556 207 289 207 460 b 200 735 203 603 201 683 b 196 872 199 786 197 849 b 194 926 194 896 194 921 l 194 938 l 208 939 b 228 942 217 939 225 940 b 229 976 244 946 246 969 b 217 976 225 978 218 978 b 183 976 217 976 201 976 z "},"Ï":{"ha":338,"x_min":0,"x_max":0,"o":"m 188 969 b 82 963 135 968 92 965 b 74 935 69 958 65 943 l 78 931 l 133 933 l 132 888 b 135 564 129 815 131 736 b 135 174 138 461 138 268 b 132 68 133 136 132 89 l 132 31 l 110 31 b 75 21 83 31 79 29 b 74 11 72 17 72 15 b 132 -1 78 0 76 0 b 215 -4 160 -3 197 -4 b 263 6 253 -4 257 -3 b 263 26 267 13 267 19 b 225 36 257 35 250 36 l 204 36 l 203 42 b 204 201 201 47 201 75 b 204 556 207 289 207 460 b 200 735 203 603 201 683 b 196 872 199 786 197 849 b 194 926 194 896 194 921 l 194 938 l 208 939 b 228 942 217 939 225 940 b 229 976 244 946 246 969 b 217 976 225 978 218 978 b 183 976 217 976 201 976 z "},"ì":{"ha":338,"x_min":0,"x_max":0,"o":"m 188 969 b 82 963 135 968 92 965 b 74 935 69 958 65 943 l 78 931 l 133 933 l 132 888 b 135 564 129 815 131 736 b 135 174 138 461 138 268 b 132 68 133 136 132 89 l 132 31 l 110 31 b 75 21 83 31 79 29 b 74 11 72 17 72 15 b 132 -1 78 0 76 0 b 215 -4 160 -3 197 -4 b 263 6 253 -4 257 -3 b 263 26 267 13 267 19 b 225 36 257 35 250 36 l 204 36 l 203 42 b 204 201 201 47 201 75 b 204 556 207 289 207 460 b 200 735 203 603 201 683 b 196 872 199 786 197 849 b 194 926 194 896 194 921 l 194 938 l 208 939 b 228 942 217 939 225 940 b 229 976 244 946 246 969 b 217 976 225 978 218 978 b 183 976 217 976 201 976 z "},"í":{"ha":338,"x_min":0,"x_max":0,"o":"m 188 969 b 82 963 135 968 92 965 b 74 935 69 958 65 943 l 78 931 l 133 933 l 132 888 b 135 564 129 815 131 736 b 135 174 138 461 138 268 b 132 68 133 136 132 89 l 132 31 l 110 31 b 75 21 83 31 79 29 b 74 11 72 17 72 15 b 132 -1 78 0 76 0 b 215 -4 160 -3 197 -4 b 263 6 253 -4 257 -3 b 263 26 267 13 267 19 b 225 36 257 35 250 36 l 204 36 l 203 42 b 204 201 201 47 201 75 b 204 556 207 289 207 460 b 200 735 203 603 201 683 b 196 872 199 786 197 849 b 194 926 194 896 194 921 l 194 938 l 208 939 b 228 942 217 939 225 940 b 229 976 244 946 246 969 b 217 976 225 978 218 978 b 183 976 217 976 201 976 z "},"î":{"ha":338,"x_min":0,"x_max":0,"o":"m 188 969 b 82 963 135 968 92 965 b 74 935 69 958 65 943 l 78 931 l 133 933 l 132 888 b 135 564 129 815 131 736 b 135 174 138 461 138 268 b 132 68 133 136 132 89 l 132 31 l 110 31 b 75 21 83 31 79 29 b 74 11 72 17 72 15 b 132 -1 78 0 76 0 b 215 -4 160 -3 197 -4 b 263 6 253 -4 257 -3 b 263 26 267 13 267 19 b 225 36 257 35 250 36 l 204 36 l 203 42 b 204 201 201 47 201 75 b 204 556 207 289 207 460 b 200 735 203 603 201 683 b 196 872 199 786 197 849 b 194 926 194 896 194 921 l 194 938 l 208 939 b 228 942 217 939 225 940 b 229 976 244 946 246 969 b 217 976 225 978 218 978 b 183 976 217 976 201 976 z "},"ï":{"ha":338,"x_min":0,"x_max":0,"o":"m 188 969 b 82 963 135 968 92 965 b 74 935 69 958 65 943 l 78 931 l 133 933 l 132 888 b 135 564 129 815 131 736 b 135 174 138 461 138 268 b 132 68 133 136 132 89 l 132 31 l 110 31 b 75 21 83 31 79 29 b 74 11 72 17 72 15 b 132 -1 78 0 76 0 b 215 -4 160 -3 197 -4 b 263 6 253 -4 257 -3 b 263 26 267 13 267 19 b 225 36 257 35 250 36 l 204 36 l 203 42 b 204 201 201 47 201 75 b 204 556 207 289 207 460 b 200 735 203 603 201 683 b 196 872 199 786 197 849 b 194 926 194 896 194 921 l 194 938 l 208 939 b 228 942 217 939 225 940 b 229 976 244 946 246 969 b 217 976 225 978 218 978 b 183 976 217 976 201 976 z "},"J":{"ha":513,"x_min":0,"x_max":0,"o":"m 144 982 b 138 914 143 975 140 944 b 136 854 133 861 133 860 b 161 847 140 844 151 842 b 171 885 168 851 169 858 l 172 908 l 267 907 b 363 906 319 907 363 906 b 363 853 363 906 363 882 b 365 674 363 824 364 743 b 363 307 369 496 368 378 b 321 111 356 229 340 157 b 275 54 310 86 290 61 b 256 50 269 51 265 50 b 232 56 244 50 243 50 b 186 114 210 67 193 88 b 178 190 179 139 178 150 b 181 251 178 217 179 236 b 183 283 182 264 183 278 b 183 297 183 289 183 294 l 185 301 l 219 301 l 224 306 b 228 326 231 311 232 319 b 149 336 222 336 222 336 b 76 333 86 336 82 336 b 71 306 65 328 63 314 b 93 303 75 303 76 303 l 111 303 l 110 293 b 106 143 103 238 101 172 b 124 75 108 121 117 90 b 279 -17 153 10 219 -29 b 381 74 321 -7 356 24 b 432 282 403 119 422 197 b 439 594 440 358 442 435 b 435 782 438 665 436 750 b 425 951 433 849 428 942 b 393 978 421 967 411 975 b 204 981 376 979 225 982 b 176 975 189 979 183 978 b 174 988 174 974 174 975 b 164 1011 174 1003 172 1007 b 151 1011 158 1014 156 1014 b 140 990 144 1008 142 1003 z "},"j":{"ha":513,"x_min":0,"x_max":0,"o":"m 144 982 b 138 914 143 975 140 944 b 136 854 133 861 133 860 b 161 847 140 844 151 842 b 171 885 168 851 169 858 l 172 908 l 267 907 b 363 906 319 907 363 906 b 363 853 363 906 363 882 b 365 674 363 824 364 743 b 363 307 369 496 368 378 b 321 111 356 229 340 157 b 275 54 310 86 290 61 b 256 50 269 51 265 50 b 232 56 244 50 243 50 b 186 114 210 67 193 88 b 178 190 179 139 178 150 b 181 251 178 217 179 236 b 183 283 182 264 183 278 b 183 297 183 289 183 294 l 185 301 l 219 301 l 224 306 b 228 326 231 311 232 319 b 149 336 222 336 222 336 b 76 333 86 336 82 336 b 71 306 65 328 63 314 b 93 303 75 303 76 303 l 111 303 l 110 293 b 106 143 103 238 101 172 b 124 75 108 121 117 90 b 279 -17 153 10 219 -29 b 381 74 321 -7 356 24 b 432 282 403 119 422 197 b 439 594 440 358 442 435 b 435 782 438 665 436 750 b 425 951 433 849 428 942 b 393 978 421 967 411 975 b 204 981 376 979 225 982 b 176 975 189 979 183 978 b 174 988 174 974 174 975 b 164 1011 174 1003 172 1007 b 151 1011 158 1014 156 1014 b 140 990 144 1008 142 1003 z "},"K":{"ha":600,"x_min":0,"x_max":0,"o":"m 132 960 b 81 957 107 960 83 958 b 81 931 68 953 68 936 b 104 929 82 929 92 929 l 125 929 l 125 881 b 128 800 125 854 126 818 b 125 286 132 724 131 449 b 125 31 121 164 121 42 b 111 28 126 28 125 28 b 69 13 78 28 69 25 b 75 0 69 7 71 4 l 79 -4 l 153 -4 b 232 -1 221 -4 226 -4 b 235 26 244 4 246 19 b 214 29 231 29 228 29 l 197 29 l 196 38 b 197 304 194 49 196 240 b 200 424 199 332 200 386 l 201 492 l 206 499 b 213 508 208 503 211 507 b 217 510 215 513 215 513 b 254 424 221 500 250 433 b 296 322 261 408 283 354 b 365 136 326 243 329 235 b 393 63 374 114 386 81 b 406 28 400 44 406 29 b 396 26 406 26 401 26 b 376 25 390 26 382 26 b 360 11 364 24 360 19 b 396 -4 360 -3 365 -6 b 469 -4 408 -4 442 -4 b 524 -1 518 -4 519 -4 b 531 7 526 0 529 4 b 529 19 532 13 532 14 b 503 31 525 28 519 31 b 488 33 490 31 489 31 b 428 185 483 39 451 122 b 336 419 392 282 357 372 b 265 565 331 431 282 532 l 261 574 l 274 593 b 413 811 310 649 397 786 b 439 858 417 818 429 839 b 465 906 449 878 461 899 l 474 919 l 489 921 b 508 924 500 921 506 922 b 517 940 514 926 518 935 b 501 954 515 946 508 953 b 357 950 490 957 369 954 b 349 925 344 947 340 933 b 374 921 353 921 353 921 b 396 921 386 921 396 921 b 381 896 396 921 389 910 b 357 858 372 882 361 865 b 269 721 324 806 307 779 b 214 635 246 685 221 646 l 201 615 l 201 646 b 197 811 201 686 199 782 b 193 869 196 824 194 850 b 190 910 192 889 190 907 l 189 915 l 200 915 b 215 918 206 915 213 917 b 221 947 229 924 232 939 b 192 950 215 951 210 951 b 131 949 183 950 156 949 z "},"k":{"ha":600,"x_min":0,"x_max":0,"o":"m 132 960 b 81 957 107 960 83 958 b 81 931 68 953 68 936 b 104 929 82 929 92 929 l 125 929 l 125 881 b 128 800 125 854 126 818 b 125 286 132 724 131 449 b 125 31 121 164 121 42 b 111 28 126 28 125 28 b 69 13 78 28 69 25 b 75 0 69 7 71 4 l 79 -4 l 153 -4 b 232 -1 221 -4 226 -4 b 235 26 244 4 246 19 b 214 29 231 29 228 29 l 197 29 l 196 38 b 197 304 194 49 196 240 b 200 424 199 332 200 386 l 201 492 l 206 499 b 213 508 208 503 211 507 b 217 510 215 513 215 513 b 254 424 221 500 250 433 b 296 322 261 408 283 354 b 365 136 326 243 329 235 b 393 63 374 114 386 81 b 406 28 400 44 406 29 b 396 26 406 26 401 26 b 376 25 390 26 382 26 b 360 11 364 24 360 19 b 396 -4 360 -3 365 -6 b 469 -4 408 -4 442 -4 b 524 -1 518 -4 519 -4 b 531 7 526 0 529 4 b 529 19 532 13 532 14 b 503 31 525 28 519 31 b 488 33 490 31 489 31 b 428 185 483 39 451 122 b 336 419 392 282 357 372 b 265 565 331 431 282 532 l 261 574 l 274 593 b 413 811 310 649 397 786 b 439 858 417 818 429 839 b 465 906 449 878 461 899 l 474 919 l 489 921 b 508 924 500 921 506 922 b 517 940 514 926 518 935 b 501 954 515 946 508 953 b 357 950 490 957 369 954 b 349 925 344 947 340 933 b 374 921 353 921 353 921 b 396 921 386 921 396 921 b 381 896 396 921 389 910 b 357 858 372 882 361 865 b 269 721 324 806 307 779 b 214 635 246 685 221 646 l 201 615 l 201 646 b 197 811 201 686 199 782 b 193 869 196 824 194 850 b 190 910 192 889 190 907 l 189 915 l 200 915 b 215 918 206 915 213 917 b 221 947 229 924 232 939 b 192 950 215 951 210 951 b 131 949 183 950 156 949 z "},"L":{"ha":649,"x_min":0,"x_max":0,"o":"m 71 964 b 75 947 68 958 69 951 b 111 942 81 943 83 943 b 132 940 122 942 132 940 b 131 888 132 940 132 917 b 129 488 129 851 129 728 b 128 103 129 242 129 129 b 125 46 126 82 125 57 b 129 18 125 28 125 26 b 197 -8 139 -3 160 -11 b 283 -7 207 -8 246 -7 b 363 -6 321 -7 357 -6 b 399 -6 368 -6 385 -6 b 514 1 425 -4 479 -1 b 538 3 525 3 535 3 l 542 3 l 542 -17 l 542 -36 l 546 -42 b 575 -37 556 -51 569 -50 b 579 85 579 -28 582 32 b 569 136 578 131 578 132 b 550 129 563 139 554 136 b 547 96 547 125 547 121 l 547 68 l 533 67 b 433 65 525 67 481 65 b 257 60 311 64 288 63 b 225 57 249 58 235 57 l 208 56 l 208 69 b 211 100 208 76 210 90 b 214 222 214 126 215 194 b 210 351 213 235 211 293 b 206 560 208 410 207 504 b 206 794 204 626 204 708 l 207 928 l 228 928 b 254 932 249 928 250 928 b 260 953 261 938 263 946 b 215 965 254 964 253 964 b 179 965 197 965 181 965 b 131 965 178 965 156 965 b 78 956 81 964 82 964 z "},"l":{"ha":649,"x_min":0,"x_max":0,"o":"m 71 964 b 75 947 68 958 69 951 b 111 942 81 943 83 943 b 132 940 122 942 132 940 b 131 888 132 940 132 917 b 129 488 129 851 129 728 b 128 103 129 242 129 129 b 125 46 126 82 125 57 b 129 18 125 28 125 26 b 197 -8 139 -3 160 -11 b 283 -7 207 -8 246 -7 b 363 -6 321 -7 357 -6 b 399 -6 368 -6 385 -6 b 514 1 425 -4 479 -1 b 538 3 525 3 535 3 l 542 3 l 542 -17 l 542 -36 l 546 -42 b 575 -37 556 -51 569 -50 b 579 85 579 -28 582 32 b 569 136 578 131 578 132 b 550 129 563 139 554 136 b 547 96 547 125 547 121 l 547 68 l 533 67 b 433 65 525 67 481 65 b 257 60 311 64 288 63 b 225 57 249 58 235 57 l 208 56 l 208 69 b 211 100 208 76 210 90 b 214 222 214 126 215 194 b 210 351 213 235 211 293 b 206 560 208 410 207 504 b 206 794 204 626 204 708 l 207 928 l 228 928 b 254 932 249 928 250 928 b 260 953 261 938 263 946 b 215 965 254 964 253 964 b 179 965 197 965 181 965 b 131 965 178 965 156 965 b 78 956 81 964 82 964 z "},"M":{"ha":817,"x_min":0,"x_max":0,"o":"m 74 956 b 74 935 68 950 68 940 b 110 929 79 929 86 928 b 133 928 122 929 132 929 b 135 601 135 926 135 878 b 132 43 135 347 133 118 b 118 38 132 39 132 39 b 93 26 101 36 96 33 b 97 10 90 19 92 14 l 101 6 l 169 6 b 243 7 218 6 239 6 b 256 22 249 8 256 17 b 246 38 256 28 251 35 b 224 39 242 39 236 39 l 206 39 l 204 82 b 206 233 204 106 204 174 b 206 788 207 360 207 731 b 204 826 204 808 204 826 b 213 811 204 826 208 819 b 246 753 217 803 232 776 b 294 668 260 729 282 692 b 374 542 319 624 353 571 b 421 507 393 514 404 506 b 438 521 428 508 431 511 b 493 613 443 528 465 565 b 582 758 526 668 568 736 b 618 815 610 803 618 815 b 618 778 618 815 618 799 b 618 31 615 690 615 100 l 618 22 l 597 21 b 567 10 574 19 569 18 b 568 0 565 6 565 4 b 575 -7 569 -3 572 -6 b 738 -7 582 -10 732 -10 b 742 19 747 -1 750 11 l 738 25 l 715 25 b 692 28 703 25 693 26 b 690 661 690 29 689 579 b 692 857 693 807 693 832 b 692 901 692 871 692 892 l 692 919 l 707 918 b 744 926 735 915 740 917 b 731 949 749 936 742 947 b 631 951 719 950 635 953 b 606 919 626 950 617 938 b 578 881 601 914 589 896 b 432 650 538 824 508 778 b 410 614 421 631 411 614 b 400 629 408 614 404 621 b 375 672 396 638 385 657 b 326 757 367 688 344 726 b 207 947 226 932 222 939 l 199 951 l 140 951 b 79 951 108 951 81 951 b 72 947 78 951 75 950 z "},"m":{"ha":817,"x_min":0,"x_max":0,"o":"m 74 956 b 74 935 68 950 68 940 b 110 929 79 929 86 928 b 133 928 122 929 132 929 b 135 601 135 926 135 878 b 132 43 135 347 133 118 b 118 38 132 39 132 39 b 93 26 101 36 96 33 b 97 10 90 19 92 14 l 101 6 l 169 6 b 243 7 218 6 239 6 b 256 22 249 8 256 17 b 246 38 256 28 251 35 b 224 39 242 39 236 39 l 206 39 l 204 82 b 206 233 204 106 204 174 b 206 788 207 360 207 731 b 204 826 204 808 204 826 b 213 811 204 826 208 819 b 246 753 217 803 232 776 b 294 668 260 729 282 692 b 374 542 319 624 353 571 b 421 507 393 514 404 506 b 438 521 428 508 431 511 b 493 613 443 528 465 565 b 582 758 526 668 568 736 b 618 815 610 803 618 815 b 618 778 618 815 618 799 b 618 31 615 690 615 100 l 618 22 l 597 21 b 567 10 574 19 569 18 b 568 0 565 6 565 4 b 575 -7 569 -3 572 -6 b 738 -7 582 -10 732 -10 b 742 19 747 -1 750 11 l 738 25 l 715 25 b 692 28 703 25 693 26 b 690 661 690 29 689 579 b 692 857 693 807 693 832 b 692 901 692 871 692 892 l 692 919 l 707 918 b 744 926 735 915 740 917 b 731 949 749 936 742 947 b 631 951 719 950 635 953 b 606 919 626 950 617 938 b 578 881 601 914 589 896 b 432 650 538 824 508 778 b 410 614 421 631 411 614 b 400 629 408 614 404 621 b 375 672 396 638 385 657 b 326 757 367 688 344 726 b 207 947 226 932 222 939 l 199 951 l 140 951 b 79 951 108 951 81 951 b 72 947 78 951 75 950 z "},"N":{"ha":651,"x_min":0,"x_max":0,"o":"m 75 931 b 101 926 79 926 81 926 b 124 926 113 926 122 926 b 128 926 125 926 126 926 b 132 857 129 926 131 914 b 138 746 133 818 136 768 b 143 424 140 696 144 486 b 140 321 143 399 142 353 b 139 203 140 289 139 236 b 139 94 139 169 139 121 b 139 39 139 68 139 43 l 140 31 l 119 31 b 86 14 92 31 86 28 b 97 1 86 8 92 3 b 236 -3 101 0 219 -3 b 263 15 256 -3 263 3 b 257 25 263 21 261 22 b 226 31 251 31 244 32 b 211 32 219 31 213 31 b 210 68 210 33 210 40 b 210 158 210 88 210 128 b 214 368 211 260 213 314 b 213 653 215 457 215 579 l 210 721 l 214 721 b 221 714 217 721 218 719 b 242 658 222 710 232 685 b 340 383 272 581 283 550 b 433 125 374 288 414 176 b 461 50 443 99 456 65 b 494 3 474 14 479 6 b 568 4 507 0 561 1 b 574 29 579 8 582 21 b 554 33 569 33 568 33 l 540 33 l 540 42 b 542 63 540 46 540 56 b 542 200 543 71 543 121 b 539 425 540 268 539 369 b 535 722 539 496 538 586 l 531 918 l 572 919 l 576 924 b 579 943 582 929 583 936 b 506 950 575 951 575 951 b 428 947 471 950 436 949 b 408 942 414 946 413 946 b 406 924 404 936 403 929 b 436 917 408 918 414 917 l 457 917 l 461 629 b 464 249 465 357 467 251 b 461 250 464 249 463 249 b 403 413 460 253 431 333 b 304 685 350 568 340 593 b 235 857 260 800 253 815 b 203 933 210 915 206 925 b 197 943 201 938 199 942 b 132 949 190 950 189 950 b 74 944 85 947 78 947 b 71 919 64 939 63 926 z "},"n":{"ha":651,"x_min":0,"x_max":0,"o":"m 75 931 b 101 926 79 926 81 926 b 124 926 113 926 122 926 b 128 926 125 926 126 926 b 132 857 129 926 131 914 b 138 746 133 818 136 768 b 143 424 140 696 144 486 b 140 321 143 399 142 353 b 139 203 140 289 139 236 b 139 94 139 169 139 121 b 139 39 139 68 139 43 l 140 31 l 119 31 b 86 14 92 31 86 28 b 97 1 86 8 92 3 b 236 -3 101 0 219 -3 b 263 15 256 -3 263 3 b 257 25 263 21 261 22 b 226 31 251 31 244 32 b 211 32 219 31 213 31 b 210 68 210 33 210 40 b 210 158 210 88 210 128 b 214 368 211 260 213 314 b 213 653 215 457 215 579 l 210 721 l 214 721 b 221 714 217 721 218 719 b 242 658 222 710 232 685 b 340 383 272 581 283 550 b 433 125 374 288 414 176 b 461 50 443 99 456 65 b 494 3 474 14 479 6 b 568 4 507 0 561 1 b 574 29 579 8 582 21 b 554 33 569 33 568 33 l 540 33 l 540 42 b 542 63 540 46 540 56 b 542 200 543 71 543 121 b 539 425 540 268 539 369 b 535 722 539 496 538 586 l 531 918 l 572 919 l 576 924 b 579 943 582 929 583 936 b 506 950 575 951 575 951 b 428 947 471 950 436 949 b 408 942 414 946 413 946 b 406 924 404 936 403 929 b 436 917 408 918 414 917 l 457 917 l 461 629 b 464 249 465 357 467 251 b 461 250 464 249 463 249 b 403 413 460 253 431 333 b 304 685 350 568 340 593 b 235 857 260 800 253 815 b 203 933 210 915 206 925 b 197 943 201 938 199 942 b 132 949 190 950 189 950 b 74 944 85 947 78 947 b 71 919 64 939 63 926 z "},"Ñ":{"ha":651,"x_min":0,"x_max":0,"o":"m 75 931 b 101 926 79 926 81 926 b 124 926 113 926 122 926 b 128 926 125 926 126 926 b 132 857 129 926 131 914 b 138 746 133 818 136 768 b 143 424 140 696 144 486 b 140 321 143 399 142 353 b 139 203 140 289 139 236 b 139 94 139 169 139 121 b 139 39 139 68 139 43 l 140 31 l 119 31 b 86 14 92 31 86 28 b 97 1 86 8 92 3 b 236 -3 101 0 219 -3 b 263 15 256 -3 263 3 b 257 25 263 21 261 22 b 226 31 251 31 244 32 b 211 32 219 31 213 31 b 210 68 210 33 210 40 b 210 158 210 88 210 128 b 214 368 211 260 213 314 b 213 653 215 457 215 579 l 210 721 l 214 721 b 221 714 217 721 218 719 b 242 658 222 710 232 685 b 340 383 272 581 283 550 b 433 125 374 288 414 176 b 461 50 443 99 456 65 b 494 3 474 14 479 6 b 568 4 507 0 561 1 b 574 29 579 8 582 21 b 554 33 569 33 568 33 l 540 33 l 540 42 b 542 63 540 46 540 56 b 542 200 543 71 543 121 b 539 425 540 268 539 369 b 535 722 539 496 538 586 l 531 918 l 572 919 l 576 924 b 579 943 582 929 583 936 b 506 950 575 951 575 951 b 428 947 471 950 436 949 b 408 942 414 946 413 946 b 406 924 404 936 403 929 b 436 917 408 918 414 917 l 457 917 l 461 629 b 464 249 465 357 467 251 b 461 250 464 249 463 249 b 403 413 460 253 431 333 b 304 685 350 568 340 593 b 235 857 260 800 253 815 b 203 933 210 915 206 925 b 197 943 201 938 199 942 b 132 949 190 950 189 950 b 74 944 85 947 78 947 b 71 919 64 939 63 926 z "},"ñ":{"ha":651,"x_min":0,"x_max":0,"o":"m 75 931 b 101 926 79 926 81 926 b 124 926 113 926 122 926 b 128 926 125 926 126 926 b 132 857 129 926 131 914 b 138 746 133 818 136 768 b 143 424 140 696 144 486 b 140 321 143 399 142 353 b 139 203 140 289 139 236 b 139 94 139 169 139 121 b 139 39 139 68 139 43 l 140 31 l 119 31 b 86 14 92 31 86 28 b 97 1 86 8 92 3 b 236 -3 101 0 219 -3 b 263 15 256 -3 263 3 b 257 25 263 21 261 22 b 226 31 251 31 244 32 b 211 32 219 31 213 31 b 210 68 210 33 210 40 b 210 158 210 88 210 128 b 214 368 211 260 213 314 b 213 653 215 457 215 579 l 210 721 l 214 721 b 221 714 217 721 218 719 b 242 658 222 710 232 685 b 340 383 272 581 283 550 b 433 125 374 288 414 176 b 461 50 443 99 456 65 b 494 3 474 14 479 6 b 568 4 507 0 561 1 b 574 29 579 8 582 21 b 554 33 569 33 568 33 l 540 33 l 540 42 b 542 63 540 46 540 56 b 542 200 543 71 543 121 b 539 425 540 268 539 369 b 535 722 539 496 538 586 l 531 918 l 572 919 l 576 924 b 579 943 582 929 583 936 b 506 950 575 951 575 951 b 428 947 471 950 436 949 b 408 942 414 946 413 946 b 406 924 404 936 403 929 b 436 917 408 918 414 917 l 457 917 l 461 629 b 464 249 465 357 467 251 b 461 250 464 249 463 249 b 403 413 460 253 431 333 b 304 685 350 568 340 593 b 235 857 260 800 253 815 b 203 933 210 915 206 925 b 197 943 201 938 199 942 b 132 949 190 950 189 950 b 74 944 85 947 78 947 b 71 919 64 939 63 926 z "},"O":{"ha":579,"x_min":0,"x_max":0,"o":"m 214 965 b 119 857 171 944 140 908 b 90 750 108 828 96 782 b 76 310 72 642 65 419 b 119 108 85 236 103 151 b 207 3 140 54 167 22 b 308 -18 232 -10 271 -18 b 415 18 349 -18 382 -7 b 490 142 453 46 474 81 b 513 356 501 185 510 260 b 513 632 514 413 514 593 b 485 838 507 738 501 782 b 399 954 465 903 447 928 b 306 978 372 969 343 976 b 282 978 294 978 285 978 b 267 978 281 978 274 978 b 217 963 247 976 235 972 z m 397 864 b 431 729 411 839 426 778 b 440 579 435 692 438 642 l 442 550 l 433 551 b 203 553 393 556 240 557 b 169 550 196 551 181 550 l 149 549 l 150 571 b 157 657 151 604 156 651 b 164 689 158 660 161 674 b 203 829 174 756 186 803 b 322 900 233 879 271 901 b 351 896 335 900 342 899 b 401 861 375 888 394 874 z m 444 476 b 442 335 446 475 444 406 b 394 90 436 196 422 124 b 336 53 379 72 358 58 b 267 53 322 49 290 49 b 200 101 233 58 215 72 b 167 208 186 129 178 154 b 146 438 151 279 144 351 l 146 481 l 200 482 b 390 482 269 483 329 483 b 440 479 417 481 439 479 z "},"o":{"ha":579,"x_min":0,"x_max":0,"o":"m 214 965 b 119 857 171 944 140 908 b 90 750 108 828 96 782 b 76 310 72 642 65 419 b 119 108 85 236 103 151 b 207 3 140 54 167 22 b 308 -18 232 -10 271 -18 b 415 18 349 -18 382 -7 b 490 142 453 46 474 81 b 513 356 501 185 510 260 b 513 632 514 413 514 593 b 485 838 507 738 501 782 b 399 954 465 903 447 928 b 306 978 372 969 343 976 b 282 978 294 978 285 978 b 267 978 281 978 274 978 b 217 963 247 976 235 972 z m 397 864 b 431 729 411 839 426 778 b 440 579 435 692 438 642 l 442 550 l 433 551 b 203 553 393 556 240 557 b 169 550 196 551 181 550 l 149 549 l 150 571 b 157 657 151 604 156 651 b 164 689 158 660 161 674 b 203 829 174 756 186 803 b 322 900 233 879 271 901 b 351 896 335 900 342 899 b 401 861 375 888 394 874 z m 444 476 b 442 335 446 475 444 406 b 394 90 436 196 422 124 b 336 53 379 72 358 58 b 267 53 322 49 290 49 b 200 101 233 58 215 72 b 167 208 186 129 178 154 b 146 438 151 279 144 351 l 146 481 l 200 482 b 390 482 269 483 329 483 b 440 479 417 481 439 479 z "},"Ò":{"ha":579,"x_min":0,"x_max":0,"o":"m 214 965 b 119 857 171 944 140 908 b 90 750 108 828 96 782 b 76 310 72 642 65 419 b 119 108 85 236 103 151 b 207 3 140 54 167 22 b 308 -18 232 -10 271 -18 b 415 18 349 -18 382 -7 b 490 142 453 46 474 81 b 513 356 501 185 510 260 b 513 632 514 413 514 593 b 485 838 507 738 501 782 b 399 954 465 903 447 928 b 306 978 372 969 343 976 b 282 978 294 978 285 978 b 267 978 281 978 274 978 b 217 963 247 976 235 972 z m 397 864 b 431 729 411 839 426 778 b 440 579 435 692 438 642 l 442 550 l 433 551 b 203 553 393 556 240 557 b 169 550 196 551 181 550 l 149 549 l 150 571 b 157 657 151 604 156 651 b 164 689 158 660 161 674 b 203 829 174 756 186 803 b 322 900 233 879 271 901 b 351 896 335 900 342 899 b 401 861 375 888 394 874 z m 444 476 b 442 335 446 475 444 406 b 394 90 436 196 422 124 b 336 53 379 72 358 58 b 267 53 322 49 290 49 b 200 101 233 58 215 72 b 167 208 186 129 178 154 b 146 438 151 279 144 351 l 146 481 l 200 482 b 390 482 269 483 329 483 b 440 479 417 481 439 479 z "},"Ó":{"ha":579,"x_min":0,"x_max":0,"o":"m 214 965 b 119 857 171 944 140 908 b 90 750 108 828 96 782 b 76 310 72 642 65 419 b 119 108 85 236 103 151 b 207 3 140 54 167 22 b 308 -18 232 -10 271 -18 b 415 18 349 -18 382 -7 b 490 142 453 46 474 81 b 513 356 501 185 510 260 b 513 632 514 413 514 593 b 485 838 507 738 501 782 b 399 954 465 903 447 928 b 306 978 372 969 343 976 b 282 978 294 978 285 978 b 267 978 281 978 274 978 b 217 963 247 976 235 972 z m 397 864 b 431 729 411 839 426 778 b 440 579 435 692 438 642 l 442 550 l 433 551 b 203 553 393 556 240 557 b 169 550 196 551 181 550 l 149 549 l 150 571 b 157 657 151 604 156 651 b 164 689 158 660 161 674 b 203 829 174 756 186 803 b 322 900 233 879 271 901 b 351 896 335 900 342 899 b 401 861 375 888 394 874 z m 444 476 b 442 335 446 475 444 406 b 394 90 436 196 422 124 b 336 53 379 72 358 58 b 267 53 322 49 290 49 b 200 101 233 58 215 72 b 167 208 186 129 178 154 b 146 438 151 279 144 351 l 146 481 l 200 482 b 390 482 269 483 329 483 b 440 479 417 481 439 479 z "},"Ô":{"ha":579,"x_min":0,"x_max":0,"o":"m 214 965 b 119 857 171 944 140 908 b 90 750 108 828 96 782 b 76 310 72 642 65 419 b 119 108 85 236 103 151 b 207 3 140 54 167 22 b 308 -18 232 -10 271 -18 b 415 18 349 -18 382 -7 b 490 142 453 46 474 81 b 513 356 501 185 510 260 b 513 632 514 413 514 593 b 485 838 507 738 501 782 b 399 954 465 903 447 928 b 306 978 372 969 343 976 b 282 978 294 978 285 978 b 267 978 281 978 274 978 b 217 963 247 976 235 972 z m 397 864 b 431 729 411 839 426 778 b 440 579 435 692 438 642 l 442 550 l 433 551 b 203 553 393 556 240 557 b 169 550 196 551 181 550 l 149 549 l 150 571 b 157 657 151 604 156 651 b 164 689 158 660 161 674 b 203 829 174 756 186 803 b 322 900 233 879 271 901 b 351 896 335 900 342 899 b 401 861 375 888 394 874 z m 444 476 b 442 335 446 475 444 406 b 394 90 436 196 422 124 b 336 53 379 72 358 58 b 267 53 322 49 290 49 b 200 101 233 58 215 72 b 167 208 186 129 178 154 b 146 438 151 279 144 351 l 146 481 l 200 482 b 390 482 269 483 329 483 b 440 479 417 481 439 479 z "},"Õ":{"ha":579,"x_min":0,"x_max":0,"o":"m 214 965 b 119 857 171 944 140 908 b 90 750 108 828 96 782 b 76 310 72 642 65 419 b 119 108 85 236 103 151 b 207 3 140 54 167 22 b 308 -18 232 -10 271 -18 b 415 18 349 -18 382 -7 b 490 142 453 46 474 81 b 513 356 501 185 510 260 b 513 632 514 413 514 593 b 485 838 507 738 501 782 b 399 954 465 903 447 928 b 306 978 372 969 343 976 b 282 978 294 978 285 978 b 267 978 281 978 274 978 b 217 963 247 976 235 972 z m 397 864 b 431 729 411 839 426 778 b 440 579 435 692 438 642 l 442 550 l 433 551 b 203 553 393 556 240 557 b 169 550 196 551 181 550 l 149 549 l 150 571 b 157 657 151 604 156 651 b 164 689 158 660 161 674 b 203 829 174 756 186 803 b 322 900 233 879 271 901 b 351 896 335 900 342 899 b 401 861 375 888 394 874 z m 444 476 b 442 335 446 475 444 406 b 394 90 436 196 422 124 b 336 53 379 72 358 58 b 267 53 322 49 290 49 b 200 101 233 58 215 72 b 167 208 186 129 178 154 b 146 438 151 279 144 351 l 146 481 l 200 482 b 390 482 269 483 329 483 b 440 479 417 481 439 479 z "},"Ö":{"ha":579,"x_min":0,"x_max":0,"o":"m 214 965 b 119 857 171 944 140 908 b 90 750 108 828 96 782 b 76 310 72 642 65 419 b 119 108 85 236 103 151 b 207 3 140 54 167 22 b 308 -18 232 -10 271 -18 b 415 18 349 -18 382 -7 b 490 142 453 46 474 81 b 513 356 501 185 510 260 b 513 632 514 413 514 593 b 485 838 507 738 501 782 b 399 954 465 903 447 928 b 306 978 372 969 343 976 b 282 978 294 978 285 978 b 267 978 281 978 274 978 b 217 963 247 976 235 972 z m 397 864 b 431 729 411 839 426 778 b 440 579 435 692 438 642 l 442 550 l 433 551 b 203 553 393 556 240 557 b 169 550 196 551 181 550 l 149 549 l 150 571 b 157 657 151 604 156 651 b 164 689 158 660 161 674 b 203 829 174 756 186 803 b 322 900 233 879 271 901 b 351 896 335 900 342 899 b 401 861 375 888 394 874 z m 444 476 b 442 335 446 475 444 406 b 394 90 436 196 422 124 b 336 53 379 72 358 58 b 267 53 322 49 290 49 b 200 101 233 58 215 72 b 167 208 186 129 178 154 b 146 438 151 279 144 351 l 146 481 l 200 482 b 390 482 269 483 329 483 b 440 479 417 481 439 479 z "},"Ø":{"ha":579,"x_min":0,"x_max":0,"o":"m 214 965 b 119 857 171 944 140 908 b 90 750 108 828 96 782 b 76 310 72 642 65 419 b 119 108 85 236 103 151 b 207 3 140 54 167 22 b 308 -18 232 -10 271 -18 b 415 18 349 -18 382 -7 b 490 142 453 46 474 81 b 513 356 501 185 510 260 b 513 632 514 413 514 593 b 485 838 507 738 501 782 b 399 954 465 903 447 928 b 306 978 372 969 343 976 b 282 978 294 978 285 978 b 267 978 281 978 274 978 b 217 963 247 976 235 972 z m 397 864 b 431 729 411 839 426 778 b 440 579 435 692 438 642 l 442 550 l 433 551 b 203 553 393 556 240 557 b 169 550 196 551 181 550 l 149 549 l 150 571 b 157 657 151 604 156 651 b 164 689 158 660 161 674 b 203 829 174 756 186 803 b 322 900 233 879 271 901 b 351 896 335 900 342 899 b 401 861 375 888 394 874 z m 444 476 b 442 335 446 475 444 406 b 394 90 436 196 422 124 b 336 53 379 72 358 58 b 267 53 322 49 290 49 b 200 101 233 58 215 72 b 167 208 186 129 178 154 b 146 438 151 279 144 351 l 146 481 l 200 482 b 390 482 269 483 329 483 b 440 479 417 481 439 479 z "},"ò":{"ha":579,"x_min":0,"x_max":0,"o":"m 214 965 b 119 857 171 944 140 908 b 90 750 108 828 96 782 b 76 310 72 642 65 419 b 119 108 85 236 103 151 b 207 3 140 54 167 22 b 308 -18 232 -10 271 -18 b 415 18 349 -18 382 -7 b 490 142 453 46 474 81 b 513 356 501 185 510 260 b 513 632 514 413 514 593 b 485 838 507 738 501 782 b 399 954 465 903 447 928 b 306 978 372 969 343 976 b 282 978 294 978 285 978 b 267 978 281 978 274 978 b 217 963 247 976 235 972 z m 397 864 b 431 729 411 839 426 778 b 440 579 435 692 438 642 l 442 550 l 433 551 b 203 553 393 556 240 557 b 169 550 196 551 181 550 l 149 549 l 150 571 b 157 657 151 604 156 651 b 164 689 158 660 161 674 b 203 829 174 756 186 803 b 322 900 233 879 271 901 b 351 896 335 900 342 899 b 401 861 375 888 394 874 z m 444 476 b 442 335 446 475 444 406 b 394 90 436 196 422 124 b 336 53 379 72 358 58 b 267 53 322 49 290 49 b 200 101 233 58 215 72 b 167 208 186 129 178 154 b 146 438 151 279 144 351 l 146 481 l 200 482 b 390 482 269 483 329 483 b 440 479 417 481 439 479 z "},"ó":{"ha":579,"x_min":0,"x_max":0,"o":"m 214 965 b 119 857 171 944 140 908 b 90 750 108 828 96 782 b 76 310 72 642 65 419 b 119 108 85 236 103 151 b 207 3 140 54 167 22 b 308 -18 232 -10 271 -18 b 415 18 349 -18 382 -7 b 490 142 453 46 474 81 b 513 356 501 185 510 260 b 513 632 514 413 514 593 b 485 838 507 738 501 782 b 399 954 465 903 447 928 b 306 978 372 969 343 976 b 282 978 294 978 285 978 b 267 978 281 978 274 978 b 217 963 247 976 235 972 z m 397 864 b 431 729 411 839 426 778 b 440 579 435 692 438 642 l 442 550 l 433 551 b 203 553 393 556 240 557 b 169 550 196 551 181 550 l 149 549 l 150 571 b 157 657 151 604 156 651 b 164 689 158 660 161 674 b 203 829 174 756 186 803 b 322 900 233 879 271 901 b 351 896 335 900 342 899 b 401 861 375 888 394 874 z m 444 476 b 442 335 446 475 444 406 b 394 90 436 196 422 124 b 336 53 379 72 358 58 b 267 53 322 49 290 49 b 200 101 233 58 215 72 b 167 208 186 129 178 154 b 146 438 151 279 144 351 l 146 481 l 200 482 b 390 482 269 483 329 483 b 440 479 417 481 439 479 z "},"ô":{"ha":579,"x_min":0,"x_max":0,"o":"m 214 965 b 119 857 171 944 140 908 b 90 750 108 828 96 782 b 76 310 72 642 65 419 b 119 108 85 236 103 151 b 207 3 140 54 167 22 b 308 -18 232 -10 271 -18 b 415 18 349 -18 382 -7 b 490 142 453 46 474 81 b 513 356 501 185 510 260 b 513 632 514 413 514 593 b 485 838 507 738 501 782 b 399 954 465 903 447 928 b 306 978 372 969 343 976 b 282 978 294 978 285 978 b 267 978 281 978 274 978 b 217 963 247 976 235 972 z m 397 864 b 431 729 411 839 426 778 b 440 579 435 692 438 642 l 442 550 l 433 551 b 203 553 393 556 240 557 b 169 550 196 551 181 550 l 149 549 l 150 571 b 157 657 151 604 156 651 b 164 689 158 660 161 674 b 203 829 174 756 186 803 b 322 900 233 879 271 901 b 351 896 335 900 342 899 b 401 861 375 888 394 874 z m 444 476 b 442 335 446 475 444 406 b 394 90 436 196 422 124 b 336 53 379 72 358 58 b 267 53 322 49 290 49 b 200 101 233 58 215 72 b 167 208 186 129 178 154 b 146 438 151 279 144 351 l 146 481 l 200 482 b 390 482 269 483 329 483 b 440 479 417 481 439 479 z "},"õ":{"ha":579,"x_min":0,"x_max":0,"o":"m 214 965 b 119 857 171 944 140 908 b 90 750 108 828 96 782 b 76 310 72 642 65 419 b 119 108 85 236 103 151 b 207 3 140 54 167 22 b 308 -18 232 -10 271 -18 b 415 18 349 -18 382 -7 b 490 142 453 46 474 81 b 513 356 501 185 510 260 b 513 632 514 413 514 593 b 485 838 507 738 501 782 b 399 954 465 903 447 928 b 306 978 372 969 343 976 b 282 978 294 978 285 978 b 267 978 281 978 274 978 b 217 963 247 976 235 972 z m 397 864 b 431 729 411 839 426 778 b 440 579 435 692 438 642 l 442 550 l 433 551 b 203 553 393 556 240 557 b 169 550 196 551 181 550 l 149 549 l 150 571 b 157 657 151 604 156 651 b 164 689 158 660 161 674 b 203 829 174 756 186 803 b 322 900 233 879 271 901 b 351 896 335 900 342 899 b 401 861 375 888 394 874 z m 444 476 b 442 335 446 475 444 406 b 394 90 436 196 422 124 b 336 53 379 72 358 58 b 267 53 322 49 290 49 b 200 101 233 58 215 72 b 167 208 186 129 178 154 b 146 438 151 279 144 351 l 146 481 l 200 482 b 390 482 269 483 329 483 b 440 479 417 481 439 479 z "},"ö":{"ha":579,"x_min":0,"x_max":0,"o":"m 214 965 b 119 857 171 944 140 908 b 90 750 108 828 96 782 b 76 310 72 642 65 419 b 119 108 85 236 103 151 b 207 3 140 54 167 22 b 308 -18 232 -10 271 -18 b 415 18 349 -18 382 -7 b 490 142 453 46 474 81 b 513 356 501 185 510 260 b 513 632 514 413 514 593 b 485 838 507 738 501 782 b 399 954 465 903 447 928 b 306 978 372 969 343 976 b 282 978 294 978 285 978 b 267 978 281 978 274 978 b 217 963 247 976 235 972 z m 397 864 b 431 729 411 839 426 778 b 440 579 435 692 438 642 l 442 550 l 433 551 b 203 553 393 556 240 557 b 169 550 196 551 181 550 l 149 549 l 150 571 b 157 657 151 604 156 651 b 164 689 158 660 161 674 b 203 829 174 756 186 803 b 322 900 233 879 271 901 b 351 896 335 900 342 899 b 401 861 375 888 394 874 z m 444 476 b 442 335 446 475 444 406 b 394 90 436 196 422 124 b 336 53 379 72 358 58 b 267 53 322 49 290 49 b 200 101 233 58 215 72 b 167 208 186 129 178 154 b 146 438 151 279 144 351 l 146 481 l 200 482 b 390 482 269 483 329 483 b 440 479 417 481 439 479 z "},"ø":{"ha":579,"x_min":0,"x_max":0,"o":"m 214 965 b 119 857 171 944 140 908 b 90 750 108 828 96 782 b 76 310 72 642 65 419 b 119 108 85 236 103 151 b 207 3 140 54 167 22 b 308 -18 232 -10 271 -18 b 415 18 349 -18 382 -7 b 490 142 453 46 474 81 b 513 356 501 185 510 260 b 513 632 514 413 514 593 b 485 838 507 738 501 782 b 399 954 465 903 447 928 b 306 978 372 969 343 976 b 282 978 294 978 285 978 b 267 978 281 978 274 978 b 217 963 247 976 235 972 z m 397 864 b 431 729 411 839 426 778 b 440 579 435 692 438 642 l 442 550 l 433 551 b 203 553 393 556 240 557 b 169 550 196 551 181 550 l 149 549 l 150 571 b 157 657 151 604 156 651 b 164 689 158 660 161 674 b 203 829 174 756 186 803 b 322 900 233 879 271 901 b 351 896 335 900 342 899 b 401 861 375 888 394 874 z m 444 476 b 442 335 446 475 444 406 b 394 90 436 196 422 124 b 336 53 379 72 358 58 b 267 53 322 49 290 49 b 200 101 233 58 215 72 b 167 208 186 129 178 154 b 146 438 151 279 144 351 l 146 481 l 200 482 b 390 482 269 483 329 483 b 440 479 417 481 439 479 z "},"P":{"ha":610,"x_min":0,"x_max":0,"o":"m 131 969 b 79 964 100 967 85 965 b 74 939 68 960 65 947 b 86 935 78 935 79 935 b 125 939 94 935 117 938 l 129 940 l 131 863 b 133 753 131 819 132 771 b 138 275 139 649 140 453 b 135 101 136 214 135 136 b 138 33 135 46 135 38 l 140 28 l 131 26 b 111 26 125 26 117 26 b 89 17 99 26 92 24 b 93 0 86 10 88 4 l 97 -4 l 171 -4 b 257 6 253 -4 253 -4 b 257 19 260 11 260 13 b 226 29 253 28 249 29 l 207 29 l 207 76 b 210 254 207 101 208 182 b 213 439 211 326 213 410 l 213 493 l 249 493 b 328 500 286 493 311 494 b 471 578 376 514 432 544 b 515 626 490 593 503 607 b 539 679 526 644 533 658 b 543 721 543 692 543 696 b 532 788 543 751 542 758 b 474 881 519 824 499 857 b 367 949 443 910 407 933 b 261 972 329 963 300 969 b 161 972 236 974 178 974 b 133 969 156 972 143 971 z m 354 875 b 429 824 388 860 410 844 b 464 764 447 806 454 793 b 471 728 469 747 471 743 b 469 703 471 718 471 707 b 415 628 464 676 446 651 b 349 589 393 611 369 597 b 333 582 343 586 336 583 b 297 574 329 579 317 576 b 250 571 288 572 274 571 b 213 571 231 571 214 571 b 208 604 208 569 208 572 b 199 899 208 668 203 846 l 197 911 l 222 910 b 274 906 240 910 254 908 b 351 882 307 900 326 894 z "},"p":{"ha":610,"x_min":0,"x_max":0,"o":"m 131 969 b 79 964 100 967 85 965 b 74 939 68 960 65 947 b 86 935 78 935 79 935 b 125 939 94 935 117 938 l 129 940 l 131 863 b 133 753 131 819 132 771 b 138 275 139 649 140 453 b 135 101 136 214 135 136 b 138 33 135 46 135 38 l 140 28 l 131 26 b 111 26 125 26 117 26 b 89 17 99 26 92 24 b 93 0 86 10 88 4 l 97 -4 l 171 -4 b 257 6 253 -4 253 -4 b 257 19 260 11 260 13 b 226 29 253 28 249 29 l 207 29 l 207 76 b 210 254 207 101 208 182 b 213 439 211 326 213 410 l 213 493 l 249 493 b 328 500 286 493 311 494 b 471 578 376 514 432 544 b 515 626 490 593 503 607 b 539 679 526 644 533 658 b 543 721 543 692 543 696 b 532 788 543 751 542 758 b 474 881 519 824 499 857 b 367 949 443 910 407 933 b 261 972 329 963 300 969 b 161 972 236 974 178 974 b 133 969 156 972 143 971 z m 354 875 b 429 824 388 860 410 844 b 464 764 447 806 454 793 b 471 728 469 747 471 743 b 469 703 471 718 471 707 b 415 628 464 676 446 651 b 349 589 393 611 369 597 b 333 582 343 586 336 583 b 297 574 329 579 317 576 b 250 571 288 572 274 571 b 213 571 231 571 214 571 b 208 604 208 569 208 572 b 199 899 208 668 203 846 l 197 911 l 222 910 b 274 906 240 910 254 908 b 351 882 307 900 326 894 z "},"Q":{"ha":590,"x_min":0,"x_max":0,"o":"m 174 921 b 101 793 143 890 124 856 b 69 561 78 728 69 667 b 78 324 69 510 75 358 b 90 232 81 299 86 258 b 117 133 94 210 110 154 b 188 26 133 86 156 53 b 247 -8 207 10 226 -1 l 264 -14 l 267 -94 l 256 -94 b 235 -101 243 -94 239 -96 b 244 -124 229 -110 233 -121 b 275 -126 247 -125 261 -126 b 333 -126 289 -126 315 -126 b 371 -125 354 -126 368 -126 b 382 -108 378 -122 382 -115 b 356 -92 382 -96 375 -92 l 342 -92 l 340 -10 l 357 -4 b 424 32 386 6 408 17 b 463 83 433 42 457 72 b 492 153 469 96 483 129 b 522 333 507 200 518 265 b 517 679 526 386 522 624 b 492 807 513 719 501 776 b 388 944 474 867 439 913 b 276 969 356 964 308 975 b 178 918 238 964 207 947 z m 367 871 b 426 785 396 849 415 821 b 447 668 435 758 443 710 b 453 368 450 639 454 403 b 431 200 450 301 443 251 b 393 103 421 163 406 122 b 388 93 390 99 388 94 b 342 60 388 89 353 63 b 339 64 339 58 339 58 b 336 139 339 68 338 101 b 333 217 335 176 333 211 l 333 225 l 342 225 b 365 250 361 225 372 236 b 297 258 360 260 358 260 b 231 247 236 257 235 257 b 238 229 228 240 231 233 b 256 226 242 226 244 226 l 269 226 l 268 213 b 265 88 267 179 265 110 b 264 63 265 74 265 63 b 228 86 261 63 238 78 b 179 178 206 107 193 131 b 153 307 167 218 158 257 b 146 475 149 343 144 444 b 149 540 146 483 147 513 b 171 760 153 665 157 706 b 213 853 181 797 197 833 b 253 886 221 864 240 879 b 319 892 274 897 294 899 b 363 871 336 888 347 882 z "},"q":{"ha":590,"x_min":0,"x_max":0,"o":"m 174 921 b 101 793 143 890 124 856 b 69 561 78 728 69 667 b 78 324 69 510 75 358 b 90 232 81 299 86 258 b 117 133 94 210 110 154 b 188 26 133 86 156 53 b 247 -8 207 10 226 -1 l 264 -14 l 267 -94 l 256 -94 b 235 -101 243 -94 239 -96 b 244 -124 229 -110 233 -121 b 275 -126 247 -125 261 -126 b 333 -126 289 -126 315 -126 b 371 -125 354 -126 368 -126 b 382 -108 378 -122 382 -115 b 356 -92 382 -96 375 -92 l 342 -92 l 340 -10 l 357 -4 b 424 32 386 6 408 17 b 463 83 433 42 457 72 b 492 153 469 96 483 129 b 522 333 507 200 518 265 b 517 679 526 386 522 624 b 492 807 513 719 501 776 b 388 944 474 867 439 913 b 276 969 356 964 308 975 b 178 918 238 964 207 947 z m 367 871 b 426 785 396 849 415 821 b 447 668 435 758 443 710 b 453 368 450 639 454 403 b 431 200 450 301 443 251 b 393 103 421 163 406 122 b 388 93 390 99 388 94 b 342 60 388 89 353 63 b 339 64 339 58 339 58 b 336 139 339 68 338 101 b 333 217 335 176 333 211 l 333 225 l 342 225 b 365 250 361 225 372 236 b 297 258 360 260 358 260 b 231 247 236 257 235 257 b 238 229 228 240 231 233 b 256 226 242 226 244 226 l 269 226 l 268 213 b 265 88 267 179 265 110 b 264 63 265 74 265 63 b 228 86 261 63 238 78 b 179 178 206 107 193 131 b 153 307 167 218 158 257 b 146 475 149 343 144 444 b 149 540 146 483 147 513 b 171 760 153 665 157 706 b 213 853 181 797 197 833 b 253 886 221 864 240 879 b 319 892 274 897 294 899 b 363 871 336 888 347 882 z "},"R":{"ha":660,"x_min":0,"x_max":0,"o":"m 71 953 b 72 943 69 949 69 947 b 81 935 74 940 78 936 b 104 933 86 932 89 932 b 122 935 114 935 122 935 b 122 876 122 935 122 908 b 128 190 121 801 125 313 b 128 83 128 163 128 115 l 128 26 l 117 25 b 83 17 96 24 89 22 b 81 -1 78 11 76 6 b 110 -8 85 -8 90 -10 b 203 -4 131 -6 146 -6 b 258 4 250 -3 253 -3 b 257 22 261 8 261 18 b 222 29 251 29 244 31 l 203 28 l 201 42 b 196 347 200 58 197 204 l 194 456 l 203 457 b 281 472 228 460 256 465 b 286 471 283 474 285 474 b 349 328 288 467 325 382 b 439 108 393 226 413 178 b 467 26 463 43 468 26 b 449 24 467 26 458 25 b 426 19 439 22 429 21 b 421 -4 417 15 414 3 l 425 -8 l 497 -8 b 574 -8 536 -8 571 -8 b 578 22 589 -6 592 15 b 560 25 575 24 569 25 l 546 25 l 542 35 b 532 60 539 40 535 51 b 426 326 492 171 468 232 b 403 382 418 346 407 371 b 369 450 399 393 383 424 b 344 500 356 476 344 499 b 354 508 344 501 349 504 b 428 572 379 522 404 544 b 476 739 472 624 488 676 b 429 850 469 779 456 811 b 360 915 408 881 393 894 b 229 960 326 936 281 951 b 121 963 213 963 156 964 b 68 947 85 961 71 957 z m 349 829 b 404 725 376 804 396 768 b 404 672 407 710 407 685 b 356 599 397 649 382 625 b 242 533 325 568 283 544 b 192 525 228 529 193 524 b 192 664 192 525 192 588 b 189 842 192 754 190 817 b 190 890 186 892 186 890 b 214 888 192 890 203 889 b 350 828 272 879 311 863 z "},"r":{"ha":660,"x_min":0,"x_max":0,"o":"m 71 953 b 72 943 69 949 69 947 b 81 935 74 940 78 936 b 104 933 86 932 89 932 b 122 935 114 935 122 935 b 122 876 122 935 122 908 b 128 190 121 801 125 313 b 128 83 128 163 128 115 l 128 26 l 117 25 b 83 17 96 24 89 22 b 81 -1 78 11 76 6 b 110 -8 85 -8 90 -10 b 203 -4 131 -6 146 -6 b 258 4 250 -3 253 -3 b 257 22 261 8 261 18 b 222 29 251 29 244 31 l 203 28 l 201 42 b 196 347 200 58 197 204 l 194 456 l 203 457 b 281 472 228 460 256 465 b 286 471 283 474 285 474 b 349 328 288 467 325 382 b 439 108 393 226 413 178 b 467 26 463 43 468 26 b 449 24 467 26 458 25 b 426 19 439 22 429 21 b 421 -4 417 15 414 3 l 425 -8 l 497 -8 b 574 -8 536 -8 571 -8 b 578 22 589 -6 592 15 b 560 25 575 24 569 25 l 546 25 l 542 35 b 532 60 539 40 535 51 b 426 326 492 171 468 232 b 403 382 418 346 407 371 b 369 450 399 393 383 424 b 344 500 356 476 344 499 b 354 508 344 501 349 504 b 428 572 379 522 404 544 b 476 739 472 624 488 676 b 429 850 469 779 456 811 b 360 915 408 881 393 894 b 229 960 326 936 281 951 b 121 963 213 963 156 964 b 68 947 85 961 71 957 z m 349 829 b 404 725 376 804 396 768 b 404 672 407 710 407 685 b 356 599 397 649 382 625 b 242 533 325 568 283 544 b 192 525 228 529 193 524 b 192 664 192 525 192 588 b 189 842 192 754 190 817 b 190 890 186 892 186 890 b 214 888 192 890 203 889 b 350 828 272 879 311 863 z "},"S":{"ha":542,"x_min":0,"x_max":0,"o":"m 150 913 b 106 832 128 889 114 865 b 101 785 101 818 101 815 b 106 735 101 754 101 750 b 157 632 114 699 129 668 b 274 511 169 615 208 575 b 351 413 317 468 332 449 b 390 293 368 383 383 335 b 375 135 401 226 396 172 b 300 69 358 104 329 79 b 246 65 285 64 261 63 b 144 169 196 76 161 113 b 158 289 133 210 138 247 b 193 343 167 306 186 336 b 204 339 194 344 199 343 b 226 333 215 332 219 331 b 238 349 232 336 238 343 b 219 369 238 356 233 361 b 194 385 211 374 200 381 b 126 424 176 397 132 422 b 108 408 117 425 108 418 b 125 390 108 401 113 397 b 135 382 132 386 135 383 b 122 357 135 381 129 369 b 76 246 92 306 82 282 b 76 172 74 226 74 190 b 114 75 82 140 97 101 b 185 11 133 47 157 25 b 408 49 263 -29 346 -15 b 475 236 456 96 478 160 b 401 474 471 324 444 410 b 306 581 379 507 354 535 b 188 715 231 651 204 682 b 183 835 168 753 167 800 b 229 881 193 854 207 868 b 321 889 263 899 296 901 b 372 779 354 874 378 824 b 354 715 369 760 358 721 b 343 719 354 715 349 717 b 317 721 329 726 324 726 b 311 711 313 718 311 715 b 339 688 311 703 315 700 b 374 668 351 681 367 672 b 417 647 407 649 411 647 b 433 664 425 647 433 656 b 419 682 433 671 429 676 l 413 686 l 419 701 b 443 819 439 747 447 788 b 353 958 436 879 400 935 b 272 972 329 969 300 975 b 147 914 225 968 181 947 z "},"s":{"ha":542,"x_min":0,"x_max":0,"o":"m 150 913 b 106 832 128 889 114 865 b 101 785 101 818 101 815 b 106 735 101 754 101 750 b 157 632 114 699 129 668 b 274 511 169 615 208 575 b 351 413 317 468 332 449 b 390 293 368 383 383 335 b 375 135 401 226 396 172 b 300 69 358 104 329 79 b 246 65 285 64 261 63 b 144 169 196 76 161 113 b 158 289 133 210 138 247 b 193 343 167 306 186 336 b 204 339 194 344 199 343 b 226 333 215 332 219 331 b 238 349 232 336 238 343 b 219 369 238 356 233 361 b 194 385 211 374 200 381 b 126 424 176 397 132 422 b 108 408 117 425 108 418 b 125 390 108 401 113 397 b 135 382 132 386 135 383 b 122 357 135 381 129 369 b 76 246 92 306 82 282 b 76 172 74 226 74 190 b 114 75 82 140 97 101 b 185 11 133 47 157 25 b 408 49 263 -29 346 -15 b 475 236 456 96 478 160 b 401 474 471 324 444 410 b 306 581 379 507 354 535 b 188 715 231 651 204 682 b 183 835 168 753 167 800 b 229 881 193 854 207 868 b 321 889 263 899 296 901 b 372 779 354 874 378 824 b 354 715 369 760 358 721 b 343 719 354 715 349 717 b 317 721 329 726 324 726 b 311 711 313 718 311 715 b 339 688 311 703 315 700 b 374 668 351 681 367 672 b 417 647 407 649 411 647 b 433 664 425 647 433 656 b 419 682 433 671 429 676 l 413 686 l 419 701 b 443 819 439 747 447 788 b 353 958 436 879 400 935 b 272 972 329 969 300 975 b 147 914 225 968 181 947 z "},"T":{"ha":721,"x_min":0,"x_max":0,"o":"m 274 968 b 269 947 267 965 264 953 b 296 940 274 942 278 940 b 317 940 306 940 315 940 b 319 742 319 939 319 938 l 319 544 l 292 544 b 253 544 276 544 258 544 b 213 544 246 544 228 544 b 165 542 197 544 176 543 b 126 539 156 540 138 539 l 104 538 l 104 551 b 89 585 104 576 100 585 b 74 558 78 585 74 578 b 71 518 74 551 72 533 b 68 463 69 503 68 478 b 69 429 67 435 67 433 b 78 422 71 426 75 424 b 88 424 82 421 83 421 b 99 453 96 428 97 433 b 99 468 99 461 99 468 b 207 468 99 468 147 468 l 315 468 l 317 417 b 319 253 317 389 318 315 b 322 89 321 190 322 117 b 322 33 322 61 322 36 l 322 29 l 306 29 b 276 17 285 29 279 26 b 276 4 274 11 274 10 b 363 -8 282 -7 281 -7 b 439 -7 408 -8 438 -8 b 446 10 443 -4 446 3 b 425 28 446 18 440 24 b 404 31 418 29 408 31 b 394 36 396 31 396 31 b 389 410 393 43 389 335 l 389 468 l 443 468 b 517 468 472 468 506 468 b 575 467 528 468 554 467 l 613 465 l 611 461 b 615 428 608 442 610 433 b 640 432 622 421 636 422 b 644 488 642 435 643 449 b 639 586 647 575 647 582 b 621 583 633 589 625 588 b 615 557 617 579 617 578 l 614 540 l 578 542 b 490 543 557 542 518 543 b 386 547 425 544 388 546 b 385 689 385 547 385 611 b 383 860 385 772 385 842 b 381 915 382 876 381 901 l 381 940 l 399 940 b 432 958 425 940 432 944 b 429 968 432 963 431 967 b 356 975 424 975 421 975 b 282 975 322 975 289 975 b 267 974 275 975 268 974 z "},"t":{"ha":721,"x_min":0,"x_max":0,"o":"m 274 968 b 269 947 267 965 264 953 b 296 940 274 942 278 940 b 317 940 306 940 315 940 b 319 742 319 939 319 938 l 319 544 l 292 544 b 253 544 276 544 258 544 b 213 544 246 544 228 544 b 165 542 197 544 176 543 b 126 539 156 540 138 539 l 104 538 l 104 551 b 89 585 104 576 100 585 b 74 558 78 585 74 578 b 71 518 74 551 72 533 b 68 463 69 503 68 478 b 69 429 67 435 67 433 b 78 422 71 426 75 424 b 88 424 82 421 83 421 b 99 453 96 428 97 433 b 99 468 99 461 99 468 b 207 468 99 468 147 468 l 315 468 l 317 417 b 319 253 317 389 318 315 b 322 89 321 190 322 117 b 322 33 322 61 322 36 l 322 29 l 306 29 b 276 17 285 29 279 26 b 276 4 274 11 274 10 b 363 -8 282 -7 281 -7 b 439 -7 408 -8 438 -8 b 446 10 443 -4 446 3 b 425 28 446 18 440 24 b 404 31 418 29 408 31 b 394 36 396 31 396 31 b 389 410 393 43 389 335 l 389 468 l 443 468 b 517 468 472 468 506 468 b 575 467 528 468 554 467 l 613 465 l 611 461 b 615 428 608 442 610 433 b 640 432 622 421 636 422 b 644 488 642 435 643 449 b 639 586 647 575 647 582 b 621 583 633 589 625 588 b 615 557 617 579 617 578 l 614 540 l 578 542 b 490 543 557 542 518 543 b 386 547 425 544 388 546 b 385 689 385 547 385 611 b 383 860 385 772 385 842 b 381 915 382 876 381 901 l 381 940 l 399 940 b 432 958 425 940 432 944 b 429 968 432 963 431 967 b 356 975 424 975 421 975 b 282 975 322 975 289 975 b 267 974 275 975 268 974 z "},"U":{"ha":653,"x_min":0,"x_max":0,"o":"m 113 968 b 71 956 81 965 75 964 b 71 946 69 951 69 950 b 99 938 74 938 79 936 l 115 939 l 115 928 b 115 892 115 922 115 906 b 113 815 115 878 114 843 b 107 721 111 788 108 744 b 114 340 99 596 100 506 b 133 186 121 261 125 226 b 214 21 149 110 176 54 b 263 -11 228 8 250 -6 b 319 -22 279 -18 300 -22 b 351 -18 335 -22 339 -22 b 465 83 400 -4 442 33 b 504 232 482 118 493 161 b 521 456 514 294 517 340 b 524 615 524 550 524 550 b 529 786 524 675 525 717 b 531 881 531 810 531 840 l 529 940 l 549 940 b 572 943 560 940 569 942 b 582 957 576 944 582 953 b 571 972 582 963 576 969 b 503 972 567 974 557 974 b 401 965 433 971 407 969 b 399 943 393 960 392 950 l 403 939 l 453 940 l 456 917 b 456 799 458 892 458 835 b 449 603 451 743 449 658 b 439 308 449 515 443 356 b 415 164 435 264 424 196 b 346 58 400 107 381 76 b 301 53 331 50 319 49 b 261 75 286 57 275 63 b 231 118 247 88 239 100 b 192 307 210 161 200 210 b 178 575 182 415 178 501 b 188 767 178 642 179 658 b 188 932 189 782 189 885 l 188 939 l 231 940 l 235 946 b 239 957 239 950 239 951 b 233 968 239 963 238 964 l 228 972 l 185 971 b 142 971 161 971 142 971 b 114 968 142 971 129 969 z "},"u":{"ha":653,"x_min":0,"x_max":0,"o":"m 113 968 b 71 956 81 965 75 964 b 71 946 69 951 69 950 b 99 938 74 938 79 936 l 115 939 l 115 928 b 115 892 115 922 115 906 b 113 815 115 878 114 843 b 107 721 111 788 108 744 b 114 340 99 596 100 506 b 133 186 121 261 125 226 b 214 21 149 110 176 54 b 263 -11 228 8 250 -6 b 319 -22 279 -18 300 -22 b 351 -18 335 -22 339 -22 b 465 83 400 -4 442 33 b 504 232 482 118 493 161 b 521 456 514 294 517 340 b 524 615 524 550 524 550 b 529 786 524 675 525 717 b 531 881 531 810 531 840 l 529 940 l 549 940 b 572 943 560 940 569 942 b 582 957 576 944 582 953 b 571 972 582 963 576 969 b 503 972 567 974 557 974 b 401 965 433 971 407 969 b 399 943 393 960 392 950 l 403 939 l 453 940 l 456 917 b 456 799 458 892 458 835 b 449 603 451 743 449 658 b 439 308 449 515 443 356 b 415 164 435 264 424 196 b 346 58 400 107 381 76 b 301 53 331 50 319 49 b 261 75 286 57 275 63 b 231 118 247 88 239 100 b 192 307 210 161 200 210 b 178 575 182 415 178 501 b 188 767 178 642 179 658 b 188 932 189 782 189 885 l 188 939 l 231 940 l 235 946 b 239 957 239 950 239 951 b 233 968 239 963 238 964 l 228 972 l 185 971 b 142 971 161 971 142 971 b 114 968 142 971 129 969 z "},"Ù":{"ha":653,"x_min":0,"x_max":0,"o":"m 113 968 b 71 956 81 965 75 964 b 71 946 69 951 69 950 b 99 938 74 938 79 936 l 115 939 l 115 928 b 115 892 115 922 115 906 b 113 815 115 878 114 843 b 107 721 111 788 108 744 b 114 340 99 596 100 506 b 133 186 121 261 125 226 b 214 21 149 110 176 54 b 263 -11 228 8 250 -6 b 319 -22 279 -18 300 -22 b 351 -18 335 -22 339 -22 b 465 83 400 -4 442 33 b 504 232 482 118 493 161 b 521 456 514 294 517 340 b 524 615 524 550 524 550 b 529 786 524 675 525 717 b 531 881 531 810 531 840 l 529 940 l 549 940 b 572 943 560 940 569 942 b 582 957 576 944 582 953 b 571 972 582 963 576 969 b 503 972 567 974 557 974 b 401 965 433 971 407 969 b 399 943 393 960 392 950 l 403 939 l 453 940 l 456 917 b 456 799 458 892 458 835 b 449 603 451 743 449 658 b 439 308 449 515 443 356 b 415 164 435 264 424 196 b 346 58 400 107 381 76 b 301 53 331 50 319 49 b 261 75 286 57 275 63 b 231 118 247 88 239 100 b 192 307 210 161 200 210 b 178 575 182 415 178 501 b 188 767 178 642 179 658 b 188 932 189 782 189 885 l 188 939 l 231 940 l 235 946 b 239 957 239 950 239 951 b 233 968 239 963 238 964 l 228 972 l 185 971 b 142 971 161 971 142 971 b 114 968 142 971 129 969 z "},"Ú":{"ha":653,"x_min":0,"x_max":0,"o":"m 113 968 b 71 956 81 965 75 964 b 71 946 69 951 69 950 b 99 938 74 938 79 936 l 115 939 l 115 928 b 115 892 115 922 115 906 b 113 815 115 878 114 843 b 107 721 111 788 108 744 b 114 340 99 596 100 506 b 133 186 121 261 125 226 b 214 21 149 110 176 54 b 263 -11 228 8 250 -6 b 319 -22 279 -18 300 -22 b 351 -18 335 -22 339 -22 b 465 83 400 -4 442 33 b 504 232 482 118 493 161 b 521 456 514 294 517 340 b 524 615 524 550 524 550 b 529 786 524 675 525 717 b 531 881 531 810 531 840 l 529 940 l 549 940 b 572 943 560 940 569 942 b 582 957 576 944 582 953 b 571 972 582 963 576 969 b 503 972 567 974 557 974 b 401 965 433 971 407 969 b 399 943 393 960 392 950 l 403 939 l 453 940 l 456 917 b 456 799 458 892 458 835 b 449 603 451 743 449 658 b 439 308 449 515 443 356 b 415 164 435 264 424 196 b 346 58 400 107 381 76 b 301 53 331 50 319 49 b 261 75 286 57 275 63 b 231 118 247 88 239 100 b 192 307 210 161 200 210 b 178 575 182 415 178 501 b 188 767 178 642 179 658 b 188 932 189 782 189 885 l 188 939 l 231 940 l 235 946 b 239 957 239 950 239 951 b 233 968 239 963 238 964 l 228 972 l 185 971 b 142 971 161 971 142 971 b 114 968 142 971 129 969 z "},"Û":{"ha":653,"x_min":0,"x_max":0,"o":"m 113 968 b 71 956 81 965 75 964 b 71 946 69 951 69 950 b 99 938 74 938 79 936 l 115 939 l 115 928 b 115 892 115 922 115 906 b 113 815 115 878 114 843 b 107 721 111 788 108 744 b 114 340 99 596 100 506 b 133 186 121 261 125 226 b 214 21 149 110 176 54 b 263 -11 228 8 250 -6 b 319 -22 279 -18 300 -22 b 351 -18 335 -22 339 -22 b 465 83 400 -4 442 33 b 504 232 482 118 493 161 b 521 456 514 294 517 340 b 524 615 524 550 524 550 b 529 786 524 675 525 717 b 531 881 531 810 531 840 l 529 940 l 549 940 b 572 943 560 940 569 942 b 582 957 576 944 582 953 b 571 972 582 963 576 969 b 503 972 567 974 557 974 b 401 965 433 971 407 969 b 399 943 393 960 392 950 l 403 939 l 453 940 l 456 917 b 456 799 458 892 458 835 b 449 603 451 743 449 658 b 439 308 449 515 443 356 b 415 164 435 264 424 196 b 346 58 400 107 381 76 b 301 53 331 50 319 49 b 261 75 286 57 275 63 b 231 118 247 88 239 100 b 192 307 210 161 200 210 b 178 575 182 415 178 501 b 188 767 178 642 179 658 b 188 932 189 782 189 885 l 188 939 l 231 940 l 235 946 b 239 957 239 950 239 951 b 233 968 239 963 238 964 l 228 972 l 185 971 b 142 971 161 971 142 971 b 114 968 142 971 129 969 z "},"Ü":{"ha":653,"x_min":0,"x_max":0,"o":"m 113 968 b 71 956 81 965 75 964 b 71 946 69 951 69 950 b 99 938 74 938 79 936 l 115 939 l 115 928 b 115 892 115 922 115 906 b 113 815 115 878 114 843 b 107 721 111 788 108 744 b 114 340 99 596 100 506 b 133 186 121 261 125 226 b 214 21 149 110 176 54 b 263 -11 228 8 250 -6 b 319 -22 279 -18 300 -22 b 351 -18 335 -22 339 -22 b 465 83 400 -4 442 33 b 504 232 482 118 493 161 b 521 456 514 294 517 340 b 524 615 524 550 524 550 b 529 786 524 675 525 717 b 531 881 531 810 531 840 l 529 940 l 549 940 b 572 943 560 940 569 942 b 582 957 576 944 582 953 b 571 972 582 963 576 969 b 503 972 567 974 557 974 b 401 965 433 971 407 969 b 399 943 393 960 392 950 l 403 939 l 453 940 l 456 917 b 456 799 458 892 458 835 b 449 603 451 743 449 658 b 439 308 449 515 443 356 b 415 164 435 264 424 196 b 346 58 400 107 381 76 b 301 53 331 50 319 49 b 261 75 286 57 275 63 b 231 118 247 88 239 100 b 192 307 210 161 200 210 b 178 575 182 415 178 501 b 188 767 178 642 179 658 b 188 932 189 782 189 885 l 188 939 l 231 940 l 235 946 b 239 957 239 950 239 951 b 233 968 239 963 238 964 l 228 972 l 185 971 b 142 971 161 971 142 971 b 114 968 142 971 129 969 z "},"ù":{"ha":653,"x_min":0,"x_max":0,"o":"m 113 968 b 71 956 81 965 75 964 b 71 946 69 951 69 950 b 99 938 74 938 79 936 l 115 939 l 115 928 b 115 892 115 922 115 906 b 113 815 115 878 114 843 b 107 721 111 788 108 744 b 114 340 99 596 100 506 b 133 186 121 261 125 226 b 214 21 149 110 176 54 b 263 -11 228 8 250 -6 b 319 -22 279 -18 300 -22 b 351 -18 335 -22 339 -22 b 465 83 400 -4 442 33 b 504 232 482 118 493 161 b 521 456 514 294 517 340 b 524 615 524 550 524 550 b 529 786 524 675 525 717 b 531 881 531 810 531 840 l 529 940 l 549 940 b 572 943 560 940 569 942 b 582 957 576 944 582 953 b 571 972 582 963 576 969 b 503 972 567 974 557 974 b 401 965 433 971 407 969 b 399 943 393 960 392 950 l 403 939 l 453 940 l 456 917 b 456 799 458 892 458 835 b 449 603 451 743 449 658 b 439 308 449 515 443 356 b 415 164 435 264 424 196 b 346 58 400 107 381 76 b 301 53 331 50 319 49 b 261 75 286 57 275 63 b 231 118 247 88 239 100 b 192 307 210 161 200 210 b 178 575 182 415 178 501 b 188 767 178 642 179 658 b 188 932 189 782 189 885 l 188 939 l 231 940 l 235 946 b 239 957 239 950 239 951 b 233 968 239 963 238 964 l 228 972 l 185 971 b 142 971 161 971 142 971 b 114 968 142 971 129 969 z "},"ú":{"ha":653,"x_min":0,"x_max":0,"o":"m 113 968 b 71 956 81 965 75 964 b 71 946 69 951 69 950 b 99 938 74 938 79 936 l 115 939 l 115 928 b 115 892 115 922 115 906 b 113 815 115 878 114 843 b 107 721 111 788 108 744 b 114 340 99 596 100 506 b 133 186 121 261 125 226 b 214 21 149 110 176 54 b 263 -11 228 8 250 -6 b 319 -22 279 -18 300 -22 b 351 -18 335 -22 339 -22 b 465 83 400 -4 442 33 b 504 232 482 118 493 161 b 521 456 514 294 517 340 b 524 615 524 550 524 550 b 529 786 524 675 525 717 b 531 881 531 810 531 840 l 529 940 l 549 940 b 572 943 560 940 569 942 b 582 957 576 944 582 953 b 571 972 582 963 576 969 b 503 972 567 974 557 974 b 401 965 433 971 407 969 b 399 943 393 960 392 950 l 403 939 l 453 940 l 456 917 b 456 799 458 892 458 835 b 449 603 451 743 449 658 b 439 308 449 515 443 356 b 415 164 435 264 424 196 b 346 58 400 107 381 76 b 301 53 331 50 319 49 b 261 75 286 57 275 63 b 231 118 247 88 239 100 b 192 307 210 161 200 210 b 178 575 182 415 178 501 b 188 767 178 642 179 658 b 188 932 189 782 189 885 l 188 939 l 231 940 l 235 946 b 239 957 239 950 239 951 b 233 968 239 963 238 964 l 228 972 l 185 971 b 142 971 161 971 142 971 b 114 968 142 971 129 969 z "},"û":{"ha":653,"x_min":0,"x_max":0,"o":"m 113 968 b 71 956 81 965 75 964 b 71 946 69 951 69 950 b 99 938 74 938 79 936 l 115 939 l 115 928 b 115 892 115 922 115 906 b 113 815 115 878 114 843 b 107 721 111 788 108 744 b 114 340 99 596 100 506 b 133 186 121 261 125 226 b 214 21 149 110 176 54 b 263 -11 228 8 250 -6 b 319 -22 279 -18 300 -22 b 351 -18 335 -22 339 -22 b 465 83 400 -4 442 33 b 504 232 482 118 493 161 b 521 456 514 294 517 340 b 524 615 524 550 524 550 b 529 786 524 675 525 717 b 531 881 531 810 531 840 l 529 940 l 549 940 b 572 943 560 940 569 942 b 582 957 576 944 582 953 b 571 972 582 963 576 969 b 503 972 567 974 557 974 b 401 965 433 971 407 969 b 399 943 393 960 392 950 l 403 939 l 453 940 l 456 917 b 456 799 458 892 458 835 b 449 603 451 743 449 658 b 439 308 449 515 443 356 b 415 164 435 264 424 196 b 346 58 400 107 381 76 b 301 53 331 50 319 49 b 261 75 286 57 275 63 b 231 118 247 88 239 100 b 192 307 210 161 200 210 b 178 575 182 415 178 501 b 188 767 178 642 179 658 b 188 932 189 782 189 885 l 188 939 l 231 940 l 235 946 b 239 957 239 950 239 951 b 233 968 239 963 238 964 l 228 972 l 185 971 b 142 971 161 971 142 971 b 114 968 142 971 129 969 z "},"ü":{"ha":653,"x_min":0,"x_max":0,"o":"m 113 968 b 71 956 81 965 75 964 b 71 946 69 951 69 950 b 99 938 74 938 79 936 l 115 939 l 115 928 b 115 892 115 922 115 906 b 113 815 115 878 114 843 b 107 721 111 788 108 744 b 114 340 99 596 100 506 b 133 186 121 261 125 226 b 214 21 149 110 176 54 b 263 -11 228 8 250 -6 b 319 -22 279 -18 300 -22 b 351 -18 335 -22 339 -22 b 465 83 400 -4 442 33 b 504 232 482 118 493 161 b 521 456 514 294 517 340 b 524 615 524 550 524 550 b 529 786 524 675 525 717 b 531 881 531 810 531 840 l 529 940 l 549 940 b 572 943 560 940 569 942 b 582 957 576 944 582 953 b 571 972 582 963 576 969 b 503 972 567 974 557 974 b 401 965 433 971 407 969 b 399 943 393 960 392 950 l 403 939 l 453 940 l 456 917 b 456 799 458 892 458 835 b 449 603 451 743 449 658 b 439 308 449 515 443 356 b 415 164 435 264 424 196 b 346 58 400 107 381 76 b 301 53 331 50 319 49 b 261 75 286 57 275 63 b 231 118 247 88 239 100 b 192 307 210 161 200 210 b 178 575 182 415 178 501 b 188 767 178 642 179 658 b 188 932 189 782 189 885 l 188 939 l 231 940 l 235 946 b 239 957 239 950 239 951 b 233 968 239 963 238 964 l 228 972 l 185 971 b 142 971 161 971 142 971 b 114 968 142 971 129 969 z "},"V":{"ha":686,"x_min":0,"x_max":0,"o":"m 78 960 b 75 936 69 954 68 943 l 79 932 l 101 932 b 124 929 122 932 122 932 b 129 899 124 928 126 914 b 139 849 132 883 136 861 b 149 808 142 836 146 818 b 188 628 153 790 181 661 b 236 401 199 572 222 460 b 250 339 238 393 244 365 b 321 47 278 214 311 75 l 325 33 l 304 33 b 276 31 286 33 281 33 b 269 14 269 26 267 21 b 342 3 272 3 272 3 b 418 3 375 3 410 3 b 449 8 436 1 444 3 b 449 29 453 14 453 24 b 415 36 444 35 438 36 l 396 36 l 399 44 b 435 214 406 69 418 128 b 465 357 450 288 453 299 b 500 522 486 454 492 479 b 533 689 518 615 522 636 b 560 808 540 721 551 775 b 582 900 568 842 578 883 b 600 942 592 946 590 942 b 613 944 604 942 610 943 b 613 972 622 950 622 965 b 554 975 608 975 603 975 b 492 975 524 975 496 975 b 482 949 478 972 472 958 b 500 944 486 944 488 944 b 515 944 507 944 514 944 b 488 817 517 943 517 944 b 465 717 481 786 471 742 b 454 665 460 692 456 668 b 444 615 453 663 449 640 b 393 371 424 510 415 469 b 369 260 383 326 381 315 b 357 214 360 215 360 214 b 351 225 354 214 354 215 b 328 324 347 243 332 307 b 315 376 326 328 321 351 b 256 653 289 492 274 565 b 199 910 231 774 208 875 b 193 933 196 919 193 931 l 192 939 l 206 939 b 224 942 215 939 221 940 b 224 971 236 949 236 965 b 164 972 221 972 207 972 b 94 972 133 972 101 972 b 79 969 88 972 81 971 z "},"v":{"ha":686,"x_min":0,"x_max":0,"o":"m 78 960 b 75 936 69 954 68 943 l 79 932 l 101 932 b 124 929 122 932 122 932 b 129 899 124 928 126 914 b 139 849 132 883 136 861 b 149 808 142 836 146 818 b 188 628 153 790 181 661 b 236 401 199 572 222 460 b 250 339 238 393 244 365 b 321 47 278 214 311 75 l 325 33 l 304 33 b 276 31 286 33 281 33 b 269 14 269 26 267 21 b 342 3 272 3 272 3 b 418 3 375 3 410 3 b 449 8 436 1 444 3 b 449 29 453 14 453 24 b 415 36 444 35 438 36 l 396 36 l 399 44 b 435 214 406 69 418 128 b 465 357 450 288 453 299 b 500 522 486 454 492 479 b 533 689 518 615 522 636 b 560 808 540 721 551 775 b 582 900 568 842 578 883 b 600 942 592 946 590 942 b 613 944 604 942 610 943 b 613 972 622 950 622 965 b 554 975 608 975 603 975 b 492 975 524 975 496 975 b 482 949 478 972 472 958 b 500 944 486 944 488 944 b 515 944 507 944 514 944 b 488 817 517 943 517 944 b 465 717 481 786 471 742 b 454 665 460 692 456 668 b 444 615 453 663 449 640 b 393 371 424 510 415 469 b 369 260 383 326 381 315 b 357 214 360 215 360 214 b 351 225 354 214 354 215 b 328 324 347 243 332 307 b 315 376 326 328 321 351 b 256 653 289 492 274 565 b 199 910 231 774 208 875 b 193 933 196 919 193 931 l 192 939 l 206 939 b 224 942 215 939 221 940 b 224 971 236 949 236 965 b 164 972 221 972 207 972 b 94 972 133 972 101 972 b 79 969 88 972 81 971 z "},"W":{"ha":856,"x_min":0,"x_max":0,"o":"m 111 961 l 78 960 l 74 956 b 74 938 68 950 68 943 b 96 932 78 933 78 933 b 115 932 107 932 115 932 b 118 899 115 932 117 917 b 149 656 122 851 133 765 b 165 532 158 582 160 568 b 238 133 188 364 206 267 b 256 38 247 93 257 39 b 232 36 256 38 244 36 b 206 31 210 35 208 35 b 203 14 201 25 200 19 b 282 3 207 4 206 4 b 358 1 321 1 356 1 b 368 7 361 1 365 4 b 374 19 372 11 374 14 b 369 31 374 25 374 26 b 349 35 365 35 365 35 l 332 35 l 333 42 b 335 51 333 46 335 50 b 338 71 335 53 336 61 b 367 189 340 89 360 165 b 401 306 378 228 399 297 b 407 322 403 311 406 318 l 408 329 l 410 325 b 419 290 411 322 415 307 b 433 238 424 274 431 250 b 454 160 436 225 446 190 b 479 72 463 129 474 90 b 486 39 485 53 488 39 b 464 36 485 39 475 38 b 442 31 446 35 446 35 b 442 11 436 24 436 17 l 446 7 l 531 7 b 619 8 589 7 617 7 b 618 39 632 14 632 35 b 593 40 615 40 604 40 b 572 40 582 40 572 40 b 578 78 572 40 575 60 b 599 185 582 99 585 114 b 611 244 604 211 610 238 b 617 276 613 251 615 265 b 633 368 628 336 631 353 b 654 475 638 393 644 429 b 664 531 658 497 663 522 b 697 699 674 582 689 658 b 735 889 718 794 721 810 b 740 928 738 908 740 926 b 757 931 740 931 740 931 b 783 942 776 931 781 932 b 782 953 785 947 785 949 b 775 960 781 956 778 958 b 700 961 772 961 754 961 l 629 961 l 625 957 b 621 940 619 953 618 947 b 649 931 624 933 631 931 l 664 931 l 663 922 b 643 807 661 910 646 822 b 629 740 642 800 633 760 b 592 553 615 675 601 608 b 576 478 588 529 581 496 b 563 407 572 460 567 428 b 540 286 551 350 547 326 b 528 222 536 267 531 238 b 521 186 525 207 522 190 l 519 179 l 515 194 b 503 240 513 203 507 224 b 444 481 467 374 446 463 l 444 486 l 458 488 b 476 490 471 488 474 488 b 471 517 483 499 481 511 b 440 518 467 519 463 519 b 349 511 413 517 357 513 b 344 483 335 508 332 490 b 358 481 346 482 353 481 b 369 478 368 481 369 481 b 364 447 369 476 367 463 b 333 335 357 418 344 372 b 293 204 304 235 294 204 b 290 213 293 204 292 208 b 279 265 289 217 285 240 b 267 328 274 290 268 318 b 251 414 261 358 254 397 b 246 450 250 422 247 439 b 233 540 243 469 238 508 b 226 590 232 549 229 571 b 200 792 219 642 208 724 b 190 851 197 808 193 835 b 178 926 185 881 178 922 b 193 928 178 928 182 928 b 222 935 211 928 218 929 b 222 956 226 940 226 950 b 204 963 219 960 211 963 b 171 963 203 963 188 963 b 107 960 154 963 125 961 z "},"w":{"ha":856,"x_min":0,"x_max":0,"o":"m 111 961 l 78 960 l 74 956 b 74 938 68 950 68 943 b 96 932 78 933 78 933 b 115 932 107 932 115 932 b 118 899 115 932 117 917 b 149 656 122 851 133 765 b 165 532 158 582 160 568 b 238 133 188 364 206 267 b 256 38 247 93 257 39 b 232 36 256 38 244 36 b 206 31 210 35 208 35 b 203 14 201 25 200 19 b 282 3 207 4 206 4 b 358 1 321 1 356 1 b 368 7 361 1 365 4 b 374 19 372 11 374 14 b 369 31 374 25 374 26 b 349 35 365 35 365 35 l 332 35 l 333 42 b 335 51 333 46 335 50 b 338 71 335 53 336 61 b 367 189 340 89 360 165 b 401 306 378 228 399 297 b 407 322 403 311 406 318 l 408 329 l 410 325 b 419 290 411 322 415 307 b 433 238 424 274 431 250 b 454 160 436 225 446 190 b 479 72 463 129 474 90 b 486 39 485 53 488 39 b 464 36 485 39 475 38 b 442 31 446 35 446 35 b 442 11 436 24 436 17 l 446 7 l 531 7 b 619 8 589 7 617 7 b 618 39 632 14 632 35 b 593 40 615 40 604 40 b 572 40 582 40 572 40 b 578 78 572 40 575 60 b 599 185 582 99 585 114 b 611 244 604 211 610 238 b 617 276 613 251 615 265 b 633 368 628 336 631 353 b 654 475 638 393 644 429 b 664 531 658 497 663 522 b 697 699 674 582 689 658 b 735 889 718 794 721 810 b 740 928 738 908 740 926 b 757 931 740 931 740 931 b 783 942 776 931 781 932 b 782 953 785 947 785 949 b 775 960 781 956 778 958 b 700 961 772 961 754 961 l 629 961 l 625 957 b 621 940 619 953 618 947 b 649 931 624 933 631 931 l 664 931 l 663 922 b 643 807 661 910 646 822 b 629 740 642 800 633 760 b 592 553 615 675 601 608 b 576 478 588 529 581 496 b 563 407 572 460 567 428 b 540 286 551 350 547 326 b 528 222 536 267 531 238 b 521 186 525 207 522 190 l 519 179 l 515 194 b 503 240 513 203 507 224 b 444 481 467 374 446 463 l 444 486 l 458 488 b 476 490 471 488 474 488 b 471 517 483 499 481 511 b 440 518 467 519 463 519 b 349 511 413 517 357 513 b 344 483 335 508 332 490 b 358 481 346 482 353 481 b 369 478 368 481 369 481 b 364 447 369 476 367 463 b 333 335 357 418 344 372 b 293 204 304 235 294 204 b 290 213 293 204 292 208 b 279 265 289 217 285 240 b 267 328 274 290 268 318 b 251 414 261 358 254 397 b 246 450 250 422 247 439 b 233 540 243 469 238 508 b 226 590 232 549 229 571 b 200 792 219 642 208 724 b 190 851 197 808 193 835 b 178 926 185 881 178 922 b 193 928 178 928 182 928 b 222 935 211 928 218 929 b 222 956 226 940 226 950 b 204 963 219 960 211 963 b 171 963 203 963 188 963 b 107 960 154 963 125 961 z "},"X":{"ha":651,"x_min":0,"x_max":0,"o":"m 111 965 b 101 938 97 961 93 947 b 125 933 106 933 106 933 b 144 932 142 933 144 933 b 153 910 144 931 149 921 b 175 851 157 899 167 872 b 200 786 183 831 194 801 b 231 703 210 760 214 749 b 247 658 235 692 242 672 b 293 521 263 615 293 525 b 288 503 293 519 290 511 b 256 414 276 472 261 431 b 183 211 226 331 217 304 b 132 72 163 153 147 111 b 122 44 128 60 124 47 l 121 39 l 100 38 b 75 32 79 36 79 36 b 74 14 69 26 69 21 b 82 8 75 11 78 10 b 158 7 86 7 114 7 b 239 15 233 7 233 7 b 239 33 242 19 242 29 b 213 42 235 39 228 42 l 199 42 l 203 54 b 219 100 206 61 213 82 b 239 153 226 118 235 142 b 260 210 243 164 253 189 b 281 267 267 231 276 256 b 324 390 289 289 315 364 l 329 408 l 336 388 b 392 218 343 365 383 243 b 446 47 417 144 447 49 b 421 46 446 47 435 46 l 397 44 l 393 40 b 393 21 388 35 388 26 b 492 15 399 15 403 15 b 572 18 561 15 568 15 b 579 24 575 19 578 22 b 578 42 582 28 582 38 b 543 49 572 49 565 50 l 524 47 l 519 54 b 494 125 517 58 506 90 b 382 469 419 353 400 413 b 369 510 378 483 372 501 l 365 524 l 371 538 b 388 585 374 546 381 567 b 417 665 400 619 413 656 b 442 728 418 668 429 696 b 472 811 453 760 467 797 b 492 864 478 825 486 849 b 517 939 506 907 515 935 b 528 942 518 942 519 942 b 557 949 544 942 551 943 b 551 975 565 957 563 971 b 492 975 547 976 536 976 b 424 972 461 974 431 972 b 406 967 411 971 410 971 b 403 949 400 961 399 954 b 429 942 407 943 414 942 b 442 942 436 942 442 942 b 438 933 442 942 440 938 b 410 865 428 913 415 881 b 379 779 407 857 393 818 b 342 676 365 740 349 694 b 329 643 335 658 329 643 b 322 654 328 642 325 646 b 275 785 319 663 285 760 b 257 832 272 792 264 813 b 235 892 250 851 240 878 b 215 943 225 914 215 940 b 231 943 215 943 222 943 b 251 946 243 943 247 943 b 256 974 263 953 264 965 l 251 978 l 221 978 b 153 978 204 978 174 978 b 110 975 132 978 113 976 z "},"x":{"ha":651,"x_min":0,"x_max":0,"o":"m 111 965 b 101 938 97 961 93 947 b 125 933 106 933 106 933 b 144 932 142 933 144 933 b 153 910 144 931 149 921 b 175 851 157 899 167 872 b 200 786 183 831 194 801 b 231 703 210 760 214 749 b 247 658 235 692 242 672 b 293 521 263 615 293 525 b 288 503 293 519 290 511 b 256 414 276 472 261 431 b 183 211 226 331 217 304 b 132 72 163 153 147 111 b 122 44 128 60 124 47 l 121 39 l 100 38 b 75 32 79 36 79 36 b 74 14 69 26 69 21 b 82 8 75 11 78 10 b 158 7 86 7 114 7 b 239 15 233 7 233 7 b 239 33 242 19 242 29 b 213 42 235 39 228 42 l 199 42 l 203 54 b 219 100 206 61 213 82 b 239 153 226 118 235 142 b 260 210 243 164 253 189 b 281 267 267 231 276 256 b 324 390 289 289 315 364 l 329 408 l 336 388 b 392 218 343 365 383 243 b 446 47 417 144 447 49 b 421 46 446 47 435 46 l 397 44 l 393 40 b 393 21 388 35 388 26 b 492 15 399 15 403 15 b 572 18 561 15 568 15 b 579 24 575 19 578 22 b 578 42 582 28 582 38 b 543 49 572 49 565 50 l 524 47 l 519 54 b 494 125 517 58 506 90 b 382 469 419 353 400 413 b 369 510 378 483 372 501 l 365 524 l 371 538 b 388 585 374 546 381 567 b 417 665 400 619 413 656 b 442 728 418 668 429 696 b 472 811 453 760 467 797 b 492 864 478 825 486 849 b 517 939 506 907 515 935 b 528 942 518 942 519 942 b 557 949 544 942 551 943 b 551 975 565 957 563 971 b 492 975 547 976 536 976 b 424 972 461 974 431 972 b 406 967 411 971 410 971 b 403 949 400 961 399 954 b 429 942 407 943 414 942 b 442 942 436 942 442 942 b 438 933 442 942 440 938 b 410 865 428 913 415 881 b 379 779 407 857 393 818 b 342 676 365 740 349 694 b 329 643 335 658 329 643 b 322 654 328 642 325 646 b 275 785 319 663 285 760 b 257 832 272 792 264 813 b 235 892 250 851 240 878 b 215 943 225 914 215 940 b 231 943 215 943 222 943 b 251 946 243 943 247 943 b 256 974 263 953 264 965 l 251 978 l 221 978 b 153 978 204 978 174 978 b 110 975 132 978 113 976 z "},"Y":{"ha":663,"x_min":0,"x_max":0,"o":"m 69 950 b 93 938 69 940 72 939 b 122 929 118 936 119 936 b 132 910 124 926 128 918 b 144 881 136 901 142 889 b 178 804 147 872 163 838 b 219 707 193 771 211 726 b 242 656 228 688 238 664 b 292 547 250 636 281 571 l 300 531 l 299 408 b 294 242 297 342 296 267 b 290 51 293 190 290 82 l 290 31 l 281 29 b 260 29 275 29 265 29 b 244 26 251 29 249 29 b 247 0 235 19 236 6 b 329 -3 251 -3 261 -3 b 411 0 401 -3 407 -3 b 411 29 422 7 422 24 b 386 31 407 31 403 31 l 365 31 l 365 43 b 371 253 368 154 369 210 b 374 365 372 281 374 332 b 376 457 374 408 375 436 b 379 500 378 474 379 493 b 388 542 381 519 383 535 b 419 619 393 551 403 576 b 499 819 438 668 464 736 b 524 882 504 832 515 860 b 542 928 532 904 540 925 b 558 932 544 932 544 932 b 592 938 578 932 588 933 b 588 964 600 944 597 958 b 550 965 583 967 579 967 b 481 963 532 964 501 963 b 433 951 442 961 438 960 b 436 935 431 944 432 939 b 456 931 440 931 440 931 b 471 931 464 931 471 931 b 461 910 471 931 467 921 b 408 786 444 875 428 836 b 389 740 404 776 396 756 b 349 636 376 710 360 665 b 342 618 344 626 342 618 b 290 733 340 617 311 681 b 217 901 269 786 236 861 b 200 935 207 919 200 935 b 210 935 200 935 204 935 b 229 944 221 935 225 938 b 228 960 232 950 232 954 b 172 968 222 968 222 968 b 110 968 147 968 119 968 b 86 967 94 969 90 969 b 75 949 79 963 75 956 z "},"y":{"ha":663,"x_min":0,"x_max":0,"o":"m 69 950 b 93 938 69 940 72 939 b 122 929 118 936 119 936 b 132 910 124 926 128 918 b 144 881 136 901 142 889 b 178 804 147 872 163 838 b 219 707 193 771 211 726 b 242 656 228 688 238 664 b 292 547 250 636 281 571 l 300 531 l 299 408 b 294 242 297 342 296 267 b 290 51 293 190 290 82 l 290 31 l 281 29 b 260 29 275 29 265 29 b 244 26 251 29 249 29 b 247 0 235 19 236 6 b 329 -3 251 -3 261 -3 b 411 0 401 -3 407 -3 b 411 29 422 7 422 24 b 386 31 407 31 403 31 l 365 31 l 365 43 b 371 253 368 154 369 210 b 374 365 372 281 374 332 b 376 457 374 408 375 436 b 379 500 378 474 379 493 b 388 542 381 519 383 535 b 419 619 393 551 403 576 b 499 819 438 668 464 736 b 524 882 504 832 515 860 b 542 928 532 904 540 925 b 558 932 544 932 544 932 b 592 938 578 932 588 933 b 588 964 600 944 597 958 b 550 965 583 967 579 967 b 481 963 532 964 501 963 b 433 951 442 961 438 960 b 436 935 431 944 432 939 b 456 931 440 931 440 931 b 471 931 464 931 471 931 b 461 910 471 931 467 921 b 408 786 444 875 428 836 b 389 740 404 776 396 756 b 349 636 376 710 360 665 b 342 618 344 626 342 618 b 290 733 340 617 311 681 b 217 901 269 786 236 861 b 200 935 207 919 200 935 b 210 935 200 935 204 935 b 229 944 221 935 225 938 b 228 960 232 950 232 954 b 172 968 222 968 222 968 b 110 968 147 968 119 968 b 86 967 94 969 90 969 b 75 949 79 963 75 956 z "},"Ý":{"ha":663,"x_min":0,"x_max":0,"o":"m 69 950 b 93 938 69 940 72 939 b 122 929 118 936 119 936 b 132 910 124 926 128 918 b 144 881 136 901 142 889 b 178 804 147 872 163 838 b 219 707 193 771 211 726 b 242 656 228 688 238 664 b 292 547 250 636 281 571 l 300 531 l 299 408 b 294 242 297 342 296 267 b 290 51 293 190 290 82 l 290 31 l 281 29 b 260 29 275 29 265 29 b 244 26 251 29 249 29 b 247 0 235 19 236 6 b 329 -3 251 -3 261 -3 b 411 0 401 -3 407 -3 b 411 29 422 7 422 24 b 386 31 407 31 403 31 l 365 31 l 365 43 b 371 253 368 154 369 210 b 374 365 372 281 374 332 b 376 457 374 408 375 436 b 379 500 378 474 379 493 b 388 542 381 519 383 535 b 419 619 393 551 403 576 b 499 819 438 668 464 736 b 524 882 504 832 515 860 b 542 928 532 904 540 925 b 558 932 544 932 544 932 b 592 938 578 932 588 933 b 588 964 600 944 597 958 b 550 965 583 967 579 967 b 481 963 532 964 501 963 b 433 951 442 961 438 960 b 436 935 431 944 432 939 b 456 931 440 931 440 931 b 471 931 464 931 471 931 b 461 910 471 931 467 921 b 408 786 444 875 428 836 b 389 740 404 776 396 756 b 349 636 376 710 360 665 b 342 618 344 626 342 618 b 290 733 340 617 311 681 b 217 901 269 786 236 861 b 200 935 207 919 200 935 b 210 935 200 935 204 935 b 229 944 221 935 225 938 b 228 960 232 950 232 954 b 172 968 222 968 222 968 b 110 968 147 968 119 968 b 86 967 94 969 90 969 b 75 949 79 963 75 956 z "},"ý":{"ha":663,"x_min":0,"x_max":0,"o":"m 69 950 b 93 938 69 940 72 939 b 122 929 118 936 119 936 b 132 910 124 926 128 918 b 144 881 136 901 142 889 b 178 804 147 872 163 838 b 219 707 193 771 211 726 b 242 656 228 688 238 664 b 292 547 250 636 281 571 l 300 531 l 299 408 b 294 242 297 342 296 267 b 290 51 293 190 290 82 l 290 31 l 281 29 b 260 29 275 29 265 29 b 244 26 251 29 249 29 b 247 0 235 19 236 6 b 329 -3 251 -3 261 -3 b 411 0 401 -3 407 -3 b 411 29 422 7 422 24 b 386 31 407 31 403 31 l 365 31 l 365 43 b 371 253 368 154 369 210 b 374 365 372 281 374 332 b 376 457 374 408 375 436 b 379 500 378 474 379 493 b 388 542 381 519 383 535 b 419 619 393 551 403 576 b 499 819 438 668 464 736 b 524 882 504 832 515 860 b 542 928 532 904 540 925 b 558 932 544 932 544 932 b 592 938 578 932 588 933 b 588 964 600 944 597 958 b 550 965 583 967 579 967 b 481 963 532 964 501 963 b 433 951 442 961 438 960 b 436 935 431 944 432 939 b 456 931 440 931 440 931 b 471 931 464 931 471 931 b 461 910 471 931 467 921 b 408 786 444 875 428 836 b 389 740 404 776 396 756 b 349 636 376 710 360 665 b 342 618 344 626 342 618 b 290 733 340 617 311 681 b 217 901 269 786 236 861 b 200 935 207 919 200 935 b 210 935 200 935 204 935 b 229 944 221 935 225 938 b 228 960 232 950 232 954 b 172 968 222 968 222 968 b 110 968 147 968 119 968 b 86 967 94 969 90 969 b 75 949 79 963 75 956 z "},"ÿ":{"ha":663,"x_min":0,"x_max":0,"o":"m 69 950 b 93 938 69 940 72 939 b 122 929 118 936 119 936 b 132 910 124 926 128 918 b 144 881 136 901 142 889 b 178 804 147 872 163 838 b 219 707 193 771 211 726 b 242 656 228 688 238 664 b 292 547 250 636 281 571 l 300 531 l 299 408 b 294 242 297 342 296 267 b 290 51 293 190 290 82 l 290 31 l 281 29 b 260 29 275 29 265 29 b 244 26 251 29 249 29 b 247 0 235 19 236 6 b 329 -3 251 -3 261 -3 b 411 0 401 -3 407 -3 b 411 29 422 7 422 24 b 386 31 407 31 403 31 l 365 31 l 365 43 b 371 253 368 154 369 210 b 374 365 372 281 374 332 b 376 457 374 408 375 436 b 379 500 378 474 379 493 b 388 542 381 519 383 535 b 419 619 393 551 403 576 b 499 819 438 668 464 736 b 524 882 504 832 515 860 b 542 928 532 904 540 925 b 558 932 544 932 544 932 b 592 938 578 932 588 933 b 588 964 600 944 597 958 b 550 965 583 967 579 967 b 481 963 532 964 501 963 b 433 951 442 961 438 960 b 436 935 431 944 432 939 b 456 931 440 931 440 931 b 471 931 464 931 471 931 b 461 910 471 931 467 921 b 408 786 444 875 428 836 b 389 740 404 776 396 756 b 349 636 376 710 360 665 b 342 618 344 626 342 618 b 290 733 340 617 311 681 b 217 901 269 786 236 861 b 200 935 207 919 200 935 b 210 935 200 935 204 935 b 229 944 221 935 225 938 b 228 960 232 950 232 954 b 172 968 222 968 222 968 b 110 968 147 968 119 968 b 86 967 94 969 90 969 b 75 949 79 963 75 956 z "},"Ÿ":{"ha":663,"x_min":0,"x_max":0,"o":"m 69 950 b 93 938 69 940 72 939 b 122 929 118 936 119 936 b 132 910 124 926 128 918 b 144 881 136 901 142 889 b 178 804 147 872 163 838 b 219 707 193 771 211 726 b 242 656 228 688 238 664 b 292 547 250 636 281 571 l 300 531 l 299 408 b 294 242 297 342 296 267 b 290 51 293 190 290 82 l 290 31 l 281 29 b 260 29 275 29 265 29 b 244 26 251 29 249 29 b 247 0 235 19 236 6 b 329 -3 251 -3 261 -3 b 411 0 401 -3 407 -3 b 411 29 422 7 422 24 b 386 31 407 31 403 31 l 365 31 l 365 43 b 371 253 368 154 369 210 b 374 365 372 281 374 332 b 376 457 374 408 375 436 b 379 500 378 474 379 493 b 388 542 381 519 383 535 b 419 619 393 551 403 576 b 499 819 438 668 464 736 b 524 882 504 832 515 860 b 542 928 532 904 540 925 b 558 932 544 932 544 932 b 592 938 578 932 588 933 b 588 964 600 944 597 958 b 550 965 583 967 579 967 b 481 963 532 964 501 963 b 433 951 442 961 438 960 b 436 935 431 944 432 939 b 456 931 440 931 440 931 b 471 931 464 931 471 931 b 461 910 471 931 467 921 b 408 786 444 875 428 836 b 389 740 404 776 396 756 b 349 636 376 710 360 665 b 342 618 344 626 342 618 b 290 733 340 617 311 681 b 217 901 269 786 236 861 b 200 935 207 919 200 935 b 210 935 200 935 204 935 b 229 944 221 935 225 938 b 228 960 232 950 232 954 b 172 968 222 968 222 968 b 110 968 147 968 119 968 b 86 967 94 969 90 969 b 75 949 79 963 75 956 z "},"Z":{"ha":601,"x_min":0,"x_max":0,"o":"m 143 994 b 140 929 140 989 140 986 l 140 868 l 146 863 b 158 858 151 857 153 857 b 168 863 163 858 165 860 b 172 883 172 867 172 868 l 172 900 l 196 901 b 240 901 208 901 229 901 b 325 900 251 901 290 900 b 449 896 404 899 447 897 b 431 863 449 896 440 881 b 328 643 396 796 369 740 b 283 543 311 604 285 546 b 229 542 282 542 268 542 l 176 542 l 175 547 b 175 561 175 550 175 557 b 153 588 175 583 167 593 b 144 510 143 583 143 586 l 146 442 l 150 438 b 169 433 156 432 163 431 b 181 460 178 438 181 444 l 181 472 l 215 471 b 250 471 235 471 250 471 b 242 451 250 471 246 463 b 201 358 238 440 219 399 b 146 229 183 318 158 260 b 113 149 133 199 118 163 b 94 108 107 135 99 117 b 78 71 90 100 83 83 b 67 26 65 43 64 38 b 92 -1 69 13 75 7 l 106 -8 l 126 -8 b 185 -6 138 -8 164 -7 b 279 -3 206 -4 249 -3 b 458 7 372 -1 449 3 b 461 -11 461 8 461 7 b 464 -36 461 -28 461 -32 b 490 -39 469 -46 482 -47 l 494 -35 l 494 31 b 485 107 494 103 494 103 b 474 108 481 110 478 110 b 463 82 465 106 463 100 l 463 67 l 454 65 b 424 65 450 65 436 65 b 160 61 368 68 194 65 b 153 63 156 61 153 61 b 164 90 153 64 158 76 b 192 156 169 104 182 133 b 226 236 201 178 217 214 b 254 301 236 258 249 288 b 310 432 264 325 283 372 b 325 463 317 447 324 461 b 383 464 326 464 339 464 l 440 464 l 440 446 b 451 417 440 425 442 421 b 471 421 458 414 465 415 b 474 443 474 425 474 426 b 464 568 475 475 468 560 b 450 576 461 574 457 576 b 435 550 439 576 435 569 b 432 535 435 538 435 536 b 394 535 431 535 414 535 l 360 535 l 365 547 b 383 588 368 554 376 572 b 399 622 390 603 397 618 b 463 763 408 646 446 729 b 493 825 474 785 488 813 b 511 865 499 838 507 856 b 521 931 525 894 528 914 b 492 960 517 943 503 957 b 244 963 483 963 285 964 b 169 954 200 960 176 957 l 164 953 l 164 965 b 158 990 164 981 163 986 b 143 993 154 994 150 996 b 136 986 140 992 138 989 z "},"z":{"ha":601,"x_min":0,"x_max":0,"o":"m 143 994 b 140 929 140 989 140 986 l 140 868 l 146 863 b 158 858 151 857 153 857 b 168 863 163 858 165 860 b 172 883 172 867 172 868 l 172 900 l 196 901 b 240 901 208 901 229 901 b 325 900 251 901 290 900 b 449 896 404 899 447 897 b 431 863 449 896 440 881 b 328 643 396 796 369 740 b 283 543 311 604 285 546 b 229 542 282 542 268 542 l 176 542 l 175 547 b 175 561 175 550 175 557 b 153 588 175 583 167 593 b 144 510 143 583 143 586 l 146 442 l 150 438 b 169 433 156 432 163 431 b 181 460 178 438 181 444 l 181 472 l 215 471 b 250 471 235 471 250 471 b 242 451 250 471 246 463 b 201 358 238 440 219 399 b 146 229 183 318 158 260 b 113 149 133 199 118 163 b 94 108 107 135 99 117 b 78 71 90 100 83 83 b 67 26 65 43 64 38 b 92 -1 69 13 75 7 l 106 -8 l 126 -8 b 185 -6 138 -8 164 -7 b 279 -3 206 -4 249 -3 b 458 7 372 -1 449 3 b 461 -11 461 8 461 7 b 464 -36 461 -28 461 -32 b 490 -39 469 -46 482 -47 l 494 -35 l 494 31 b 485 107 494 103 494 103 b 474 108 481 110 478 110 b 463 82 465 106 463 100 l 463 67 l 454 65 b 424 65 450 65 436 65 b 160 61 368 68 194 65 b 153 63 156 61 153 61 b 164 90 153 64 158 76 b 192 156 169 104 182 133 b 226 236 201 178 217 214 b 254 301 236 258 249 288 b 310 432 264 325 283 372 b 325 463 317 447 324 461 b 383 464 326 464 339 464 l 440 464 l 440 446 b 451 417 440 425 442 421 b 471 421 458 414 465 415 b 474 443 474 425 474 426 b 464 568 475 475 468 560 b 450 576 461 574 457 576 b 435 550 439 576 435 569 b 432 535 435 538 435 536 b 394 535 431 535 414 535 l 360 535 l 365 547 b 383 588 368 554 376 572 b 399 622 390 603 397 618 b 463 763 408 646 446 729 b 493 825 474 785 488 813 b 511 865 499 838 507 856 b 521 931 525 894 528 914 b 492 960 517 943 503 957 b 244 963 483 963 285 964 b 169 954 200 960 176 957 l 164 953 l 164 965 b 158 990 164 981 163 986 b 143 993 154 994 150 996 b 136 986 140 992 138 989 z "},"_":{"ha":650,"x_min":0,"x_max":0,"o":"m 579 36 b 571 110 578 99 578 103 b 551 110 565 114 557 114 b 547 88 547 106 547 104 b 547 71 547 78 547 71 b 542 74 547 71 544 72 b 413 76 538 76 528 76 b 185 71 278 76 238 75 b 129 65 165 69 140 67 b 107 63 118 64 108 63 b 103 81 104 63 104 65 b 92 110 101 101 100 106 b 86 113 89 111 86 113 b 83 113 86 113 85 113 b 72 96 78 111 72 103 b 71 36 72 92 72 65 b 69 -22 69 7 69 -19 b 97 -32 72 -35 88 -40 b 101 -14 101 -28 101 -28 l 101 0 l 107 0 b 246 4 126 0 226 3 b 407 4 258 4 331 4 l 544 4 l 543 -10 b 544 -29 542 -22 542 -24 b 572 -29 551 -40 565 -40 b 574 35 575 -24 575 -22 z "}," ":{"ha":313,"x_min":0,"x_max":0,"o":""},"­":{"ha":0,"x_min":0,"x_max":0,"o":""},"–":{"ha":650,"x_min":0,"x_max":0,"o":"m 579 469 b 571 543 578 532 578 536 b 551 543 565 547 557 547 b 547 521 547 539 547 538 b 547 504 547 511 547 504 b 542 507 547 504 544 506 b 413 510 538 510 528 510 b 185 504 278 510 238 508 b 129 499 165 503 140 500 b 107 496 118 497 108 496 b 103 514 104 496 104 499 b 92 543 101 535 100 539 b 86 546 89 544 86 546 b 83 546 86 546 85 546 b 72 529 78 544 72 536 b 71 469 72 525 72 499 b 69 411 69 440 69 414 b 97 401 72 399 88 393 b 101 419 101 406 101 406 l 101 433 l 107 433 b 246 438 126 433 226 436 b 407 438 258 438 331 438 l 544 438 l 543 424 b 544 404 542 411 542 410 b 572 404 551 393 565 393 b 574 468 575 410 575 411 z "},"—":{"ha":892,"x_min":0,"x_max":0,"o":"m 822 469 b 814 543 821 532 821 536 b 794 543 808 547 800 547 b 790 521 790 539 790 538 b 790 504 790 511 790 504 b 785 507 790 504 788 506 b 656 510 781 510 771 510 b 185 504 521 510 238 508 b 129 499 165 503 140 500 b 107 496 118 497 108 496 b 103 514 104 496 104 499 b 92 543 101 535 100 539 b 86 546 89 544 86 546 b 83 546 86 546 85 546 b 72 529 78 544 72 536 b 71 469 72 525 72 499 b 69 411 69 440 69 414 b 97 401 72 399 88 393 b 101 419 101 406 101 406 l 101 433 l 107 433 b 246 438 126 433 226 436 b 650 438 258 438 574 438 l 788 438 l 786 424 b 788 404 785 411 785 410 b 815 404 794 393 808 393 b 817 468 818 410 818 411 z "},"•":{"ha":431,"x_min":0,"x_max":0,"o":"m 360 499 b 274 611 351 549 318 592 b 199 625 250 622 217 628 b 103 572 161 619 124 599 b 69 476 81 546 69 514 b 90 399 69 444 76 419 b 157 344 103 381 135 354 b 282 349 190 329 238 331 b 360 468 324 365 354 413 b 360 500 361 482 361 488 z "},"…":{"ha":897,"x_min":0,"x_max":0,"o":"m 825 90 b 767 146 818 111 789 139 b 732 147 751 150 744 150 b 690 125 713 143 703 138 b 661 82 678 111 665 93 b 661 38 657 71 657 49 b 683 1 667 24 675 10 b 692 -7 688 -3 692 -7 b 699 -11 692 -7 694 -8 b 713 -18 703 -14 708 -17 b 757 -18 722 -21 743 -21 b 800 3 772 -15 792 -6 b 821 44 808 11 818 31 b 821 88 824 56 824 78 z m 483 135 b 443 149 474 142 453 149 b 371 110 421 149 385 129 b 357 79 361 97 358 92 b 365 35 356 60 357 50 b 394 -6 374 18 386 1 b 438 -19 403 -12 425 -19 b 479 -11 453 -19 468 -17 b 490 -6 485 -8 490 -6 b 497 0 490 -6 493 -3 b 508 13 501 3 506 8 b 522 54 514 21 521 40 b 515 103 524 69 521 92 b 483 136 510 114 494 129 z m 140 146 b 117 143 126 146 124 146 b 71 103 97 135 79 119 b 64 78 67 96 65 92 b 79 15 63 47 67 31 b 161 -21 97 -7 133 -22 b 185 -15 169 -21 175 -19 b 221 19 203 -7 213 3 b 213 107 236 50 233 79 b 140 144 193 132 172 143 z "}}}
